Dhyana-Bold.ufo
<glyph name="quotedbl" format="1">
  <advance width="897"/>
  <unicode hex="0022"/>
  <outline>
    <contour>
      <point x="874" y="1607" type="line" smooth="no"/>
      <point x="846" y="1373"/>
      <point x="808" y="1149"/>
      <point x="775" y="920" type="curve" smooth="no"/>
      <point x="597" y="920" type="line" smooth="no"/>
      <point x="531" y="1483" type="line" smooth="no"/>
      <point x="520" y="1607" type="line" smooth="no"/>
    </contour>
    <contour>
      <point x="416" y="1607" type="line" smooth="no"/>
      <point x="388" y="1373"/>
      <point x="350" y="1149"/>
      <point x="317" y="920" type="curve" smooth="no"/>
      <point x="139" y="920" type="line" smooth="no"/>
      <point x="71" y="1498" type="line" smooth="no"/>
      <point x="62" y="1607" type="line" smooth="no"/>
    </contour>
  </outline>
</glyph>
<glyph name="percent" format="1">
  <advance width="1724"/>
  <unicode hex="0025"/>
  <outline>
    <contour>
      <point x="1216" y="457" type="curve" smooth="yes"/>
      <point x="1216" y="303"/>
      <point x="1241" y="174"/>
      <point x="1390" y="174" type="curve" smooth="yes"/>
      <point x="1539" y="174"/>
      <point x="1565" y="303"/>
      <point x="1565" y="457" type="curve" smooth="yes"/>
      <point x="1565" y="620"/>
      <point x="1535" y="749"/>
      <point x="1390" y="749" type="curve" smooth="yes"/>
      <point x="1244" y="749"/>
      <point x="1216" y="621"/>
    </contour>
    <contour>
      <point x="1754" y="451" type="curve" smooth="yes"/>
      <point x="1754" y="207"/>
      <point x="1639" y="12"/>
      <point x="1393" y="12" type="curve" smooth="yes"/>
      <point x="1145" y="12"/>
      <point x="1032" y="205"/>
      <point x="1032" y="451" type="curve" smooth="yes"/>
      <point x="1032" y="727"/>
      <point x="1136" y="916"/>
      <point x="1393" y="916" type="curve" smooth="yes"/>
      <point x="1655" y="916"/>
      <point x="1754" y="731"/>
    </contour>
    <contour>
      <point x="213" y="1070" type="curve" smooth="yes"/>
      <point x="213" y="916"/>
      <point x="238" y="788"/>
      <point x="387" y="788" type="curve" smooth="yes"/>
      <point x="536" y="788"/>
      <point x="562" y="917"/>
      <point x="562" y="1070" type="curve" smooth="yes"/>
      <point x="562" y="1233"/>
      <point x="532" y="1362"/>
      <point x="387" y="1362" type="curve" smooth="yes"/>
      <point x="242" y="1362"/>
      <point x="213" y="1233"/>
    </contour>
    <contour>
      <point x="752" y="1064" type="curve" smooth="yes"/>
      <point x="752" y="820"/>
      <point x="637" y="625"/>
      <point x="391" y="625" type="curve" smooth="yes"/>
      <point x="143" y="625"/>
      <point x="29" y="818"/>
      <point x="29" y="1064" type="curve" smooth="yes"/>
      <point x="29" y="1341"/>
      <point x="133" y="1530"/>
      <point x="391" y="1530" type="curve" smooth="yes"/>
      <point x="651" y="1530"/>
      <point x="752" y="1342"/>
    </contour>
    <contour>
      <point x="1136" y="1527" type="line" smooth="no"/>
      <point x="1308" y="1437" type="line" smooth="no"/>
      <point x="609" y="-33" type="line" smooth="no"/>
      <point x="436" y="49" type="line" smooth="no"/>
    </contour>
  </outline>
</glyph>
<glyph name="parenleft" format="1">
  <advance width="859"/>
  <unicode hex="0028"/>
  <outline>
    <contour>
      <point x="641" y="-270" type="line" smooth="no"/>
      <point x="384" y="-84"/>
      <point x="203" y="251"/>
      <point x="203" y="698" type="curve" smooth="yes"/>
      <point x="203" y="1145"/>
      <point x="378" y="1486"/>
      <point x="634" y="1675" type="curve" smooth="no"/>
      <point x="777" y="1504" type="line" smooth="no"/>
      <point x="596" y="1335"/>
      <point x="474" y="1049"/>
      <point x="474" y="698" type="curve" smooth="yes"/>
      <point x="474" y="349"/>
      <point x="590" y="67"/>
      <point x="773" y="-97" type="curve" smooth="no"/>
    </contour>
  </outline>
</glyph>
<glyph name="parenright" format="1">
  <advance width="857"/>
  <unicode hex="0029"/>
  <outline>
    <contour>
      <point x="231" y="1677" type="line" smooth="no"/>
      <point x="487" y="1488"/>
      <point x="670" y="1159"/>
      <point x="670" y="713" type="curve" smooth="yes"/>
      <point x="670" y="258"/>
      <point x="493" y="-77"/>
      <point x="233" y="-270" type="curve" smooth="no"/>
      <point x="95" y="-98" type="line" smooth="no"/>
      <point x="277" y="68"/>
      <point x="398" y="359"/>
      <point x="398" y="707" type="curve" smooth="yes"/>
      <point x="398" y="1057"/>
      <point x="279" y="1336"/>
      <point x="99" y="1504" type="curve" smooth="no"/>
    </contour>
  </outline>
</glyph>
<glyph name="asterisk" format="1">
  <advance width="998"/>
  <unicode hex="002a"/>
  <outline>
    <contour>
      <point x="617" y="1640" type="line" smooth="no"/>
      <point x="778" y="1546" type="line" smooth="no"/>
      <point x="631" y="1291" type="line" smooth="no"/>
      <point x="911" y="1291" type="line" smooth="no"/>
      <point x="911" y="1134" type="line" smooth="no"/>
      <point x="634" y="1134" type="line" smooth="no"/>
      <point x="785" y="883" type="line" smooth="no"/>
      <point x="622" y="787" type="line" smooth="no"/>
      <point x="483" y="1033" type="line" smooth="no"/>
      <point x="344" y="788" type="line" smooth="no"/>
      <point x="182" y="883" type="line" smooth="no"/>
      <point x="333" y="1134" type="line" smooth="no"/>
      <point x="44" y="1134" type="line" smooth="no"/>
      <point x="44" y="1291" type="line" smooth="no"/>
      <point x="336" y="1291" type="line" smooth="no"/>
      <point x="188" y="1548" type="line" smooth="no"/>
      <point x="349" y="1639" type="line" smooth="no"/>
      <point x="481" y="1392" type="line" smooth="no"/>
    </contour>
  </outline>
</glyph>
<glyph name="plus" format="1">
  <advance width="1074"/>
  <unicode hex="002b"/>
  <outline>
    <contour>
      <point x="668" y="485" type="line" smooth="no"/>
      <point x="668" y="130" type="line" smooth="no"/>
      <point x="434" y="130" type="line" smooth="no"/>
      <point x="434" y="485" type="line" smooth="no"/>
      <point x="137" y="485" type="line" smooth="no"/>
      <point x="137" y="705" type="line" smooth="no"/>
      <point x="434" y="705" type="line" smooth="no"/>
      <point x="434" y="1059" type="line" smooth="no"/>
      <point x="668" y="1059" type="line" smooth="no"/>
      <point x="668" y="705" type="line" smooth="no"/>
      <point x="966" y="705" type="line" smooth="no"/>
      <point x="966" y="485" type="line" smooth="no"/>
    </contour>
  </outline>
</glyph>
<glyph name="comma" format="1">
  <advance width="661"/>
  <unicode hex="002c"/>
  <outline>
    <contour>
      <point x="154" y="373" type="line" smooth="no"/>
      <point x="516" y="373" type="line" smooth="no"/>
      <point x="516" y="51" type="line" smooth="yes"/>
      <point x="516" y="-161"/>
      <point x="370" y="-243"/>
      <point x="206" y="-291" type="curve" smooth="no"/>
      <point x="155" y="-183" type="line" smooth="no"/>
      <point x="244" y="-151"/>
      <point x="316" y="-117"/>
      <point x="316" y="0" type="curve" smooth="no"/>
      <point x="154" y="0" type="line" smooth="no"/>
    </contour>
  </outline>
</glyph>
<glyph name="hyphen" format="1">
  <advance width="1078"/>
  <unicode hex="002d"/>
  <outline>
    <contour>
      <point x="159" y="558" type="line" smooth="no"/>
      <point x="159" y="783" type="line" smooth="no"/>
      <point x="920" y="783" type="line" smooth="no"/>
      <point x="920" y="558" type="line" smooth="no"/>
    </contour>
  </outline>
</glyph>
<glyph name="period" format="1">
  <advance width="714"/>
  <unicode hex="002e"/>
  <outline>
    <contour>
      <point x="176" y="373" type="line" smooth="no"/>
      <point x="539" y="373" type="line" smooth="no"/>
      <point x="539" y="0" type="line" smooth="no"/>
      <point x="176" y="0" type="line" smooth="no"/>
    </contour>
  </outline>
</glyph>
<glyph name="slash" format="1">
  <advance width="982"/>
  <unicode hex="002f"/>
  <outline>
    <contour>
      <point x="733" y="1723" type="line" smooth="no"/>
      <point x="974" y="1643" type="line" smooth="no"/>
      <point x="368" y="-162" type="line" smooth="no"/>
      <point x="130" y="-84" type="line" smooth="no"/>
    </contour>
  </outline>
</glyph>
<glyph name="one" format="1">
  <advance width="861"/>
  <unicode hex="0031"/>
  <outline>
    <contour>
      <point x="346" y="974" type="line" smooth="no"/>
      <point x="167" y="893" type="line" smooth="no"/>
      <point x="87" y="1090" type="line" smooth="no"/>
      <point x="165" y="1123"/>
      <point x="242" y="1156"/>
      <point x="321" y="1188" type="curve" smooth="no"/>
      <point x="424" y="1204" type="line" smooth="no"/>
      <point x="636" y="1204" type="line" smooth="no"/>
      <point x="636" y="0" type="line" smooth="no"/>
      <point x="346" y="0" type="line" smooth="no"/>
    </contour>
  </outline>
</glyph>
<glyph name="two" format="1">
  <advance width="1167"/>
  <unicode hex="0032"/>
  <outline>
    <contour>
      <point x="575" y="1215" type="curve" smooth="yes"/>
      <point x="829" y="1215"/>
      <point x="1029" y="1104"/>
      <point x="1029" y="853" type="curve" smooth="yes"/>
      <point x="1029" y="624"/>
      <point x="875" y="508"/>
      <point x="742" y="395" type="curve" smooth="yes"/>
      <point x="541" y="226" type="line" smooth="no"/>
      <point x="1009" y="226" type="line" smooth="no"/>
      <point x="1009" y="0" type="line" smooth="no"/>
      <point x="153" y="0" type="line" smooth="no"/>
      <point x="153" y="193" type="line" smooth="no"/>
      <point x="578" y="548" type="line" smooth="no"/>
      <point x="666" y="620"/>
      <point x="758" y="694"/>
      <point x="758" y="824" type="curve" smooth="yes"/>
      <point x="758" y="940"/>
      <point x="689" y="998"/>
      <point x="552" y="998" type="curve" smooth="yes"/>
      <point x="431" y="998"/>
      <point x="321" y="950"/>
      <point x="237" y="907" type="curve" smooth="no"/>
      <point x="159" y="1101" type="line" smooth="no"/>
      <point x="261" y="1160"/>
      <point x="413" y="1215"/>
    </contour>
  </outline>
</glyph>
<glyph name="four" format="1">
  <advance width="1271"/>
  <unicode hex="0034"/>
  <outline>
    <contour>
      <point x="733" y="276" type="line" smooth="no"/>
      <point x="733" y="825" type="line" smooth="no"/>
      <point x="363" y="276" type="line" smooth="no"/>
    </contour>
    <contour>
      <point x="979" y="1179" type="line" smooth="no"/>
      <point x="979" y="279" type="line" smooth="no"/>
      <point x="1164" y="279" type="line" smooth="no"/>
      <point x="1164" y="64" type="line" smooth="no"/>
      <point x="979" y="64" type="line" smooth="no"/>
      <point x="979" y="-238" type="line" smooth="no"/>
      <point x="733" y="-238" type="line" smooth="no"/>
      <point x="733" y="64" type="line" smooth="no"/>
      <point x="120" y="64" type="line" smooth="no"/>
      <point x="83" y="243" type="line" smooth="no"/>
      <point x="758" y="1236" type="line" smooth="no"/>
    </contour>
  </outline>
</glyph>
<glyph name="at" format="1">
  <advance width="1982"/>
  <unicode hex="0040"/>
  <outline>
    <contour>
      <point x="1446" y="-19" type="line" smooth="no"/>
      <point x="1341" y="-103"/>
      <point x="1177" y="-144"/>
      <point x="989" y="-144" type="curve" smooth="yes"/>
      <point x="481" y="-144"/>
      <point x="134" y="126"/>
      <point x="134" y="628" type="curve" smooth="yes"/>
      <point x="134" y="1170"/>
      <point x="503" y="1529"/>
      <point x="1049" y="1529" type="curve" smooth="yes"/>
      <point x="1520" y="1529"/>
      <point x="1873" y="1268"/>
      <point x="1873" y="797" type="curve" smooth="yes"/>
      <point x="1873" y="478"/>
      <point x="1723" y="247"/>
      <point x="1400" y="247" type="curve" smooth="yes"/>
      <point x="1293" y="247"/>
      <point x="1254" y="314"/>
      <point x="1254" y="420" type="curve" smooth="yes"/>
      <point x="1254" y="482" type="line" smooth="yes"/>
      <point x="1254" y="503"/>
      <point x="1255" y="524"/>
      <point x="1256" y="545" type="curve" smooth="no"/>
      <point x="1205" y="376"/>
      <point x="1114" y="239"/>
      <point x="895" y="239" type="curve" smooth="yes"/>
      <point x="659" y="239"/>
      <point x="519" y="405"/>
      <point x="519" y="643" type="curve" smooth="yes"/>
      <point x="519" y="950"/>
      <point x="758" y="1171"/>
      <point x="1065" y="1171" type="curve" smooth="yes"/>
      <point x="1243" y="1171"/>
      <point x="1417" y="1140"/>
      <point x="1440" y="987" type="curve" smooth="no"/>
      <point x="1440" y="957"/>
      <point x="1439" y="931"/>
      <point x="1438" y="903" type="curve" smooth="no"/>
      <point x="1388" y="415" type="line" smooth="no"/>
      <point x="1574" y="435"/>
      <point x="1643" y="557"/>
      <point x="1643" y="772" type="curve" smooth="yes"/>
      <point x="1643" y="1147"/>
      <point x="1408" y="1325"/>
      <point x="1036" y="1325" type="curve" smooth="yes"/>
      <point x="621" y="1325"/>
      <point x="371" y="1045"/>
      <point x="371" y="628" type="curve" smooth="yes"/>
      <point x="371" y="235"/>
      <point x="623" y="52"/>
      <point x="1018" y="52" type="curve" smooth="yes"/>
      <point x="1168" y="52"/>
      <point x="1269" y="100"/>
      <point x="1376" y="146" type="curve" smooth="no"/>
    </contour>
    <contour>
      <point x="1254" y="993" type="curve" smooth="no"/>
      <point x="1201" y="1002"/>
      <point x="1139" y="1013"/>
      <point x="1075" y="1013" type="curve" smooth="yes"/>
      <point x="850" y="1013"/>
      <point x="733" y="851"/>
      <point x="733" y="622" type="curve" smooth="yes"/>
      <point x="733" y="503"/>
      <point x="788" y="412"/>
      <point x="906" y="412" type="curve" smooth="yes"/>
      <point x="1178" y="412"/>
      <point x="1236" y="733"/>
    </contour>
  </outline>
</glyph>
<glyph name="F" format="1">
  <advance width="1219"/>
  <unicode hex="0046"/>
  <outline>
    <contour>
      <point x="461" y="0" type="line" smooth="no"/>
      <point x="156" y="0" type="line" smooth="no"/>
      <point x="156" y="1607" type="line" smooth="no"/>
      <point x="1192" y="1607" type="line" smooth="no"/>
      <point x="1192" y="1405" type="line" smooth="no"/>
      <point x="461" y="1405" type="line" smooth="no"/>
      <point x="461" y="925" type="line" smooth="no"/>
      <point x="1114" y="925" type="line" smooth="no"/>
      <point x="1114" y="739" type="line" smooth="no"/>
      <point x="461" y="739" type="line" smooth="no"/>
    </contour>
  </outline>
</glyph>
<glyph name="K" format="1">
  <advance width="1469"/>
  <unicode hex="004b"/>
  <outline>
    <contour>
      <point x="462" y="0" type="line" smooth="no"/>
      <point x="156" y="0" type="line" smooth="no"/>
      <point x="156" y="1607" type="line" smooth="no"/>
      <point x="462" y="1607" type="line" smooth="no"/>
      <point x="462" y="895" type="line" smooth="no"/>
      <point x="601" y="895" type="line" smooth="no"/>
      <point x="1067" y="1607" type="line" smooth="no"/>
      <point x="1389" y="1607" type="line" smooth="no"/>
      <point x="843" y="809" type="line" smooth="no"/>
      <point x="1450" y="0" type="line" smooth="no"/>
      <point x="1107" y="0" type="line" smooth="no"/>
      <point x="593" y="713" type="line" smooth="no"/>
      <point x="462" y="713" type="line" smooth="no"/>
    </contour>
  </outline>
</glyph>
<glyph name="L" format="1">
  <advance width="1216"/>
  <unicode hex="004c"/>
  <outline>
    <contour>
      <point x="156" y="0" type="line" smooth="no"/>
      <point x="156" y="1607" type="line" smooth="no"/>
      <point x="461" y="1607" type="line" smooth="no"/>
      <point x="461" y="202" type="line" smooth="no"/>
      <point x="1181" y="202" type="line" smooth="no"/>
      <point x="1181" y="0" type="line" smooth="no"/>
    </contour>
  </outline>
</glyph>
<glyph name="O" format="1">
  <advance width="1611"/>
  <unicode hex="004f"/>
  <outline>
    <contour>
      <point x="805" y="1635" type="curve" smooth="yes"/>
      <point x="1297" y="1635"/>
      <point x="1507" y="1305"/>
      <point x="1507" y="810" type="curve" smooth="yes"/>
      <point x="1507" y="307"/>
      <point x="1310" y="-35"/>
      <point x="805" y="-35" type="curve" smooth="yes"/>
      <point x="298" y="-35"/>
      <point x="104" y="312"/>
      <point x="104" y="819" type="curve" smooth="yes"/>
      <point x="104" y="1309"/>
      <point x="318" y="1635"/>
    </contour>
    <contour>
      <point x="808" y="1411" type="curve" smooth="yes"/>
      <point x="486" y="1411"/>
      <point x="413" y="1126"/>
      <point x="413" y="798" type="curve" smooth="yes"/>
      <point x="413" y="476"/>
      <point x="488" y="192"/>
      <point x="805" y="192" type="curve" smooth="yes"/>
      <point x="1123" y="192"/>
      <point x="1199" y="474"/>
      <point x="1199" y="798" type="curve" smooth="yes"/>
      <point x="1199" y="1123"/>
      <point x="1126" y="1411"/>
    </contour>
  </outline>
</glyph>
<glyph name="R" format="1">
  <advance width="1463"/>
  <unicode hex="0052"/>
  <outline>
    <contour>
      <point x="1034" y="1168" type="curve" smooth="yes"/>
      <point x="1034" y="1395"/>
      <point x="827" y="1405"/>
      <point x="598" y="1405" type="curve" smooth="yes"/>
      <point x="462" y="1405" type="line" smooth="no"/>
      <point x="462" y="900" type="line" smooth="no"/>
      <point x="608" y="900" type="line" smooth="yes"/>
      <point x="839" y="900"/>
      <point x="1034" y="943"/>
    </contour>
    <contour>
      <point x="1343" y="1201" type="curve" smooth="yes"/>
      <point x="1343" y="924"/>
      <point x="1158" y="813"/>
      <point x="889" y="805" type="curve" smooth="no"/>
      <point x="1151" y="776"/>
      <point x="1349" y="683"/>
      <point x="1349" y="395" type="curve" smooth="yes"/>
      <point x="1349" y="0" type="line" smooth="no"/>
      <point x="1046" y="0" type="line" smooth="no"/>
      <point x="1046" y="416" type="line" smooth="yes"/>
      <point x="1046" y="675"/>
      <point x="865" y="711"/>
      <point x="606" y="711" type="curve" smooth="yes"/>
      <point x="462" y="711" type="line" smooth="no"/>
      <point x="462" y="0" type="line" smooth="no"/>
      <point x="156" y="0" type="line" smooth="no"/>
      <point x="156" y="1607" type="line" smooth="no"/>
      <point x="601" y="1607" type="line" smooth="yes"/>
      <point x="980" y="1607"/>
      <point x="1343" y="1564"/>
    </contour>
  </outline>
</glyph>
<glyph name="W" format="1">
  <advance width="2028"/>
  <unicode hex="0057"/>
  <outline>
    <contour>
      <point x="1189" y="1607" type="line" smooth="no"/>
      <point x="1435" y="331" type="line" smooth="no"/>
      <point x="1691" y="1607" type="line" smooth="no"/>
      <point x="1986" y="1607" type="line" smooth="no"/>
      <point x="1638" y="-2" type="line" smooth="no"/>
      <point x="1261" y="-2" type="line" smooth="no"/>
      <point x="1014" y="1338" type="line" smooth="no"/>
      <point x="751" y="0" type="line" smooth="no"/>
      <point x="388" y="0" type="line" smooth="no"/>
      <point x="41" y="1607" type="line" smooth="no"/>
      <point x="336" y="1607" type="line" smooth="no"/>
      <point x="591" y="331" type="line" smooth="no"/>
      <point x="837" y="1607" type="line" smooth="no"/>
    </contour>
  </outline>
</glyph>
<glyph name="Y" format="1">
  <advance width="1291"/>
  <unicode hex="0059"/>
  <outline>
    <contour>
      <point x="1002" y="1607" type="line" smooth="no"/>
      <point x="1310" y="1607" type="line" smooth="no"/>
      <point x="789" y="514" type="line" smooth="no"/>
      <point x="789" y="0" type="line" smooth="no"/>
      <point x="498" y="0" type="line" smooth="no"/>
      <point x="498" y="514" type="line" smooth="no"/>
      <point x="-19" y="1607" type="line" smooth="no"/>
      <point x="287" y="1607" type="line" smooth="no"/>
      <point x="645" y="830" type="line" smooth="no"/>
    </contour>
  </outline>
</glyph>
<glyph name="asciicircum" format="1">
  <advance width="1331"/>
  <unicode hex="005e"/>
  <outline>
    <contour>
      <point x="763" y="1135" type="line" smooth="no"/>
      <point x="1039" y="552" type="line" smooth="no"/>
      <point x="819" y="521" type="line" smooth="no"/>
      <point x="664" y="909" type="line" smooth="no"/>
      <point x="510" y="521" type="line" smooth="no"/>
      <point x="291" y="552" type="line" smooth="no"/>
      <point x="568" y="1135" type="line" smooth="no"/>
    </contour>
  </outline>
</glyph>
<glyph name="underscore" format="1">
  <advance width="1204"/>
  <unicode hex="005f"/>
  <outline>
    <contour>
      <point x="92" y="-105" type="line" smooth="no"/>
      <point x="92" y="115" type="line" smooth="no"/>
      <point x="1084" y="115" type="line" smooth="no"/>
      <point x="1084" y="-105" type="line" smooth="no"/>
    </contour>
  </outline>
</glyph>
<glyph name="grave" format="1">
  <advance width="844"/>
  <unicode hex="0060"/>
  <outline>
    <contour>
      <point x="181" y="776" type="line" smooth="no"/>
      <point x="470" y="901" type="line" smooth="no"/>
      <point x="657" y="275" type="line" smooth="no"/>
      <point x="533" y="218" type="line" smooth="no"/>
    </contour>
  </outline>
</glyph>
<glyph name="a" format="1">
  <advance width="1244"/>
  <unicode hex="0061"/>
  <outline>
    <contour>
      <point x="819" y="709" type="curve" smooth="no"/>
      <point x="819" y="897"/>
      <point x="806" y="1016"/>
      <point x="617" y="1016" type="curve" smooth="yes"/>
      <point x="466" y="1016"/>
      <point x="340" y="971"/>
      <point x="239" y="912" type="curve" smooth="no"/>
      <point x="160" y="1094" type="line" smooth="no"/>
      <point x="285" y="1168"/>
      <point x="425" y="1215"/>
      <point x="624" y="1215" type="curve" smooth="yes"/>
      <point x="993" y="1215"/>
      <point x="1110" y="1035"/>
      <point x="1110" y="666" type="curve" smooth="yes"/>
      <point x="1110" y="0" type="line" smooth="no"/>
      <point x="886" y="0" type="line" smooth="no"/>
      <point x="846" y="164" type="line" smooth="no"/>
      <point x="769" y="47"/>
      <point x="672" y="-24"/>
      <point x="494" y="-24" type="curve" smooth="yes"/>
      <point x="239" y="-24"/>
      <point x="85" y="106"/>
      <point x="85" y="360" type="curve" smooth="yes"/>
      <point x="85" y="615"/>
      <point x="280" y="725"/>
      <point x="528" y="735" type="curve" smooth="no"/>
      <point x="634" y="735"/>
      <point x="741" y="724"/>
    </contour>
    <contour>
      <point x="378" y="382" type="curve" smooth="yes"/>
      <point x="378" y="248"/>
      <point x="441" y="177"/>
      <point x="569" y="177" type="curve" smooth="yes"/>
      <point x="683" y="177"/>
      <point x="757" y="233"/>
      <point x="819" y="300" type="curve" smooth="no"/>
      <point x="819" y="561" type="line" smooth="no"/>
      <point x="799" y="561"/>
      <point x="772" y="566"/>
      <point x="750" y="568" type="curve" smooth="yes"/>
      <point x="706" y="572" type="line" smooth="yes"/>
      <point x="691" y="573"/>
      <point x="678" y="574"/>
      <point x="667" y="574" type="curve" smooth="yes"/>
      <point x="502" y="574"/>
      <point x="378" y="545"/>
    </contour>
  </outline>
</glyph>
<glyph name="b" format="1">
  <advance width="1325"/>
  <unicode hex="0062"/>
  <outline>
    <contour>
      <point x="446" y="292" type="line" smooth="no"/>
      <point x="515" y="223"/>
      <point x="591" y="177"/>
      <point x="713" y="177" type="curve" smooth="yes"/>
      <point x="910" y="177"/>
      <point x="953" y="376"/>
      <point x="953" y="608" type="curve" smooth="yes"/>
      <point x="953" y="815"/>
      <point x="929" y="1016"/>
      <point x="732" y="1016" type="curve" smooth="yes"/>
      <point x="607" y="1016"/>
      <point x="524" y="960"/>
      <point x="446" y="890" type="curve" smooth="no"/>
    </contour>
    <contour>
      <point x="1247.92" y="616.139" type="curve" smooth="yes"/>
      <point x="1247.92" y="269.696"/>
      <point x="1113.35" y="-24"/>
      <point x="759" y="-24" type="curve" smooth="yes"/>
      <point x="589" y="-24"/>
      <point x="479" y="56"/>
      <point x="419" y="174" type="curve" smooth="no"/>
      <point x="361" y="0" type="line" smooth="no"/>
      <point x="154" y="0" type="line" smooth="no"/>
      <point x="154" y="1668" type="line" smooth="no"/>
      <point x="446" y="1712" type="line" smooth="no"/>
      <point x="446" y="1067" type="line" smooth="no"/>
      <point x="521" y="1149"/>
      <point x="633" y="1215"/>
      <point x="773" y="1215" type="curve" smooth="yes"/>
      <point x="1091.67" y="1215"/>
      <point x="1247.92" y="933.376"/>
    </contour>
  </outline>
</glyph>
<glyph name="c" format="1">
  <advance width="1104"/>
  <unicode hex="0063"/>
  <outline>
    <contour>
      <point x="1041" y="91" type="line" smooth="no"/>
      <point x="945" y="22"/>
      <point x="821" y="-24"/>
      <point x="653" y="-24" type="curve" smooth="yes"/>
      <point x="281" y="-24"/>
      <point x="85" y="217"/>
      <point x="85" y="585" type="curve" smooth="yes"/>
      <point x="85" y="949"/>
      <point x="291" y="1215"/>
      <point x="656" y="1215" type="curve" smooth="yes"/>
      <point x="822" y="1215"/>
      <point x="946" y="1174"/>
      <point x="1041" y="1105" type="curve" smooth="no"/>
      <point x="978" y="912" type="line" smooth="no"/>
      <point x="909" y="969"/>
      <point x="810" y="1016"/>
      <point x="686" y="1016" type="curve" smooth="no"/>
      <point x="450" y="1005"/>
      <point x="379" y="840"/>
      <point x="379" y="591" type="curve" smooth="yes"/>
      <point x="379" y="348"/>
      <point x="465" y="177"/>
      <point x="691" y="177" type="curve" smooth="yes"/>
      <point x="822" y="177"/>
      <point x="905" y="225"/>
      <point x="978" y="283" type="curve" smooth="no"/>
    </contour>
  </outline>
</glyph>
<glyph name="d" format="1">
  <advance width="1323"/>
  <unicode hex="0064"/>
  <outline>
    <contour>
      <point x="597" y="1016" type="curve" smooth="yes"/>
      <point x="398" y="1016"/>
      <point x="375" y="801"/>
      <point x="375" y="596" type="curve" smooth="yes"/>
      <point x="375" y="383"/>
      <point x="415" y="177"/>
      <point x="619" y="177" type="curve" smooth="yes"/>
      <point x="737" y="177"/>
      <point x="827" y="224"/>
      <point x="884" y="293" type="curve" smooth="no"/>
      <point x="884" y="890" type="line" smooth="no"/>
      <point x="806" y="953"/>
      <point x="720" y="1016"/>
    </contour>
    <contour>
      <point x="85" y="629" type="curve" smooth="yes"/>
      <point x="85" y="937"/>
      <point x="237" y="1215"/>
      <point x="541" y="1215" type="curve" smooth="yes"/>
      <point x="702" y="1215"/>
      <point x="808" y="1153"/>
      <point x="884" y="1057" type="curve" smooth="no"/>
      <point x="884" y="1668" type="line" smooth="no"/>
      <point x="1176" y="1712" type="line" smooth="no"/>
      <point x="1176" y="0" type="line" smooth="no"/>
      <point x="967" y="0" type="line" smooth="no"/>
      <point x="909" y="174" type="line" smooth="no"/>
      <point x="853" y="65"/>
      <point x="726" y="-24"/>
      <point x="565" y="-24" type="curve" smooth="yes"/>
      <point x="208" y="-24"/>
      <point x="85" y="271"/>
    </contour>
  </outline>
</glyph>
<glyph name="g" format="1">
  <advance width="1280"/>
  <unicode hex="0067"/>
  <outline>
    <contour>
      <point x="478" y="69" type="curve" smooth="no"/>
      <point x="406.27" y="29.5486"/>
      <point x="331.829" y="-52.2593"/>
      <point x="331.829" y="-159.099" type="curve" smooth="yes"/>
      <point x="331.829" y="-266.239"/>
      <point x="451.454" y="-299"/>
      <point x="582" y="-299" type="curve" smooth="yes"/>
      <point x="779" y="-299"/>
      <point x="967" y="-298"/>
      <point x="967" y="-110" type="curve" smooth="yes"/>
      <point x="967" y="89"/>
      <point x="675" y="57"/>
    </contour>
    <contour>
      <point x="631" y="1018" type="curve" smooth="yes"/>
      <point x="489" y="1018"/>
      <point x="409" y="971"/>
      <point x="409" y="828" type="curve" smooth="yes"/>
      <point x="409" y="717"/>
      <point x="467" y="640"/>
      <point x="541" y="602" type="curve" smooth="no"/>
      <point x="663" y="615" type="line" smooth="no"/>
      <point x="773" y="633"/>
      <point x="845" y="712"/>
      <point x="845" y="841" type="curve" smooth="yes"/>
      <point x="845" y="975"/>
      <point x="769" y="1018"/>
    </contour>
    <contour>
      <point x="910" y="1148" type="curve" smooth="no"/>
      <point x="999" y="1190"/>
      <point x="1089" y="1207"/>
      <point x="1222" y="1207" type="curve" smooth="yes"/>
      <point x="1266" y="1207" type="line" smooth="no"/>
      <point x="1266" y="1008" type="line" smooth="no"/>
      <point x="1018" y="1008" type="line" smooth="no"/>
      <point x="1054" y="962"/>
      <point x="1090" y="916"/>
      <point x="1090" y="849" type="curve" smooth="yes"/>
      <point x="1090" y="595"/>
      <point x="928" y="478"/>
      <point x="695" y="449" type="curve" smooth="no"/>
      <point x="367" y="406" type="line" smooth="no"/>
      <point x="386" y="272" type="line" smooth="no"/>
      <point x="667" y="260" type="line" smooth="no"/>
      <point x="965" y="245"/>
      <point x="1221" y="188"/>
      <point x="1221" y="-117" type="curve" smooth="yes"/>
      <point x="1221" y="-448"/>
      <point x="920" y="-516"/>
      <point x="582" y="-516" type="curve" smooth="yes"/>
      <point x="299" y="-516"/>
      <point x="98" y="-443"/>
      <point x="98" y="-164" type="curve" smooth="yes"/>
      <point x="98" y="-21"/>
      <point x="204" y="59"/>
      <point x="303" y="106" type="curve" smooth="no"/>
      <point x="175" y="124"/>
      <point x="140" y="214"/>
      <point x="133" y="356" type="curve" smooth="no"/>
      <point x="133" y="502"/>
      <point x="255" y="528"/>
      <point x="374" y="556" type="curve" smooth="no"/>
      <point x="240" y="573"/>
      <point x="152" y="678"/>
      <point x="152" y="831" type="curve" smooth="yes"/>
      <point x="152" y="1093"/>
      <point x="348" y="1215"/>
      <point x="613" y="1215" type="curve" smooth="yes"/>
      <point x="737" y="1215"/>
      <point x="838" y="1197"/>
    </contour>
  </outline>
</glyph>
<glyph name="i" format="1">
  <advance width="649"/>
  <unicode hex="0069"/>
  <outline>
    <contour>
      <point x="179" y="0" type="line" smooth="no"/>
      <point x="179" y="1185" type="line" smooth="no"/>
      <point x="468" y="1185" type="line" smooth="no"/>
      <point x="468" y="0" type="line" smooth="no"/>
    </contour>
    <contour>
      <point x="325" y="1412" type="curve" smooth="yes"/>
      <point x="228" y="1412"/>
      <point x="161" y="1481"/>
      <point x="161" y="1578" type="curve" smooth="yes"/>
      <point x="161" y="1672"/>
      <point x="230" y="1744"/>
      <point x="325" y="1744" type="curve" smooth="yes"/>
      <point x="420" y="1744"/>
      <point x="490" y="1673"/>
      <point x="490" y="1578" type="curve" smooth="yes"/>
      <point x="490" y="1483"/>
      <point x="419" y="1412"/>
    </contour>
  </outline>
</glyph>
<glyph name="l" format="1">
  <advance width="621"/>
  <unicode hex="006c"/>
  <outline>
    <contour>
      <point x="457" y="0" type="line" smooth="no"/>
      <point x="163" y="0" type="line" smooth="no"/>
      <point x="163" y="1668" type="line" smooth="no"/>
      <point x="457" y="1712" type="line" smooth="no"/>
    </contour>
  </outline>
</glyph>
<glyph name="m" format="1">
  <advance width="1985"/>
  <unicode hex="006d"/>
  <outline>
    <contour>
      <point x="697.667" y="1011" type="curve" smooth="yes"/>
      <point x="582.082" y="1011"/>
      <point x="505.42" y="928.887"/>
      <point x="446" y="858" type="curve" smooth="no"/>
      <point x="446" y="0" type="line" smooth="no"/>
      <point x="154" y="0" type="line" smooth="no"/>
      <point x="154" y="1185" type="line" smooth="no"/>
      <point x="363" y="1185" type="line" smooth="no"/>
      <point x="422" y="992" type="line" smooth="no"/>
      <point x="485" y="1126"/>
      <point x="592" y="1215"/>
      <point x="775" y="1215" type="curve" smooth="yes"/>
      <point x="945" y="1215"/>
      <point x="1044" y="1142"/>
      <point x="1096" y="1019" type="curve" smooth="no"/>
      <point x="1177" y="1136"/>
      <point x="1295" y="1215"/>
      <point x="1484" y="1215" type="curve" smooth="yes"/>
      <point x="1740" y="1215"/>
      <point x="1849" y="1031"/>
      <point x="1849" y="773" type="curve" smooth="yes"/>
      <point x="1849" y="0" type="line" smooth="no"/>
      <point x="1556" y="0" type="line" smooth="no"/>
      <point x="1556" y="790" type="line" smooth="yes"/>
      <point x="1556" y="917.772"/>
      <point x="1522.2" y="1014.28"/>
      <point x="1408.78" y="1014.28" type="curve" smooth="yes"/>
      <point x="1284.96" y="1014.28"/>
      <point x="1216.17" y="948.268"/>
      <point x="1145" y="876" type="curve" smooth="no"/>
      <point x="1145" y="0" type="line" smooth="no"/>
      <point x="853" y="0" type="line" smooth="no"/>
      <point x="853" y="797" type="line" smooth="yes"/>
      <point x="853" y="928.675"/>
      <point x="822.679" y="1011"/>
    </contour>
  </outline>
</glyph>
<glyph name="q" format="1">
  <advance width="1323"/>
  <unicode hex="0071"/>
  <outline>
    <contour>
      <point x="374" y="588" type="curve" smooth="yes"/>
      <point x="374" y="386"/>
      <point x="405" y="177"/>
      <point x="605" y="177" type="curve" smooth="yes"/>
      <point x="724" y="177"/>
      <point x="821" y="247"/>
      <point x="884" y="308" type="curve" smooth="no"/>
      <point x="884" y="870" type="line" smooth="no"/>
      <point x="822" y="949"/>
      <point x="737" y="1016"/>
      <point x="614" y="1016" type="curve" smooth="yes"/>
      <point x="406" y="1016"/>
      <point x="374" y="798"/>
    </contour>
    <contour>
      <point x="85" y="586" type="curve" smooth="yes"/>
      <point x="85" y="950"/>
      <point x="210" y="1215"/>
      <point x="572" y="1215" type="curve" smooth="yes"/>
      <point x="729" y="1215"/>
      <point x="831" y="1124"/>
      <point x="892" y="1009" type="curve" smooth="no"/>
      <point x="935" y="1185" type="line" smooth="no"/>
      <point x="1176" y="1185" type="line" smooth="no"/>
      <point x="1176" y="-442" type="line" smooth="no"/>
      <point x="884" y="-452" type="line" smooth="no"/>
      <point x="884" y="141" type="line" smooth="no"/>
      <point x="812" y="55"/>
      <point x="712" y="-24"/>
      <point x="566" y="-24" type="curve" smooth="yes"/>
      <point x="227" y="-24"/>
      <point x="85" y="247"/>
    </contour>
  </outline>
</glyph>
<glyph name="s" format="1">
  <advance width="1070"/>
  <unicode hex="0073"/>
  <outline>
    <contour>
      <point x="522" y="177" type="curve" smooth="yes"/>
      <point x="638" y="177"/>
      <point x="721" y="216"/>
      <point x="721" y="332" type="curve" smooth="yes"/>
      <point x="721" y="411"/>
      <point x="645" y="445"/>
      <point x="578" y="470" type="curve" smooth="yes"/>
      <point x="345" y="560" type="line" smooth="no"/>
      <point x="204" y="611"/>
      <point x="91" y="693"/>
      <point x="91" y="886" type="curve" smooth="yes"/>
      <point x="91" y="1118"/>
      <point x="298" y="1215"/>
      <point x="534" y="1215" type="curve" smooth="yes"/>
      <point x="686" y="1215"/>
      <point x="868" y="1176"/>
      <point x="957" y="1109" type="curve" smooth="no"/>
      <point x="891" y="921" type="line" smooth="no"/>
      <point x="819" y="975"/>
      <point x="666" y="1016"/>
      <point x="545" y="1016" type="curve" smooth="yes"/>
      <point x="433" y="1016"/>
      <point x="350" y="982"/>
      <point x="350" y="886" type="curve" smooth="yes"/>
      <point x="350" y="811"/>
      <point x="415" y="791"/>
      <point x="471" y="769" type="curve" smooth="no"/>
      <point x="663" y="698" type="line" smooth="yes"/>
      <point x="823" y="638"/>
      <point x="992" y="558"/>
      <point x="992" y="345" type="curve" smooth="yes"/>
      <point x="992" y="90"/>
      <point x="793" y="-24"/>
      <point x="536" y="-24" type="curve" smooth="yes"/>
      <point x="369" y="-24"/>
      <point x="192" y="19"/>
      <point x="97" y="90" type="curve" smooth="no"/>
      <point x="163" y="281" type="line" smooth="no"/>
      <point x="235" y="225"/>
      <point x="400" y="177"/>
    </contour>
  </outline>
</glyph>
<glyph name="t" format="1">
  <advance width="919"/>
  <unicode hex="0074"/>
  <outline>
    <contour>
      <point x="889" y="72" type="line" smooth="no"/>
      <point x="805" y="19"/>
      <point x="692" y="-24"/>
      <point x="553" y="-24" type="curve" smooth="yes"/>
      <point x="281" y="-24"/>
      <point x="219" y="178"/>
      <point x="219" y="455" type="curve" smooth="yes"/>
      <point x="219" y="1054" type="line" smooth="no"/>
      <point x="16" y="1054" type="line" smooth="no"/>
      <point x="16" y="1185" type="line" smooth="no"/>
      <point x="226" y="1185" type="line" smooth="no"/>
      <point x="236" y="1597" type="line" smooth="no"/>
      <point x="510" y="1667" type="line" smooth="no"/>
      <point x="510" y="1185" type="line" smooth="no"/>
      <point x="845" y="1185" type="line" smooth="no"/>
      <point x="845" y="1054" type="line" smooth="no"/>
      <point x="510" y="1054" type="line" smooth="no"/>
      <point x="510" y="377" type="line" smooth="yes"/>
      <point x="510" y="264"/>
      <point x="526" y="177"/>
      <point x="628" y="177" type="curve" smooth="yes"/>
      <point x="697" y="177"/>
      <point x="758" y="219"/>
      <point x="812" y="251" type="curve" smooth="no"/>
    </contour>
  </outline>
</glyph>
<glyph name="u" format="1">
  <advance width="1311"/>
  <unicode hex="0075"/>
  <outline>
    <contour>
      <point x="609.078" y="183.831" type="curve" smooth="yes"/>
      <point x="726.768" y="183.831"/>
      <point x="800.23" y="232.384"/>
      <point x="866" y="297" type="curve" smooth="no"/>
      <point x="866" y="1185" type="line" smooth="no"/>
      <point x="1159" y="1185" type="line" smooth="no"/>
      <point x="1159" y="0" type="line" smooth="no"/>
      <point x="949" y="0" type="line" smooth="no"/>
      <point x="891" y="180" type="line" smooth="no"/>
      <point x="840" y="64"/>
      <point x="733" y="-24"/>
      <point x="567" y="-24" type="curve" smooth="yes"/>
      <point x="266" y="-24"/>
      <point x="134" y="143"/>
      <point x="134" y="454" type="curve" smooth="yes"/>
      <point x="134" y="1185" type="line" smooth="no"/>
      <point x="424" y="1185" type="line" smooth="no"/>
      <point x="424" y="438" type="line" smooth="yes"/>
      <point x="424" y="288.302"/>
      <point x="463.578" y="183.831"/>
    </contour>
  </outline>
</glyph>
<glyph name="z" format="1">
  <advance width="1061"/>
  <unicode hex="007a"/>
  <outline>
    <contour>
      <point x="120" y="986" type="line" smooth="no"/>
      <point x="120" y="1185" type="line" smooth="no"/>
      <point x="955" y="1185" type="line" smooth="no"/>
      <point x="955" y="977" type="line" smooth="no"/>
      <point x="407" y="199" type="line" smooth="no"/>
      <point x="962" y="199" type="line" smooth="no"/>
      <point x="962" y="0" type="line" smooth="no"/>
      <point x="101" y="0" type="line" smooth="no"/>
      <point x="101" y="210" type="line" smooth="no"/>
      <point x="664" y="986" type="line" smooth="no"/>
    </contour>
  </outline>
</glyph>
<glyph name="asciitilde" format="1">
  <advance width="1106"/>
  <unicode hex="007e"/>
  <outline>
    <contour>
      <point x="997" y="587" type="line" smooth="no"/>
      <point x="997" y="426"/>
      <point x="933" y="286"/>
      <point x="775" y="286" type="curve" smooth="yes"/>
      <point x="629" y="286"/>
      <point x="543" y="375"/>
      <point x="438" y="418" type="curve" smooth="yes"/>
      <point x="424" y="424"/>
      <point x="412" y="427"/>
      <point x="401" y="427" type="curve" smooth="yes"/>
      <point x="343" y="427"/>
      <point x="338" y="374"/>
      <point x="338" y="304" type="curve" smooth="no"/>
      <point x="146" y="304" type="line" smooth="no"/>
      <point x="146" y="489"/>
      <point x="204" y="617"/>
      <point x="371" y="617" type="curve" smooth="yes"/>
      <point x="530" y="617"/>
      <point x="594" y="479"/>
      <point x="740" y="479" type="curve" smooth="yes"/>
      <point x="795" y="479"/>
      <point x="798" y="528"/>
      <point x="798" y="587" type="curve" smooth="no"/>
    </contour>
  </outline>
</glyph>
<glyph name="cent" format="1">
  <advance width="1133"/>
  <unicode hex="00a2"/>
  <outline>
    <contour>
      <point x="630" y="997" type="line" smooth="no"/>
      <point x="452" y="966"/>
      <point x="399" y="802"/>
      <point x="399" y="594" type="curve" smooth="yes"/>
      <point x="399" y="383"/>
      <point x="461" y="232"/>
      <point x="630" y="198" type="curve" smooth="no"/>
    </contour>
    <contour>
      <point x="1056" y="81" type="line" smooth="no"/>
      <point x="984" y="42"/>
      <point x="881" y="-11"/>
      <point x="771" y="-11" type="curve" smooth="no"/>
      <point x="771" y="-154" type="line" smooth="no"/>
      <point x="630" y="-154" type="line" smooth="no"/>
      <point x="630" y="-17" type="line" smooth="no"/>
      <point x="293" y="0"/>
      <point x="105" y="237"/>
      <point x="105" y="594" type="curve" smooth="yes"/>
      <point x="105" y="945"/>
      <point x="301" y="1190"/>
      <point x="630" y="1208" type="curve" smooth="no"/>
      <point x="630" y="1382" type="line" smooth="no"/>
      <point x="771" y="1382" type="line" smooth="no"/>
      <point x="771" y="1202" type="line" smooth="no"/>
      <point x="884" y="1189"/>
      <point x="979" y="1150"/>
      <point x="1061" y="1102" type="curve" smooth="no"/>
      <point x="998" y="910" type="line" smooth="no"/>
      <point x="947" y="951"/>
      <point x="856" y="986"/>
      <point x="771" y="996" type="curve" smooth="no"/>
      <point x="771" y="192" type="line" smooth="no"/>
      <point x="860" y="195"/>
      <point x="937" y="241"/>
      <point x="997" y="273" type="curve" smooth="no"/>
    </contour>
  </outline>
</glyph>
<glyph name="sterling" format="1">
  <advance width="1195"/>
  <unicode hex="00a3"/>
  <outline>
    <contour>
      <point x="584" y="595" type="line" smooth="no"/>
      <point x="584" y="422"/>
      <point x="514" y="299"/>
      <point x="447" y="199" type="curve" smooth="no"/>
      <point x="1058" y="199" type="line" smooth="no"/>
      <point x="1058" y="0" type="line" smooth="no"/>
      <point x="201" y="0" type="line" smooth="no"/>
      <point x="201" y="193" type="line" smooth="no"/>
      <point x="276" y="280"/>
      <point x="345" y="436"/>
      <point x="345" y="595" type="curve" smooth="no"/>
      <point x="188" y="595" type="line" smooth="no"/>
      <point x="188" y="724" type="line" smooth="no"/>
      <point x="320" y="724" type="line" smooth="no"/>
      <point x="260" y="779"/>
      <point x="205" y="872"/>
      <point x="205" y="988" type="curve" smooth="yes"/>
      <point x="205" y="1246"/>
      <point x="415" y="1346"/>
      <point x="678" y="1346" type="curve" smooth="yes"/>
      <point x="853" y="1346"/>
      <point x="984" y="1294"/>
      <point x="1088" y="1227" type="curve" smooth="no"/>
      <point x="991" y="1035" type="line" smooth="no"/>
      <point x="914" y="1082"/>
      <point x="821" y="1128"/>
      <point x="697" y="1128" type="curve" smooth="yes"/>
      <point x="563" y="1128"/>
      <point x="477" y="1082"/>
      <point x="477" y="953" type="curve" smooth="yes"/>
      <point x="477" y="848"/>
      <point x="524" y="789"/>
      <point x="573" y="728" type="curve" smooth="no"/>
      <point x="994" y="728" type="line" smooth="no"/>
      <point x="994" y="595" type="line" smooth="no"/>
    </contour>
  </outline>
</glyph>
<glyph name="currency" format="1">
  <advance width="1409"/>
  <unicode hex="00a4"/>
  <outline>
    <contour>
      <point x="696" y="557" type="curve" smooth="yes"/>
      <point x="602" y="557"/>
      <point x="530" y="582"/>
      <point x="469" y="621" type="curve" smooth="no"/>
      <point x="271" y="424" type="line" smooth="no"/>
      <point x="142" y="554" type="line" smooth="no"/>
      <point x="337" y="749" type="line" smooth="no"/>
      <point x="290" y="822"/>
      <point x="266" y="901"/>
      <point x="266" y="986" type="curve" smooth="yes"/>
      <point x="266" y="1075"/>
      <point x="292" y="1158"/>
      <point x="344" y="1236" type="curve" smooth="no"/>
      <point x="142" y="1438" type="line" smooth="no"/>
      <point x="271" y="1567" type="line" smooth="no"/>
      <point x="474" y="1365" type="line" smooth="no"/>
      <point x="551" y="1418"/>
      <point x="635" y="1445"/>
      <point x="726" y="1445" type="curve" smooth="yes"/>
      <point x="811" y="1445"/>
      <point x="890" y="1422"/>
      <point x="962" y="1375" type="curve" smooth="no"/>
      <point x="1156" y="1567" type="line" smooth="no"/>
      <point x="1285" y="1438" type="line" smooth="no"/>
      <point x="1090" y="1243" type="line" smooth="no"/>
      <point x="1133" y="1176"/>
      <point x="1154" y="1100"/>
      <point x="1154" y="1016" type="curve" smooth="yes"/>
      <point x="1154" y="926"/>
      <point x="1127" y="842"/>
      <point x="1074" y="765" type="curve" smooth="no"/>
      <point x="1285" y="554" type="line" smooth="no"/>
      <point x="1156" y="424" type="line" smooth="no"/>
      <point x="944" y="636" type="line" smooth="no"/>
      <point x="866" y="583"/>
      <point x="783" y="557"/>
    </contour>
    <contour>
      <point x="988" y="1008" type="curve" smooth="yes"/>
      <point x="988" y="1159"/>
      <point x="870" y="1278"/>
      <point x="719" y="1278" type="curve" smooth="yes"/>
      <point x="561" y="1278"/>
      <point x="432" y="1150"/>
      <point x="432" y="992" type="curve" smooth="yes"/>
      <point x="432" y="838"/>
      <point x="552" y="722"/>
      <point x="706" y="722" type="curve" smooth="yes"/>
      <point x="860" y="722"/>
      <point x="988" y="853"/>
    </contour>
  </outline>
</glyph>
<glyph name="ordfeminine" format="1">
  <advance width="1246"/>
  <unicode hex="00aa"/>
  <outline>
    <contour>
      <point x="263" y="1552" type="line" smooth="no"/>
      <point x="349.93" y="1552"/>
      <point x="467.619" y="1638"/>
      <point x="599" y="1638" type="curve" smooth="yes"/>
      <point x="874" y="1638"/>
      <point x="960" y="1511"/>
      <point x="960" y="1235" type="curve" smooth="yes"/>
      <point x="960" y="686" type="line" smooth="no"/>
      <point x="844" y="686" type="line" smooth="no"/>
      <point x="817" y="828" type="line" smooth="no"/>
      <point x="813" y="828"/>
      <point x="767" y="762"/>
      <point x="752" y="748" type="curve" smooth="yes"/>
      <point x="701" y="703"/>
      <point x="625" y="668"/>
      <point x="523" y="668" type="curve" smooth="yes"/>
      <point x="329" y="668"/>
      <point x="206" y="767"/>
      <point x="206" y="960" type="curve" smooth="yes"/>
      <point x="206" y="1164"/>
      <point x="359" y="1258"/>
      <point x="565" y="1258" type="curve" smooth="yes"/>
      <point x="625" y="1258"/>
      <point x="776" y="1253"/>
      <point x="799" y="1218" type="curve" smooth="no"/>
      <point x="799" y="1276" type="line" smooth="yes"/>
      <point x="799" y="1434"/>
      <point x="766" y="1513"/>
      <point x="607" y="1513" type="curve" smooth="yes"/>
      <point x="505" y="1513"/>
      <point x="408" y="1486"/>
      <point x="340" y="1454" type="curve" smooth="yes"/>
      <point x="324" y="1447"/>
      <point x="317" y="1443"/>
      <point x="316" y="1443" type="curve" smooth="yes"/>
    </contour>
    <contour>
      <point x="367" y="971" type="curve" smooth="yes"/>
      <point x="367" y="831"/>
      <point x="421" y="781"/>
      <point x="561" y="781" type="curve" smooth="yes"/>
      <point x="658" y="781"/>
      <point x="738" y="831"/>
      <point x="782" y="882" type="curve" smooth="yes"/>
      <point x="793" y="895"/>
      <point x="799" y="902"/>
      <point x="799" y="903" type="curve" smooth="yes"/>
      <point x="799" y="1141" type="line" smooth="no"/>
      <point x="741" y="1150"/>
      <point x="684" y="1158"/>
      <point x="623" y="1158" type="curve" smooth="yes"/>
      <point x="452" y="1158"/>
      <point x="367" y="1096"/>
    </contour>
    <contour>
      <point x="270" y="575" type="line" smooth="no"/>
      <point x="954" y="575" type="line" smooth="no"/>
      <point x="954" y="446" type="line" smooth="no"/>
      <point x="270" y="446" type="line" smooth="no"/>
    </contour>
  </outline>
</glyph>
<glyph name="cedilla" format="1">
  <advance width="637"/>
  <unicode hex="00b8"/>
  <outline>
    <contour>
      <point x="309" y="-642" type="curve" smooth="yes"/>
      <point x="223" y="-642"/>
      <point x="160" y="-615"/>
      <point x="102" y="-593" type="curve" smooth="no"/>
      <point x="102" y="-462" type="line" smooth="no"/>
      <point x="122" y="-468" type="line" smooth="no"/>
      <point x="166" y="-483"/>
      <point x="226" y="-505"/>
      <point x="283" y="-505" type="curve" smooth="yes"/>
      <point x="372" y="-505"/>
      <point x="416" y="-476"/>
      <point x="416" y="-386" type="curve" smooth="yes"/>
      <point x="416" y="-261"/>
      <point x="297" y="-241"/>
      <point x="154" y="-241" type="curve" smooth="no"/>
      <point x="166" y="45" type="line" smooth="no"/>
      <point x="288" y="45" type="line" smooth="no"/>
      <point x="281" y="-136" type="line" smooth="no"/>
      <point x="448" y="-136"/>
      <point x="588" y="-215"/>
      <point x="588" y="-385" type="curve" smooth="yes"/>
      <point x="588" y="-553"/>
      <point x="482" y="-642"/>
    </contour>
  </outline>
</glyph>
<glyph name="uni00B9" format="1">
  <advance width="740"/>
  <unicode hex="00b9"/>
  <outline>
    <contour>
      <point x="327" y="1304" type="line" smooth="no"/>
      <point x="156" y="1232" type="line" smooth="no"/>
      <point x="119" y="1345" type="line" smooth="no"/>
      <point x="356" y="1440" type="line" smooth="no"/>
      <point x="496" y="1414" type="line" smooth="no"/>
      <point x="496" y="478" type="line" smooth="no"/>
      <point x="327" y="478" type="line" smooth="no"/>
    </contour>
  </outline>
</glyph>
<glyph name="ordmasculine" format="1">
  <advance width="1265"/>
  <unicode hex="00ba"/>
  <outline>
    <contour>
      <point x="1063" y="1152" type="curve" smooth="yes"/>
      <point x="1063" y="869"/>
      <point x="922" y="670"/>
      <point x="638" y="670" type="curve" smooth="yes"/>
      <point x="354" y="670"/>
      <point x="214" y="869"/>
      <point x="214" y="1152" type="curve" smooth="yes"/>
      <point x="214" y="1434"/>
      <point x="355" y="1638"/>
      <point x="638" y="1638" type="curve" smooth="yes"/>
      <point x="921" y="1638"/>
      <point x="1063" y="1434"/>
    </contour>
    <contour>
      <point x="371" y="1154" type="curve" smooth="yes"/>
      <point x="371" y="955"/>
      <point x="440" y="797"/>
      <point x="638" y="797" type="curve" smooth="yes"/>
      <point x="837" y="797"/>
      <point x="905" y="954"/>
      <point x="905" y="1154" type="curve" smooth="yes"/>
      <point x="905" y="1352"/>
      <point x="836" y="1512"/>
      <point x="638" y="1512" type="curve" smooth="yes"/>
      <point x="439" y="1512"/>
      <point x="371" y="1353"/>
    </contour>
    <contour>
      <point x="300" y="575" type="line" smooth="no"/>
      <point x="984" y="575" type="line" smooth="no"/>
      <point x="984" y="446" type="line" smooth="no"/>
      <point x="300" y="446" type="line" smooth="no"/>
    </contour>
  </outline>
</glyph>
<glyph name="onequarter" format="1">
  <advance width="1947"/>
  <unicode hex="00bc"/>
  <outline>
    <contour>
      <point x="1478" y="244" type="line" smooth="no"/>
      <point x="1478" y="648" type="line" smooth="no"/>
      <point x="1210" y="244" type="line" smooth="no"/>
    </contour>
    <contour>
      <point x="1683" y="965" type="line" smooth="no"/>
      <point x="1683" y="245" type="line" smooth="no"/>
      <point x="1829" y="245" type="line" smooth="no"/>
      <point x="1829" y="73" type="line" smooth="no"/>
      <point x="1683" y="73" type="line" smooth="no"/>
      <point x="1683" y="-168" type="line" smooth="no"/>
      <point x="1474" y="-177" type="line" smooth="no"/>
      <point x="1474" y="73" type="line" smooth="no"/>
      <point x="987" y="73" type="line" smooth="no"/>
      <point x="957" y="217" type="line" smooth="no"/>
      <point x="1504" y="1011" type="line" smooth="no"/>
    </contour>
    <contour>
      <point x="1222" y="1498" type="line" smooth="no"/>
      <point x="1410" y="1410" type="line" smooth="no"/>
      <point x="553" y="-115" type="line" smooth="no"/>
      <point x="369" y="-30" type="line" smooth="no"/>
    </contour>
    <contour>
      <point x="298" y="1261" type="line" smooth="no"/>
      <point x="152" y="1198" type="line" smooth="no"/>
      <point x="91" y="1353" type="line" smooth="no"/>
      <point x="362" y="1460" type="line" smooth="no"/>
      <point x="525" y="1425" type="line" smooth="no"/>
      <point x="525" y="481" type="line" smooth="no"/>
      <point x="298" y="481" type="line" smooth="no"/>
    </contour>
  </outline>
</glyph>
<glyph name="questiondown" format="1">
  <advance width="1209"/>
  <unicode hex="00bf"/>
  <outline>
    <contour>
      <point x="796" y="1571" type="curve" smooth="no"/>
      <point x="865" y="1541"/>
      <point x="913" y="1462"/>
      <point x="913" y="1363" type="curve" smooth="no"/>
      <point x="885" y="1294"/>
      <point x="813" y="1243"/>
      <point x="716" y="1243" type="curve" smooth="no"/>
      <point x="648" y="1274"/>
      <point x="599" y="1352"/>
      <point x="599" y="1451" type="curve" smooth="no"/>
      <point x="627" y="1520"/>
      <point x="700" y="1571"/>
    </contour>
    <contour>
      <point x="901" y="705" type="line" smooth="no"/>
      <point x="724" y="644"/>
      <point x="407" y="575"/>
      <point x="407" y="350" type="curve" smooth="yes"/>
      <point x="407" y="197"/>
      <point x="526" y="168"/>
      <point x="679" y="168" type="curve" smooth="yes"/>
      <point x="742" y="168"/>
      <point x="1026" y="211"/>
      <point x="1026" y="247" type="curve" smooth="no"/>
      <point x="1100" y="33" type="line" smooth="no"/>
      <point x="985" y="-25"/>
      <point x="835" y="-65"/>
      <point x="660" y="-65" type="curve" smooth="yes"/>
      <point x="367" y="-65"/>
      <point x="122" y="37"/>
      <point x="122" y="329" type="curve" smooth="yes"/>
      <point x="122" y="627"/>
      <point x="386" y="767"/>
      <point x="631" y="841" type="curve" smooth="no"/>
      <point x="631" y="1150" type="line" smooth="no"/>
      <point x="901" y="1150" type="line" smooth="no"/>
    </contour>
  </outline>
</glyph>
<glyph name="Oslash" format="1">
  <advance width="1612"/>
  <unicode hex="00d8"/>
  <outline>
    <contour>
      <point x="805" y="-34" type="curve" smooth="yes"/>
      <point x="719" y="-34"/>
      <point x="642" y="-25"/>
      <point x="575" y="-4" type="curve" smooth="no"/>
      <point x="506" y="-167" type="line" smooth="no"/>
      <point x="382" y="-121" type="line" smooth="no"/>
      <point x="452" y="44" type="line" smooth="no"/>
      <point x="212" y="168"/>
      <point x="105" y="433"/>
      <point x="105" y="801" type="curve" smooth="yes"/>
      <point x="105" y="1301"/>
      <point x="314" y="1636"/>
      <point x="800" y="1636" type="curve" smooth="yes"/>
      <point x="913" y="1636"/>
      <point x="1014" y="1618"/>
      <point x="1104" y="1582" type="curve" smooth="no"/>
      <point x="1179" y="1759" type="line" smooth="no"/>
      <point x="1301" y="1714" type="line" smooth="no"/>
      <point x="1219" y="1521" type="line" smooth="no"/>
      <point x="1415" y="1386"/>
      <point x="1507" y="1132"/>
      <point x="1507" y="801" type="curve" smooth="yes"/>
      <point x="1507" y="302"/>
      <point x="1304" y="-34"/>
    </contour>
    <contour>
      <point x="806" y="191" type="curve" smooth="yes"/>
      <point x="1129" y="191"/>
      <point x="1199" y="477"/>
      <point x="1199" y="801" type="curve" smooth="yes"/>
      <point x="1199" y="991"/>
      <point x="1177" y="1135"/>
      <point x="1108" y="1252" type="curve" smooth="no"/>
      <point x="666" y="215" type="line" smooth="no"/>
      <point x="702" y="205"/>
      <point x="752" y="191"/>
    </contour>
    <contour>
      <point x="809" y="1411" type="curve" smooth="yes"/>
      <point x="483" y="1411"/>
      <point x="413" y="1129"/>
      <point x="413" y="801" type="curve" smooth="yes"/>
      <point x="413" y="689"/>
      <point x="428" y="589"/>
      <point x="477" y="526" type="curve" smooth="no"/>
      <point x="481" y="426"/>
      <point x="499" y="338"/>
      <point x="554" y="287" type="curve" smooth="no"/>
      <point x="1010" y="1356" type="line" smooth="no"/>
      <point x="956" y="1391"/>
      <point x="893" y="1411"/>
    </contour>
  </outline>
</glyph>
<glyph name="Thorn" format="1">
  <advance width="1410"/>
  <unicode hex="00de"/>
  <outline>
    <contour>
      <point x="719.385" y="519.885" type="curve" smooth="yes"/>
      <point x="904.519" y="519.885"/>
      <point x="987" y="626.008"/>
      <point x="987" y="859" type="curve" smooth="yes"/>
      <point x="987" y="1112.79"/>
      <point x="877.527" y="1204.67"/>
      <point x="696.165" y="1204.67" type="curve" smooth="yes"/>
      <point x="624.548" y="1204.67"/>
      <point x="541.722" y="1190.35"/>
      <point x="450" y="1166" type="curve" smooth="no"/>
      <point x="450" y="566" type="line" smooth="no"/>
      <point x="539.535" y="540.747"/>
      <point x="634.632" y="519.885"/>
    </contour>
    <contour>
      <point x="1274.6" y="872.785" type="curve" smooth="yes"/>
      <point x="1274.6" y="490.44"/>
      <point x="1067.65" y="304"/>
      <point x="684" y="304" type="curve" smooth="yes"/>
      <point x="587" y="304"/>
      <point x="509" y="330"/>
      <point x="450" y="382" type="curve" smooth="no"/>
      <point x="450" y="-136" type="line" smooth="no"/>
      <point x="156" y="-136" type="line" smooth="no"/>
      <point x="156" y="1607" type="line" smooth="no"/>
      <point x="439" y="1607" type="line" smooth="no"/>
      <point x="439" y="1320" type="line" smooth="no"/>
      <point x="524.181" y="1372.42"/>
      <point x="641.781" y="1412.57"/>
      <point x="777.037" y="1412.57" type="curve" smooth="yes"/>
      <point x="1110.48" y="1412.57"/>
      <point x="1274.6" y="1201.3"/>
    </contour>
  </outline>
</glyph>
<glyph name="germandbls" format="1">
  <advance width="1535"/>
  <unicode hex="00df"/>
  <outline>
    <contour>
      <point x="1158" y="398" type="curve" smooth="yes"/>
      <point x="1158" y="676"/>
      <point x="902" y="736"/>
      <point x="613" y="736" type="curve" smooth="no"/>
      <point x="613" y="755"/>
      <point x="612" y="766"/>
      <point x="612" y="789" type="curve" smooth="yes"/>
      <point x="612" y="922" type="line" smooth="no"/>
      <point x="854" y="922"/>
      <point x="1017" y="941"/>
      <point x="1017" y="1181" type="curve" smooth="yes"/>
      <point x="1017" y="1353"/>
      <point x="905" y="1401"/>
      <point x="729" y="1401" type="curve" smooth="yes"/>
      <point x="494" y="1401"/>
      <point x="463" y="1237"/>
      <point x="463" y="999" type="curve" smooth="yes"/>
      <point x="463" y="0" type="line" smooth="no"/>
      <point x="156" y="0" type="line" smooth="no"/>
      <point x="156" y="1002" type="line" smooth="yes"/>
      <point x="156" y="1400"/>
      <point x="329" y="1607"/>
      <point x="729" y="1607" type="curve" smooth="yes"/>
      <point x="1044" y="1607"/>
      <point x="1285" y="1494"/>
      <point x="1285" y="1186" type="curve" smooth="yes"/>
      <point x="1285" y="981"/>
      <point x="1165" y="864"/>
      <point x="977" y="843" type="curve" smooth="no"/>
      <point x="1257" y="813"/>
      <point x="1457" y="686"/>
      <point x="1457" y="379" type="curve" smooth="yes"/>
      <point x="1457" y="-48"/>
      <point x="1031" y="-173"/>
      <point x="607" y="-173" type="curve" smooth="no"/>
      <point x="607" y="63" type="line" smooth="no"/>
      <point x="873" y="80"/>
      <point x="1158" y="116"/>
    </contour>
  </outline>
</glyph>
<glyph name="igrave" format="1">
  <advance width="667"/>
  <unicode hex="00ec"/>
  <outline>
    <contour>
      <point x="-40" y="1912" type="line" smooth="no"/>
      <point x="250" y="2038" type="line" smooth="no"/>
      <point x="437" y="1411" type="line" smooth="no"/>
      <point x="313" y="1355" type="line" smooth="no"/>
    </contour>
    <contour>
      <point x="203" y="0" type="line" smooth="no"/>
      <point x="203" y="1185" type="line" smooth="no"/>
      <point x="493" y="1185" type="line" smooth="no"/>
      <point x="493" y="0" type="line" smooth="no"/>
    </contour>
  </outline>
</glyph>
<glyph name="eth" format="1">
  <advance width="1272"/>
  <unicode hex="00f0"/>
  <outline>
    <contour>
      <point x="919" y="1451" type="line" smooth="no"/>
      <point x="1071" y="1250"/>
      <point x="1176" y="1009"/>
      <point x="1176" y="654" type="curve" smooth="yes"/>
      <point x="1176" y="240"/>
      <point x="1020" y="-18"/>
      <point x="611" y="-18" type="curve" smooth="yes"/>
      <point x="252" y="-18"/>
      <point x="85" y="246"/>
      <point x="85" y="603" type="curve" smooth="yes"/>
      <point x="85" y="928"/>
      <point x="227" y="1209"/>
      <point x="547" y="1209" type="curve" smooth="yes"/>
      <point x="698" y="1209"/>
      <point x="818" y="1143"/>
      <point x="884" y="1057" type="curve" smooth="no"/>
      <point x="853" y="1174"/>
      <point x="770" y="1290"/>
      <point x="692" y="1379" type="curve" smooth="no"/>
      <point x="453" y="1305" type="line" smooth="no"/>
      <point x="410" y="1433" type="line" smooth="no"/>
      <point x="586" y="1488" type="line" smooth="no"/>
      <point x="527" y="1543"/>
      <point x="470" y="1588"/>
      <point x="402" y="1630" type="curve" smooth="no"/>
      <point x="528" y="1780" type="line" smooth="no"/>
      <point x="638" y="1715"/>
      <point x="727" y="1648"/>
      <point x="817" y="1560" type="curve" smooth="no"/>
      <point x="1113" y="1653" type="line" smooth="no"/>
      <point x="1156" y="1525" type="line" smooth="no"/>
    </contour>
    <contour>
      <point x="610" y="1007" type="curve" smooth="yes"/>
      <point x="419" y="1007"/>
      <point x="375" y="814"/>
      <point x="375" y="597" type="curve" smooth="yes"/>
      <point x="375" y="392"/>
      <point x="419" y="185"/>
      <point x="619" y="185" type="curve" smooth="yes"/>
      <point x="810" y="185"/>
      <point x="871" y="356"/>
      <point x="882" y="537" type="curve" smooth="no"/>
      <point x="885" y="622"/>
      <point x="886" y="708"/>
      <point x="886" y="796" type="curve" smooth="no"/>
      <point x="855" y="921"/>
      <point x="761" y="1007"/>
    </contour>
  </outline>
</glyph>
<glyph name="thorn" format="1">
  <advance width="1331"/>
  <unicode hex="00fe"/>
  <outline>
    <contour>
      <point x="737" y="184" type="curve" smooth="yes"/>
      <point x="924" y="184"/>
      <point x="954" y="393"/>
      <point x="954" y="581" type="curve" smooth="yes"/>
      <point x="954" y="785"/>
      <point x="915" y="1001"/>
      <point x="715" y="1001" type="curve" smooth="yes"/>
      <point x="588" y="1001"/>
      <point x="514" y="946"/>
      <point x="446" y="891" type="curve" smooth="no"/>
      <point x="446" y="291" type="line" smooth="no"/>
      <point x="513" y="230"/>
      <point x="616" y="184"/>
    </contour>
    <contour>
      <point x="1246" y="583" type="curve" smooth="yes"/>
      <point x="1246" y="246"/>
      <point x="1091" y="-18"/>
      <point x="757" y="-18" type="curve" smooth="yes"/>
      <point x="616" y="-18"/>
      <point x="512" y="26"/>
      <point x="445" y="115" type="curve" smooth="no"/>
      <point x="445" y="-437" type="line" smooth="no"/>
      <point x="154" y="-446" type="line" smooth="no"/>
      <point x="154" y="1601" type="line" smooth="no"/>
      <point x="441" y="1601" type="line" smooth="no"/>
      <point x="441" y="1045" type="line" smooth="no"/>
      <point x="502" y="1136"/>
      <point x="619" y="1204"/>
      <point x="765" y="1204" type="curve" smooth="yes"/>
      <point x="1108" y="1204"/>
      <point x="1246" y="927"/>
    </contour>
  </outline>
</glyph>
<glyph name="OE" format="1">
  <advance width="2325"/>
  <unicode hex="0152"/>
  <outline>
    <contour>
      <point x="1200" y="0" type="line" smooth="no"/>
      <point x="1200" y="1607" type="line" smooth="no"/>
      <point x="2249" y="1607" type="line" smooth="no"/>
      <point x="2249" y="1405" type="line" smooth="no"/>
      <point x="1505" y="1405" type="line" smooth="no"/>
      <point x="1505" y="931" type="line" smooth="no"/>
      <point x="2154" y="931" type="line" smooth="no"/>
      <point x="2154" y="745" type="line" smooth="no"/>
      <point x="1505" y="745" type="line" smooth="no"/>
      <point x="1505" y="199" type="line" smooth="no"/>
      <point x="2260" y="199" type="line" smooth="no"/>
      <point x="2260" y="0" type="line" smooth="no"/>
    </contour>
    <contour>
      <point x="805" y="1635" type="curve" smooth="yes"/>
      <point x="1297" y="1635"/>
      <point x="1507" y="1305"/>
      <point x="1507" y="810" type="curve" smooth="yes"/>
      <point x="1507" y="307"/>
      <point x="1310" y="-35"/>
      <point x="805" y="-35" type="curve" smooth="yes"/>
      <point x="298" y="-35"/>
      <point x="104" y="312"/>
      <point x="104" y="819" type="curve" smooth="yes"/>
      <point x="104" y="1309"/>
      <point x="318" y="1635"/>
    </contour>
    <contour>
      <point x="808" y="1411" type="curve" smooth="yes"/>
      <point x="486" y="1411"/>
      <point x="413" y="1126"/>
      <point x="413" y="798" type="curve" smooth="yes"/>
      <point x="413" y="476"/>
      <point x="488" y="192"/>
      <point x="805" y="192" type="curve" smooth="yes"/>
      <point x="1123" y="192"/>
      <point x="1199" y="474"/>
      <point x="1199" y="798" type="curve" smooth="yes"/>
      <point x="1199" y="1123"/>
      <point x="1126" y="1411"/>
    </contour>
  </outline>
</glyph>
<glyph name="oe" format="1">
  <advance width="2045"/>
  <unicode hex="0153"/>
  <outline>
    <contour>
      <point x="1719" y="690" type="line" smooth="no"/>
      <point x="1719" y="905"/>
      <point x="1642" y="1014"/>
      <point x="1487" y="1016" type="curve" smooth="no"/>
      <point x="1308" y="1013"/>
      <point x="1232" y="866"/>
      <point x="1225" y="690" type="curve" smooth="no"/>
    </contour>
    <contour>
      <point x="376" y="588" type="curve" smooth="yes"/>
      <point x="376" y="368"/>
      <point x="430" y="169"/>
      <point x="650" y="169" type="curve" smooth="yes"/>
      <point x="871" y="169"/>
      <point x="926" y="364"/>
      <point x="926" y="588" type="curve" smooth="yes"/>
      <point x="926" y="812"/>
      <point x="871" y="1010"/>
      <point x="650" y="1010" type="curve" smooth="yes"/>
      <point x="430" y="1010"/>
      <point x="376" y="811"/>
    </contour>
    <contour>
      <point x="1535" y="177" type="curve" smooth="yes"/>
      <point x="1672" y="177"/>
      <point x="1756" y="217"/>
      <point x="1839" y="281" type="curve" smooth="no"/>
      <point x="1905" y="84" type="line" smooth="no"/>
      <point x="1801" y="24"/>
      <point x="1670" y="-24"/>
      <point x="1512" y="-24" type="curve" smooth="yes"/>
      <point x="1292" y="-24"/>
      <point x="1158" y="51"/>
      <point x="1076" y="194" type="curve" smooth="no"/>
      <point x="1014" y="50"/>
      <point x="853" y="-32"/>
      <point x="650" y="-32" type="curve" smooth="yes"/>
      <point x="274" y="-32"/>
      <point x="86" y="210"/>
      <point x="86" y="587" type="curve" smooth="yes"/>
      <point x="86" y="963"/>
      <point x="271" y="1210"/>
      <point x="650" y="1210" type="curve" smooth="yes"/>
      <point x="868" y="1210"/>
      <point x="1004" y="1124"/>
      <point x="1072" y="970" type="curve" smooth="no"/>
      <point x="1152" y="1113"/>
      <point x="1260" y="1215"/>
      <point x="1480" y="1215" type="curve" smooth="yes"/>
      <point x="1800" y="1215"/>
      <point x="1962" y="1006"/>
      <point x="1962" y="685" type="curve" smooth="yes"/>
      <point x="1962" y="634"/>
      <point x="1961" y="585"/>
      <point x="1959" y="537" type="curve" smooth="no"/>
      <point x="1226" y="537" type="line" smooth="no"/>
      <point x="1228" y="321"/>
      <point x="1320" y="177"/>
    </contour>
  </outline>
</glyph>
<glyph name="florin" format="1">
  <advance width="835"/>
  <unicode hex="0192"/>
  <outline>
    <contour>
      <point x="878" y="1455" type="line" smooth="no"/>
      <point x="833" y="1473"/>
      <point x="776" y="1494"/>
      <point x="713" y="1494" type="curve" smooth="yes"/>
      <point x="555" y="1494"/>
      <point x="560" y="1302"/>
      <point x="554" y="1142" type="curve" smooth="no"/>
      <point x="849" y="1142" type="line" smooth="no"/>
      <point x="845" y="1010" type="line" smooth="no"/>
      <point x="549" y="1010" type="line" smooth="no"/>
      <point x="523" y="365" type="line" smooth="no"/>
      <point x="512" y="161"/>
      <point x="476" y="9"/>
      <point x="381" y="-98" type="curve" smooth="no"/>
      <point x="264" y="-98"/>
      <point x="169" y="-66"/>
      <point x="61" y="-66" type="curve" smooth="no"/>
      <point x="91" y="54" type="line" smooth="no"/>
      <point x="91" y="78"/>
      <point x="145" y="87"/>
      <point x="160" y="99" type="curve" smooth="no"/>
      <point x="203" y="153"/>
      <point x="221" y="220"/>
      <point x="226" y="318" type="curve" smooth="yes"/>
      <point x="256" y="1010" type="line" smooth="no"/>
      <point x="46" y="1010" type="line" smooth="no"/>
      <point x="50" y="1142" type="line" smooth="no"/>
      <point x="260" y="1142" type="line" smooth="no"/>
      <point x="273" y="1457"/>
      <point x="340" y="1711"/>
      <point x="660" y="1711" type="curve" smooth="yes"/>
      <point x="758" y="1711"/>
      <point x="828" y="1678"/>
      <point x="904" y="1661" type="curve" smooth="no"/>
    </contour>
  </outline>
</glyph>
<glyph name="tilde" format="1">
  <advance width="1438"/>
  <unicode hex="02dc"/>
  <outline>
    <contour>
      <point x="1155" y="529" type="line" smooth="no"/>
      <point x="1155" y="362"/>
      <point x="1096" y="228"/>
      <point x="942" y="228" type="curve" smooth="yes"/>
      <point x="818" y="228"/>
      <point x="716" y="298"/>
      <point x="630" y="342" type="curve" smooth="yes"/>
      <point x="601" y="357"/>
      <point x="577" y="364"/>
      <point x="558" y="364" type="curve" smooth="yes"/>
      <point x="506" y="364"/>
      <point x="496" y="313"/>
      <point x="496" y="246" type="curve" smooth="no"/>
      <point x="305" y="246" type="line" smooth="no"/>
      <point x="305" y="455"/>
      <point x="379" y="559"/>
      <point x="528" y="559" type="curve" smooth="yes"/>
      <point x="619" y="559"/>
      <point x="680" y="527"/>
      <point x="743" y="494" type="curve" smooth="no"/>
      <point x="791" y="470" type="line" smooth="yes"/>
      <point x="826" y="452"/>
      <point x="867" y="426"/>
      <point x="913" y="426" type="curve" smooth="yes"/>
      <point x="955" y="426"/>
      <point x="957" y="472"/>
      <point x="957" y="529" type="curve" smooth="no"/>
    </contour>
  </outline>
</glyph>
<glyph name="uni0E82" format="1">
  <advance width="1244"/>
  <unicode hex="0e82"/>
  <outline>
    <contour>
      <point x="642" y="1104" type="curve" smooth="yes"/>
      <point x="939" y="1104"/>
      <point x="1180" y="1046"/>
      <point x="1180" y="782" type="curve" smooth="yes"/>
      <point x="1180" y="538"/>
      <point x="948" y="464"/>
      <point x="762" y="406" type="curve" smooth="yes"/>
      <point x="632" y="365" type="line" smooth="yes"/>
      <point x="561" y="343"/>
      <point x="402" y="324"/>
      <point x="402" y="251" type="curve" smooth="yes"/>
      <point x="402" y="218"/>
      <point x="421" y="211"/>
      <point x="455" y="211" type="curve" smooth="yes"/>
      <point x="613" y="211"/>
      <point x="733" y="331"/>
      <point x="911" y="331" type="curve" smooth="yes"/>
      <point x="1084" y="331"/>
      <point x="1177" y="210"/>
      <point x="1260" y="83" type="curve" smooth="no"/>
      <point x="1107" y="-52" type="line" smooth="no"/>
      <point x="1053" y="28"/>
      <point x="1014" y="120"/>
      <point x="894" y="120" type="curve" smooth="yes"/>
      <point x="703" y="120"/>
      <point x="601" y="0"/>
      <point x="408" y="0" type="curve" smooth="yes"/>
      <point x="225" y="0"/>
      <point x="134" y="76"/>
      <point x="134" y="227" type="curve" smooth="yes"/>
      <point x="134" y="427"/>
      <point x="352" y="480"/>
      <point x="513" y="534" type="curve" smooth="yes"/>
      <point x="606" y="565" type="line" smooth="no"/>
      <point x="744" y="609"/>
      <point x="916" y="630"/>
      <point x="916" y="811" type="curve" smooth="yes"/>
      <point x="916" y="927"/>
      <point x="782" y="950"/>
      <point x="649" y="950" type="curve" smooth="yes"/>
      <point x="553" y="950"/>
      <point x="465" y="950"/>
      <point x="402" y="926" type="curve" smooth="no"/>
      <point x="412" y="928"/>
      <point x="422" y="929"/>
      <point x="433" y="929" type="curve" smooth="yes"/>
      <point x="525" y="929"/>
      <point x="597" y="845"/>
      <point x="597" y="752" type="curve" smooth="yes"/>
      <point x="597" y="626"/>
      <point x="499" y="550"/>
      <point x="372" y="550" type="curve" smooth="yes"/>
      <point x="209" y="550"/>
      <point x="127" y="629"/>
      <point x="127" y="788" type="curve" smooth="yes"/>
      <point x="127" y="1034"/>
      <point x="387" y="1104"/>
    </contour>
    <contour>
      <point x="371.638" y="680.265" type="curve" smooth="yes"/>
      <point x="404.634" y="680.265"/>
      <point x="428.301" y="723.514"/>
      <point x="430" y="766" type="curve" smooth="no"/>
      <point x="430" y="811"/>
      <point x="405" y="834"/>
      <point x="355" y="834" type="curve" smooth="yes"/>
      <point x="306" y="834" type="line" smooth="no"/>
      <point x="304" y="825"/>
      <point x="303" y="815"/>
      <point x="303" y="805" type="curve" smooth="yes"/>
      <point x="303.748" y="751.871"/>
      <point x="332.494" y="680.265"/>
    </contour>
  </outline>
</glyph>
<glyph name="uni0E84" format="1">
  <advance width="1268"/>
  <unicode hex="0e84"/>
  <outline>
    <contour>
      <point x="642" y="1104" type="curve" smooth="yes"/>
      <point x="982" y="1104"/>
      <point x="1183" y="995"/>
      <point x="1183" y="658" type="curve" smooth="yes"/>
      <point x="1183" y="0" type="line" smooth="no"/>
      <point x="916" y="0" type="line" smooth="no"/>
      <point x="916" y="654" type="line" smooth="yes"/>
      <point x="916" y="861"/>
      <point x="848" y="935"/>
      <point x="642" y="935" type="curve" smooth="yes"/>
      <point x="503" y="935"/>
      <point x="373" y="923"/>
      <point x="373" y="813" type="curve" smooth="yes"/>
      <point x="373" y="724"/>
      <point x="424" y="678"/>
      <point x="514" y="678" type="curve" smooth="yes"/>
      <point x="662" y="678" type="line" smooth="no"/>
      <point x="662" y="521" type="line" smooth="no"/>
      <point x="514" y="521" type="line" smooth="yes"/>
      <point x="418" y="521"/>
      <point x="373" y="484"/>
      <point x="373" y="391" type="curve" smooth="yes"/>
      <point x="373" y="386" type="line" smooth="no"/>
      <point x="395" y="392" type="line" smooth="yes"/>
      <point x="425" y="400"/>
      <point x="440" y="406"/>
      <point x="469" y="406" type="curve" smooth="yes"/>
      <point x="583" y="406"/>
      <point x="663" y="330"/>
      <point x="663" y="216" type="curve" smooth="yes"/>
      <point x="663" y="61"/>
      <point x="564" y="0"/>
      <point x="399" y="0" type="curve" smooth="yes"/>
      <point x="207" y="0"/>
      <point x="106" y="140"/>
      <point x="106" y="333" type="curve" smooth="yes"/>
      <point x="106" y="491"/>
      <point x="216" y="584"/>
      <point x="359" y="602" type="curve" smooth="no"/>
      <point x="221" y="602"/>
      <point x="106" y="677"/>
      <point x="106" y="813" type="curve" smooth="yes"/>
      <point x="106" y="1058"/>
      <point x="397" y="1104"/>
    </contour>
    <contour>
      <point x="434" y="139" type="curve" smooth="yes"/>
      <point x="477" y="139"/>
      <point x="496" y="170"/>
      <point x="496" y="216" type="curve" smooth="yes"/>
      <point x="496" y="257"/>
      <point x="467" y="284"/>
      <point x="424" y="284" type="curve" smooth="yes"/>
      <point x="373" y="284" type="line" smooth="no"/>
      <point x="373" y="238" type="line" smooth="yes"/>
      <point x="373" y="181"/>
      <point x="383" y="139"/>
    </contour>
  </outline>
</glyph>
<glyph name="uni0E88" format="1">
  <advance width="1340"/>
  <unicode hex="0e88"/>
  <outline>
    <contour>
      <point x="605" y="792" type="curve" smooth="yes"/>
      <point x="995" y="792"/>
      <point x="816" y="323"/>
      <point x="1007" y="132" type="curve" smooth="no"/>
      <point x="1007" y="638" type="line" smooth="yes"/>
      <point x="1007" y="859"/>
      <point x="881" y="935"/>
      <point x="654" y="935" type="curve" smooth="yes"/>
      <point x="452" y="935"/>
      <point x="273" y="876"/>
      <point x="273" y="678" type="curve" smooth="no"/>
      <point x="35" y="678" type="line" smooth="no"/>
      <point x="38" y="1002"/>
      <point x="325" y="1104"/>
      <point x="659" y="1104" type="curve" smooth="yes"/>
      <point x="1034" y="1104"/>
      <point x="1255" y="961"/>
      <point x="1255" y="590" type="curve" smooth="yes"/>
      <point x="1255" y="17" type="line" smooth="no"/>
      <point x="994" y="-77" type="line" smooth="no"/>
      <point x="952" y="-53" type="line" smooth="yes"/>
      <point x="789" y="39"/>
      <point x="694" y="195"/>
      <point x="654" y="407" type="curve" smooth="no"/>
      <point x="607" y="392" type="line" smooth="yes"/>
      <point x="587" y="386"/>
      <point x="564" y="382"/>
      <point x="541" y="382" type="curve" smooth="yes"/>
      <point x="428" y="382"/>
      <point x="353" y="465"/>
      <point x="353" y="578" type="curve" smooth="yes"/>
      <point x="353" y="721"/>
      <point x="459" y="792"/>
    </contour>
    <contour>
      <point x="643" y="541" type="line" smooth="yes"/>
      <point x="643" y="606"/>
      <point x="634" y="656"/>
      <point x="582" y="656" type="curve" smooth="yes"/>
      <point x="542" y="656"/>
      <point x="520" y="621"/>
      <point x="520" y="578" type="curve" smooth="yes"/>
      <point x="520" y="529"/>
      <point x="555" y="507"/>
      <point x="606" y="507" type="curve" smooth="yes"/>
      <point x="644" y="507" type="line" smooth="no"/>
      <point x="643" y="510"/>
      <point x="643" y="514"/>
      <point x="643" y="520" type="curve" smooth="yes"/>
    </contour>
  </outline>
</glyph>
<glyph name="uni0E8D" format="1">
  <advance width="1258"/>
  <unicode hex="0e8d"/>
  <outline>
    <contour>
      <point x="652" y="168" type="curve" smooth="yes"/>
      <point x="859" y="168"/>
      <point x="926" y="243"/>
      <point x="926" y="450" type="curve" smooth="yes"/>
      <point x="926" y="1104" type="line" smooth="no"/>
      <point x="1193" y="1104" type="line" smooth="no"/>
      <point x="1193" y="446" type="line" smooth="yes"/>
      <point x="1193" y="96"/>
      <point x="982" y="0"/>
      <point x="627" y="0" type="curve" smooth="yes"/>
      <point x="363" y="0"/>
      <point x="116" y="60"/>
      <point x="116" y="290" type="curve" smooth="yes"/>
      <point x="116" y="429"/>
      <point x="231" y="498"/>
      <point x="369" y="501" type="curve" smooth="no"/>
      <point x="227" y="518"/>
      <point x="116" y="614"/>
      <point x="116" y="771" type="curve" smooth="yes"/>
      <point x="116" y="963"/>
      <point x="219" y="1104"/>
      <point x="409" y="1104" type="curve" smooth="yes"/>
      <point x="574" y="1104"/>
      <point x="673" y="1042"/>
      <point x="673" y="887" type="curve" smooth="yes"/>
      <point x="673" y="778"/>
      <point x="594" y="697"/>
      <point x="485" y="697" type="curve" smooth="yes"/>
      <point x="452" y="697"/>
      <point x="438" y="700"/>
      <point x="405" y="711" type="curve" smooth="yes"/>
      <point x="383" y="718" type="line" smooth="no"/>
      <point x="383" y="712" type="line" smooth="yes"/>
      <point x="383" y="620"/>
      <point x="428" y="582"/>
      <point x="524" y="582" type="curve" smooth="yes"/>
      <point x="672" y="582" type="line" smooth="no"/>
      <point x="672" y="425" type="line" smooth="no"/>
      <point x="524" y="425" type="line" smooth="yes"/>
      <point x="434" y="425"/>
      <point x="383" y="379"/>
      <point x="383" y="290" type="curve" smooth="yes"/>
      <point x="383" y="180"/>
      <point x="513" y="168"/>
    </contour>
    <contour>
      <point x="434" y="820" type="line" smooth="yes"/>
      <point x="480" y="820"/>
      <point x="506" y="843"/>
      <point x="506" y="888" type="curve" smooth="yes"/>
      <point x="506" y="934"/>
      <point x="487" y="965"/>
      <point x="444" y="965" type="curve" smooth="yes"/>
      <point x="395" y="965"/>
      <point x="383" y="922"/>
      <point x="383" y="866" type="curve" smooth="yes"/>
      <point x="383" y="820" type="line" smooth="no"/>
    </contour>
  </outline>
</glyph>
<glyph name="uni0E95" format="1">
  <advance width="1566"/>
  <unicode hex="0e95"/>
  <outline>
    <contour>
      <point x="802" y="938" type="curve" smooth="no"/>
      <point x="842" y="1042"/>
      <point x="948" y="1104"/>
      <point x="1093" y="1104" type="curve" smooth="yes"/>
      <point x="1352" y="1104"/>
      <point x="1482" y="954"/>
      <point x="1482" y="654" type="curve" smooth="yes"/>
      <point x="1482" y="0" type="line" smooth="no"/>
      <point x="1214" y="0" type="line" smooth="no"/>
      <point x="1214" y="673" type="line" smooth="yes"/>
      <point x="1214" y="814"/>
      <point x="1203" y="935"/>
      <point x="1061" y="935" type="curve" smooth="yes"/>
      <point x="949" y="935"/>
      <point x="936" y="818"/>
      <point x="936" y="706" type="curve" smooth="yes"/>
      <point x="936" y="526" type="line" smooth="no"/>
      <point x="668" y="526" type="line" smooth="no"/>
      <point x="668" y="669" type="line" smooth="yes"/>
      <point x="668" y="796"/>
      <point x="664" y="935"/>
      <point x="537" y="935" type="curve" smooth="yes"/>
      <point x="397" y="935"/>
      <point x="383" y="849"/>
      <point x="383" y="706" type="curve" smooth="yes"/>
      <point x="383" y="387" type="line" smooth="no"/>
      <point x="421" y="399" type="line" smooth="yes"/>
      <point x="443" y="406"/>
      <point x="456" y="409"/>
      <point x="485" y="409" type="curve" smooth="yes"/>
      <point x="597" y="409"/>
      <point x="673" y="320"/>
      <point x="673" y="207" type="curve" smooth="yes"/>
      <point x="673" y="57"/>
      <point x="569" y="0"/>
      <point x="408" y="0" type="curve" smooth="yes"/>
      <point x="222" y="0"/>
      <point x="116" y="131"/>
      <point x="116" y="318" type="curve" smooth="yes"/>
      <point x="116" y="658" type="line" smooth="yes"/>
      <point x="116" y="951"/>
      <point x="231" y="1104"/>
      <point x="513" y="1104" type="curve" smooth="yes"/>
      <point x="659" y="1104"/>
      <point x="764" y="1046"/>
    </contour>
    <contour>
      <point x="448" y="139" type="curve" smooth="yes"/>
      <point x="487" y="139"/>
      <point x="506" y="170"/>
      <point x="506" y="212" type="curve" smooth="yes"/>
      <point x="505" y="259"/>
      <point x="481" y="282"/>
      <point x="432" y="282" type="curve" smooth="yes"/>
      <point x="383" y="282" type="line" smooth="no"/>
      <point x="383" y="222" type="line" smooth="yes"/>
      <point x="383" y="172"/>
      <point x="402" y="139"/>
    </contour>
  </outline>
</glyph>
<glyph name="uni0E96" format="1">
  <advance width="1352"/>
  <unicode hex="0e96"/>
  <outline>
    <contour>
      <point x="801" y="1104" type="curve" smooth="yes"/>
      <point x="1098" y="1104"/>
      <point x="1299" y="957"/>
      <point x="1299" y="662" type="curve" smooth="yes"/>
      <point x="1299" y="-311" type="line" smooth="no"/>
      <point x="1031" y="-311" type="line" smooth="no"/>
      <point x="1031" y="661" type="line" smooth="yes"/>
      <point x="1031" y="844"/>
      <point x="959" y="935"/>
      <point x="779" y="935" type="curve" smooth="yes"/>
      <point x="680" y="935"/>
      <point x="619" y="902"/>
      <point x="545" y="856" type="curve" smooth="no"/>
      <point x="545" y="386" type="line" smooth="no"/>
      <point x="580" y="398" type="line" smooth="yes"/>
      <point x="597" y="404"/>
      <point x="618" y="405"/>
      <point x="640" y="405" type="curve" smooth="yes"/>
      <point x="754" y="405"/>
      <point x="833" y="321"/>
      <point x="833" y="207" type="curve" smooth="yes"/>
      <point x="833" y="69"/>
      <point x="742" y="0"/>
      <point x="559" y="0" type="curve" smooth="yes"/>
      <point x="370" y="0"/>
      <point x="277" y="148"/>
      <point x="277" y="339" type="curve" smooth="yes"/>
      <point x="277" y="724" type="line" smooth="no"/>
      <point x="256" y="720"/>
      <point x="230" y="718"/>
      <point x="201" y="718" type="curve" smooth="yes"/>
      <point x="82" y="718"/>
      <point x="-5" y="791"/>
      <point x="-5" y="910" type="curve" smooth="yes"/>
      <point x="-5" y="1048"/>
      <point x="89" y="1104"/>
      <point x="235" y="1104" type="curve" smooth="yes"/>
      <point x="333" y="1104"/>
      <point x="415" y="1072"/>
      <point x="480" y="1009" type="curve" smooth="no"/>
      <point x="585" y="1072"/>
      <point x="692" y="1104"/>
    </contour>
    <contour>
      <point x="606" y="139" type="curve" smooth="no"/>
      <point x="644" y="139"/>
      <point x="667" y="167"/>
      <point x="667" y="208" type="curve" smooth="no"/>
      <point x="663" y="256"/>
      <point x="638" y="281"/>
      <point x="591" y="283" type="curve" smooth="no"/>
      <point x="545" y="283" type="line" smooth="no"/>
      <point x="545" y="226" type="line" smooth="no"/>
      <point x="552" y="173"/>
      <point x="573" y="144"/>
    </contour>
    <contour>
      <point x="217" y="981" type="curve" smooth="yes"/>
      <point x="180" y="981"/>
      <point x="163" y="958"/>
      <point x="162" y="923" type="curve" smooth="no"/>
      <point x="163" y="883"/>
      <point x="179" y="863"/>
      <point x="212" y="863" type="curve" smooth="yes"/>
      <point x="231" y="863"/>
      <point x="253" y="868"/>
      <point x="277" y="878" type="curve" smooth="no"/>
      <point x="274" y="947"/>
      <point x="254" y="981"/>
    </contour>
  </outline>
</glyph>
<glyph name="uni0E9A" format="1">
  <advance width="1344"/>
  <unicode hex="0e9a"/>
  <outline>
    <contour>
      <point x="15" y="896" type="curve" smooth="yes"/>
      <point x="15" y="1041"/>
      <point x="117" y="1104"/>
      <point x="274" y="1104" type="curve" smooth="yes"/>
      <point x="422" y="1104"/>
      <point x="542" y="1018"/>
      <point x="542" y="871" type="curve" smooth="yes"/>
      <point x="542" y="796"/>
      <point x="516" y="727"/>
      <point x="493" y="634" type="curve" smooth="yes"/>
      <point x="446" y="448" type="line" smooth="yes"/>
      <point x="433" y="399"/>
      <point x="427" y="358"/>
      <point x="427" y="325" type="curve" smooth="yes"/>
      <point x="427" y="207"/>
      <point x="563" y="167"/>
      <point x="687" y="167" type="curve" smooth="yes"/>
      <point x="897" y="167"/>
      <point x="1001" y="220"/>
      <point x="1001" y="428" type="curve" smooth="yes"/>
      <point x="1001" y="1104" type="line" smooth="no"/>
      <point x="1269" y="1104" type="line" smooth="no"/>
      <point x="1269" y="478" type="line" smooth="yes"/>
      <point x="1269" y="125"/>
      <point x="1058" y="0"/>
      <point x="691" y="0" type="curve" smooth="yes"/>
      <point x="426" y="0"/>
      <point x="176" y="83"/>
      <point x="176" y="340" type="curve" smooth="yes"/>
      <point x="176" y="377"/>
      <point x="185" y="412"/>
      <point x="194" y="445" type="curve" smooth="yes"/>
      <point x="266" y="706" type="line" smooth="no"/>
      <point x="246" y="700"/>
      <point x="225" y="697"/>
      <point x="204" y="697" type="curve" smooth="yes"/>
      <point x="93" y="697"/>
      <point x="15" y="785"/>
    </contour>
    <contour>
      <point x="317" y="897" type="line" smooth="no"/>
      <point x="317" y="941"/>
      <point x="289" y="965"/>
      <point x="243" y="965" type="curve" smooth="yes"/>
      <point x="202" y="965"/>
      <point x="182" y="940"/>
      <point x="182" y="889" type="curve" smooth="yes"/>
      <point x="182" y="843"/>
      <point x="212" y="820"/>
      <point x="272" y="819" type="curve" smooth="no"/>
      <point x="278" y="819" type="line" smooth="no"/>
      <point x="279" y="820"/>
      <point x="282" y="820"/>
      <point x="288" y="820" type="curve" smooth="yes"/>
      <point x="296" y="820" type="line" smooth="no"/>
      <point x="305" y="847" type="line" smooth="yes"/>
      <point x="308" y="856"/>
      <point x="316" y="882"/>
      <point x="316" y="894" type="curve" smooth="no"/>
    </contour>
  </outline>
</glyph>
<glyph name="uni0E9C" format="1">
  <advance width="1577"/>
  <unicode hex="0e9c"/>
  <outline>
    <contour>
      <point x="1170" y="877" type="line" smooth="yes"/>
      <point x="1170" y="929"/>
      <point x="1153" y="963"/>
      <point x="1107" y="965" type="curve" smooth="no"/>
      <point x="1070" y="965"/>
      <point x="1047" y="934"/>
      <point x="1047" y="894" type="curve" smooth="yes"/>
      <point x="1047" y="845"/>
      <point x="1075" y="821"/>
      <point x="1132" y="821" type="curve" smooth="yes"/>
      <point x="1152" y="821" type="line" smooth="yes"/>
      <point x="1158" y="821"/>
      <point x="1165" y="821"/>
      <point x="1170" y="822" type="curve" smooth="no"/>
    </contour>
    <contour>
      <point x="527" y="896" type="curve" smooth="yes"/>
      <point x="527" y="937"/>
      <point x="509" y="965"/>
      <point x="468" y="965" type="curve" smooth="no"/>
      <point x="425" y="962"/>
      <point x="404" y="933"/>
      <point x="404" y="877" type="curve" smooth="yes"/>
      <point x="404" y="821" type="line" smooth="no"/>
      <point x="446" y="821" type="line" smooth="no"/>
      <point x="495" y="824"/>
      <point x="527" y="846"/>
    </contour>
    <contour>
      <point x="1170" y="705" type="line" smooth="no"/>
      <point x="1143" y="699"/>
      <point x="1112" y="698"/>
      <point x="1078" y="698" type="curve" smooth="yes"/>
      <point x="958" y="698"/>
      <point x="881" y="779"/>
      <point x="881" y="900" type="curve" smooth="yes"/>
      <point x="881" y="1049"/>
      <point x="989" y="1104"/>
      <point x="1149" y="1104" type="curve" smooth="yes"/>
      <point x="1266" y="1104"/>
      <point x="1341" y="1054"/>
      <point x="1385" y="976" type="curve" smooth="no"/>
      <point x="1394" y="1000"/>
      <point x="1398" y="1034"/>
      <point x="1398" y="1077" type="curve" smooth="yes"/>
      <point x="1398" y="1231" type="line" smooth="no"/>
      <point x="1563" y="1231" type="line" smooth="no"/>
      <point x="1563" y="1077" type="line" smooth="yes"/>
      <point x="1563" y="956"/>
      <point x="1505" y="878"/>
      <point x="1432" y="817" type="curve" smooth="no"/>
      <point x="1434" y="788"/>
      <point x="1437" y="762"/>
      <point x="1437" y="734" type="curve" smooth="yes"/>
      <point x="1437" y="482" type="line" smooth="yes"/>
      <point x="1437" y="161"/>
      <point x="1319" y="0"/>
      <point x="1083" y="0" type="curve" smooth="yes"/>
      <point x="911" y="0"/>
      <point x="810" y="72"/>
      <point x="783" y="215" type="curve" smooth="no"/>
      <point x="757" y="72"/>
      <point x="658" y="0"/>
      <point x="485" y="0" type="curve" smooth="yes"/>
      <point x="222" y="0"/>
      <point x="137" y="201"/>
      <point x="137" y="482" type="curve" smooth="yes"/>
      <point x="137" y="764" type="line" smooth="yes"/>
      <point x="137" y="961"/>
      <point x="227" y="1104"/>
      <point x="422" y="1104" type="curve" smooth="yes"/>
      <point x="587" y="1104"/>
      <point x="694" y="1051"/>
      <point x="694" y="899" type="curve" smooth="yes"/>
      <point x="694" y="782"/>
      <point x="616" y="698"/>
      <point x="498" y="698" type="curve" smooth="yes"/>
      <point x="465" y="698"/>
      <point x="434" y="704"/>
      <point x="404" y="717" type="curve" smooth="no"/>
      <point x="404" y="405" type="line" smooth="yes"/>
      <point x="404" y="287"/>
      <point x="411" y="167"/>
      <point x="523" y="167" type="curve" smooth="yes"/>
      <point x="628" y="167"/>
      <point x="652" y="281"/>
      <point x="652" y="405" type="curve" smooth="yes"/>
      <point x="652" y="555" type="line" smooth="no"/>
      <point x="920" y="555" type="line" smooth="no"/>
      <point x="920" y="407" type="line" smooth="yes"/>
      <point x="920" y="281"/>
      <point x="940" y="167"/>
      <point x="1048" y="167" type="curve" smooth="yes"/>
      <point x="1155" y="167"/>
      <point x="1170" y="277"/>
      <point x="1170" y="403" type="curve" smooth="yes"/>
    </contour>
  </outline>
</glyph>
<glyph name="uni0E9D" format="1">
  <advance width="1555"/>
  <unicode hex="0e9d"/>
  <outline>
    <contour>
      <point x="403" y="405" type="line" smooth="yes"/>
      <point x="403" y="273"/>
      <point x="415" y="167"/>
      <point x="543" y="167" type="curve" smooth="yes"/>
      <point x="666" y="167"/>
      <point x="686" y="267"/>
      <point x="686" y="405" type="curve" smooth="yes"/>
      <point x="686" y="555" type="line" smooth="no"/>
      <point x="954" y="555" type="line" smooth="no"/>
      <point x="954" y="405" type="line" smooth="yes"/>
      <point x="954" y="272"/>
      <point x="976" y="167"/>
      <point x="1089" y="167" type="curve" smooth="yes"/>
      <point x="1211" y="167"/>
      <point x="1232" y="268"/>
      <point x="1232" y="405" type="curve" smooth="yes"/>
      <point x="1232" y="1427" type="line" smooth="no"/>
      <point x="1500" y="1427" type="line" smooth="no"/>
      <point x="1500" y="482" type="line" smooth="yes"/>
      <point x="1500" y="189"/>
      <point x="1402" y="0"/>
      <point x="1128" y="0" type="curve" smooth="yes"/>
      <point x="940" y="0"/>
      <point x="854" y="73"/>
      <point x="818" y="215" type="curve" smooth="no"/>
      <point x="793" y="77"/>
      <point x="698" y="0"/>
      <point x="538" y="0" type="curve" smooth="yes"/>
      <point x="240" y="0"/>
      <point x="136" y="182"/>
      <point x="136" y="482" type="curve" smooth="yes"/>
      <point x="136" y="774" type="line" smooth="yes"/>
      <point x="136" y="958"/>
      <point x="234" y="1104"/>
      <point x="416" y="1104" type="curve" smooth="yes"/>
      <point x="600" y="1104"/>
      <point x="692" y="1037"/>
      <point x="692" y="902" type="curve" smooth="yes"/>
      <point x="692" y="781"/>
      <point x="619" y="698"/>
      <point x="498" y="698" type="curve" smooth="yes"/>
      <point x="481" y="698"/>
      <point x="449" y="705"/>
      <point x="403" y="718" type="curve" smooth="no"/>
    </contour>
    <contour>
      <point x="526" y="899" type="curve" smooth="no"/>
      <point x="526" y="935"/>
      <point x="505" y="965"/>
      <point x="468" y="965" type="curve" smooth="yes"/>
      <point x="425" y="965"/>
      <point x="403" y="936"/>
      <point x="403" y="877" type="curve" smooth="yes"/>
      <point x="403" y="821" type="line" smooth="no"/>
      <point x="444" y="821" type="line" smooth="no"/>
      <point x="496" y="828"/>
      <point x="523" y="854"/>
    </contour>
  </outline>
</glyph>
<glyph name="uni0E9E" format="1">
  <advance width="1516"/>
  <unicode hex="0e9e"/>
  <outline>
    <contour>
      <point x="269" y="1104" type="curve" smooth="yes"/>
      <point x="415" y="1104"/>
      <point x="542" y="1025"/>
      <point x="542" y="881" type="curve" smooth="yes"/>
      <point x="542" y="863"/>
      <point x="538" y="833"/>
      <point x="530" y="790" type="curve" smooth="no"/>
      <point x="441" y="431" type="line" smooth="no"/>
      <point x="434" y="387"/>
      <point x="427" y="350"/>
      <point x="427" y="308" type="curve" smooth="yes"/>
      <point x="427" y="215"/>
      <point x="461" y="168"/>
      <point x="530" y="167" type="curve" smooth="no"/>
      <point x="650" y="167"/>
      <point x="663" y="262"/>
      <point x="663" y="384" type="curve" smooth="yes"/>
      <point x="663" y="1103" type="line" smooth="no"/>
      <point x="931" y="1103" type="line" smooth="no"/>
      <point x="931" y="384" type="line" smooth="yes"/>
      <point x="931" y="258"/>
      <point x="954" y="167"/>
      <point x="1062" y="167" type="curve" smooth="yes"/>
      <point x="1170" y="167"/>
      <point x="1184" y="260"/>
      <point x="1184" y="383" type="curve" smooth="yes"/>
      <point x="1184" y="1104" type="line" smooth="no"/>
      <point x="1451" y="1104" type="line" smooth="no"/>
      <point x="1451" y="483" type="line" smooth="yes"/>
      <point x="1451" y="195"/>
      <point x="1363" y="0"/>
      <point x="1097" y="0" type="curve" smooth="yes"/>
      <point x="929" y="0"/>
      <point x="829" y="77"/>
      <point x="796" y="231" type="curve" smooth="no"/>
      <point x="772" y="83"/>
      <point x="671" y="0"/>
      <point x="496" y="0" type="curve" smooth="yes"/>
      <point x="294" y="0"/>
      <point x="175" y="109"/>
      <point x="175" y="311" type="curve" smooth="yes"/>
      <point x="175" y="360"/>
      <point x="181" y="402"/>
      <point x="193" y="443" type="curve" smooth="yes"/>
      <point x="265" y="705" type="line" smooth="no"/>
      <point x="245" y="700"/>
      <point x="227" y="697"/>
      <point x="203" y="697" type="curve" smooth="yes"/>
      <point x="91" y="697"/>
      <point x="15" y="783"/>
      <point x="15" y="896" type="curve" smooth="yes"/>
      <point x="15" y="1041"/>
      <point x="114" y="1104"/>
    </contour>
    <contour>
      <point x="316" y="901" type="curve" smooth="yes"/>
      <point x="316" y="946"/>
      <point x="291" y="965"/>
      <point x="247" y="965" type="curve" smooth="no"/>
      <point x="207" y="961"/>
      <point x="185" y="937"/>
      <point x="182" y="894" type="curve" smooth="no"/>
      <point x="182" y="839"/>
      <point x="210" y="820"/>
      <point x="267" y="820" type="curve" smooth="yes"/>
      <point x="296" y="820" type="line" smooth="no"/>
      <point x="308" y="863" type="line" smooth="yes"/>
      <point x="310" y="872"/>
      <point x="316" y="890"/>
    </contour>
  </outline>
</glyph>
<glyph name="uni0E9F" format="1">
  <advance width="1512"/>
  <unicode hex="0e9f"/>
  <outline>
    <contour>
      <point x="178" y="722" type="curve" smooth="yes"/>
      <point x="72" y="722"/>
      <point x="15" y="798"/>
      <point x="15" y="908" type="curve" smooth="yes"/>
      <point x="15" y="1049"/>
      <point x="125" y="1104"/>
      <point x="280" y="1104" type="curve" smooth="yes"/>
      <point x="410" y="1104"/>
      <point x="536" y="1043"/>
      <point x="536" y="916" type="curve" smooth="yes"/>
      <point x="536" y="889"/>
      <point x="529" y="846"/>
      <point x="515" y="787" type="curve" smooth="yes"/>
      <point x="433" y="451" type="line" smooth="yes"/>
      <point x="421" y="402"/>
      <point x="412" y="367"/>
      <point x="412" y="325" type="curve" smooth="yes"/>
      <point x="412" y="220"/>
      <point x="448" y="167"/>
      <point x="519" y="167" type="curve" smooth="yes"/>
      <point x="636" y="167"/>
      <point x="649" y="265"/>
      <point x="649" y="384" type="curve" smooth="yes"/>
      <point x="649" y="1103" type="line" smooth="no"/>
      <point x="916" y="1103" type="line" smooth="no"/>
      <point x="916" y="383" type="line" smooth="yes"/>
      <point x="916" y="257"/>
      <point x="938" y="167"/>
      <point x="1048" y="167" type="curve" smooth="yes"/>
      <point x="1160" y="167"/>
      <point x="1169" y="269"/>
      <point x="1169" y="384" type="curve" smooth="yes"/>
      <point x="1169" y="1428" type="line" smooth="no"/>
      <point x="1436" y="1428" type="line" smooth="no"/>
      <point x="1436" y="483" type="line" smooth="yes"/>
      <point x="1436" y="161"/>
      <point x="1318" y="0"/>
      <point x="1083" y="0" type="curve" smooth="yes"/>
      <point x="915" y="0"/>
      <point x="811" y="77"/>
      <point x="780" y="231" type="curve" smooth="no"/>
      <point x="751" y="82"/>
      <point x="654" y="5"/>
      <point x="491" y="0" type="curve" smooth="no"/>
      <point x="481" y="0" type="line" smooth="no"/>
      <point x="268" y="1"/>
      <point x="161" y="103"/>
      <point x="161" y="317" type="curve" smooth="yes"/>
      <point x="161" y="364"/>
      <point x="169" y="406"/>
      <point x="182" y="452" type="curve" smooth="yes"/>
      <point x="259" y="735" type="line" smooth="no"/>
      <point x="239" y="726"/>
      <point x="212" y="722"/>
    </contour>
    <contour>
      <point x="238" y="978" type="curve" smooth="no"/>
      <point x="194" y="971"/>
      <point x="171" y="947"/>
      <point x="168" y="908" type="curve" smooth="no"/>
      <point x="168" y="837"/>
      <point x="209" y="830"/>
      <point x="286" y="830" type="curve" smooth="no"/>
      <point x="293" y="853" type="line" smooth="no"/>
      <point x="307" y="913" type="line" smooth="no"/>
      <point x="307" y="919" type="line" smooth="no"/>
      <point x="306" y="957"/>
      <point x="283" y="977"/>
    </contour>
  </outline>
</glyph>
<glyph name="uni0EA3" format="1">
  <advance width="1271"/>
  <unicode hex="0ea3"/>
  <outline>
    <contour>
      <point x="86" y="328" type="curve" smooth="yes"/>
      <point x="86" y="484"/>
      <point x="168" y="566"/>
      <point x="326" y="566" type="curve" smooth="yes"/>
      <point x="454" y="566"/>
      <point x="555" y="491"/>
      <point x="555" y="364" type="curve" smooth="yes"/>
      <point x="555" y="268"/>
      <point x="482" y="190"/>
      <point x="386" y="190" type="curve" smooth="no"/>
      <point x="354" y="195" type="line" smooth="no"/>
      <point x="401" y="174"/>
      <point x="495" y="164"/>
      <point x="635" y="164" type="curve" smooth="yes"/>
      <point x="784" y="164"/>
      <point x="957" y="203"/>
      <point x="957" y="345" type="curve" smooth="yes"/>
      <point x="957" y="579"/>
      <point x="395" y="571"/>
      <point x="236" y="654" type="curve" smooth="yes"/>
      <point x="157" y="695"/>
      <point x="100" y="757"/>
      <point x="100" y="873" type="curve" smooth="yes"/>
      <point x="100" y="1075"/>
      <point x="365" y="1104"/>
      <point x="613" y="1104" type="curve" smooth="yes"/>
      <point x="910" y="1104"/>
      <point x="1171" y="1072"/>
      <point x="1171" y="785" type="curve" smooth="yes"/>
      <point x="1171" y="764" type="line" smooth="no"/>
      <point x="929" y="764" type="line" smooth="no"/>
      <point x="929" y="789" type="line" smooth="yes"/>
      <point x="929" y="934.027"/>
      <point x="775.213" y="935"/>
      <point x="624.163" y="935" type="curve" smooth="yes"/>
      <point x="618" y="935" type="line" smooth="yes"/>
      <point x="600.968" y="935"/>
      <point x="581.163" y="935.337"/>
      <point x="560.298" y="935.337" type="curve" smooth="yes"/>
      <point x="473.359" y="935.337"/>
      <point x="368" y="929.484"/>
      <point x="368" y="869" type="curve" smooth="no"/>
      <point x="372" y="780"/>
      <point x="573" y="772"/>
      <point x="669" y="754" type="curve" smooth="yes"/>
      <point x="931" y="707"/>
      <point x="1205" y="658"/>
      <point x="1205" y="361" type="curve" smooth="yes"/>
      <point x="1205" y="89"/>
      <point x="924" y="0"/>
      <point x="644" y="0" type="curve" smooth="yes"/>
      <point x="382" y="0"/>
      <point x="86" y="76"/>
    </contour>
    <contour>
      <point x="389" y="352" type="curve" smooth="yes"/>
      <point x="389" y="398"/>
      <point x="369" y="428"/>
      <point x="327" y="429" type="curve" smooth="no"/>
      <point x="284" y="428"/>
      <point x="262" y="391"/>
      <point x="261" y="316" type="curve" smooth="yes"/>
      <point x="261" y="305"/>
      <point x="264" y="294"/>
      <point x="266" y="282" type="curve" smooth="no"/>
      <point x="302" y="282" type="line" smooth="no"/>
      <point x="352" y="284"/>
      <point x="389" y="302"/>
    </contour>
  </outline>
</glyph>
<glyph name="uni0EAB" format="1">
  <advance width="1854"/>
  <unicode hex="0eab"/>
  <outline>
    <contour>
      <point x="207" y="698" type="curve" smooth="no"/>
      <point x="89" y="698"/>
      <point x="15" y="782"/>
      <point x="15" y="901" type="curve" smooth="yes"/>
      <point x="15" y="1049"/>
      <point x="123" y="1104"/>
      <point x="285" y="1104" type="curve" smooth="yes"/>
      <point x="423" y="1104"/>
      <point x="551" y="1036"/>
      <point x="551" y="901" type="curve" smooth="yes"/>
      <point x="551" y="865"/>
      <point x="543" y="823"/>
      <point x="527" y="775" type="curve" smooth="no"/>
      <point x="432" y="402" type="line" smooth="yes"/>
      <point x="425" y="377"/>
      <point x="422" y="355"/>
      <point x="422" y="334" type="curve" smooth="yes"/>
      <point x="422" y="216"/>
      <point x="525" y="167"/>
      <point x="652" y="167" type="curve" smooth="yes"/>
      <point x="822" y="167"/>
      <point x="889" y="244"/>
      <point x="889" y="414" type="curve" smooth="yes"/>
      <point x="889" y="711" type="line" smooth="no"/>
      <point x="869" y="702"/>
      <point x="843" y="698"/>
      <point x="812" y="698" type="curve" smooth="yes"/>
      <point x="680" y="698"/>
      <point x="605" y="772"/>
      <point x="605" y="906" type="curve" smooth="yes"/>
      <point x="605" y="1045"/>
      <point x="709" y="1104"/>
      <point x="860" y="1104" type="curve" smooth="yes"/>
      <point x="977" y="1104"/>
      <point x="1063" y="1065"/>
      <point x="1116" y="988" type="curve" smooth="no"/>
      <point x="1205" y="1048"/>
      <point x="1282" y="1104"/>
      <point x="1391" y="1104" type="curve" smooth="yes"/>
      <point x="1656" y="1104"/>
      <point x="1789" y="957"/>
      <point x="1789" y="662" type="curve" smooth="yes"/>
      <point x="1789" y="0" type="line" smooth="no"/>
      <point x="1521" y="0" type="line" smooth="no"/>
      <point x="1521" y="658" type="line" smooth="yes"/>
      <point x="1521" y="823"/>
      <point x="1519" y="935"/>
      <point x="1358" y="935" type="curve" smooth="yes"/>
      <point x="1283" y="935"/>
      <point x="1219" y="895"/>
      <point x="1157" y="859" type="curve" smooth="no"/>
      <point x="1157" y="418" type="line" smooth="yes"/>
      <point x="1157" y="112"/>
      <point x="948" y="0"/>
      <point x="626" y="0" type="curve" smooth="yes"/>
      <point x="402" y="0"/>
      <point x="189" y="97"/>
      <point x="171" y="299" type="curve" smooth="yes"/>
      <point x="171" y="302"/>
      <point x="171" y="304"/>
      <point x="170" y="305" type="curve" smooth="no"/>
      <point x="170" y="320" type="line" smooth="yes"/>
      <point x="170" y="345"/>
      <point x="174" y="373"/>
      <point x="182" y="402" type="curve" smooth="yes"/>
      <point x="267" y="709" type="line" smooth="no"/>
      <point x="245" y="705"/>
      <point x="227" y="702"/>
    </contour>
    <contour>
      <point x="317" y="902" type="curve" smooth="no"/>
      <point x="317" y="939"/>
      <point x="285" y="965"/>
      <point x="246" y="965" type="curve" smooth="yes"/>
      <point x="205" y="964"/>
      <point x="183" y="940"/>
      <point x="182" y="892" type="curve" smooth="no"/>
      <point x="185" y="845"/>
      <point x="215" y="821"/>
      <point x="270" y="821" type="curve" smooth="yes"/>
      <point x="297" y="821" type="line" smooth="no"/>
      <point x="309" y="875"/>
      <point x="316" y="902"/>
    </contour>
    <contour>
      <point x="833" y="974" type="curve" smooth="yes"/>
      <point x="794" y="974"/>
      <point x="773" y="948"/>
      <point x="772" y="910" type="curve" smooth="no"/>
      <point x="773" y="865"/>
      <point x="793" y="843"/>
      <point x="832" y="843" type="curve" smooth="yes"/>
      <point x="857" y="843"/>
      <point x="876" y="846"/>
      <point x="889" y="853" type="curve" smooth="no"/>
      <point x="889" y="884" type="line" smooth="yes"/>
      <point x="889" y="937"/>
      <point x="879" y="974"/>
    </contour>
  </outline>
</glyph>
<glyph name="uni0EAE" format="1">
  <advance width="1212"/>
  <unicode hex="0eae"/>
  <outline>
    <contour>
      <point x="395" y="338" type="curve" smooth="yes"/>
      <point x="395" y="382"/>
      <point x="376" y="416"/>
      <point x="334" y="416" type="curve" smooth="yes"/>
      <point x="290" y="415"/>
      <point x="268" y="377"/>
      <point x="268" y="304" type="curve" smooth="yes"/>
      <point x="268" y="293"/>
      <point x="269" y="282"/>
      <point x="271" y="272" type="curve" smooth="no"/>
      <point x="312" y="272" type="line" smooth="yes"/>
      <point x="362" y="272"/>
      <point x="395" y="291"/>
    </contour>
    <contour>
      <point x="901" y="990" type="curve" smooth="yes"/>
      <point x="933" y="990"/>
      <point x="960" y="1009"/>
      <point x="960" y="1042" type="curve" smooth="yes"/>
      <point x="960" y="1104" type="line" smooth="no"/>
      <point x="1152" y="1104" type="line" smooth="no"/>
      <point x="1152" y="1042" type="line" smooth="yes"/>
      <point x="1152" y="887"/>
      <point x="1085" y="809"/>
      <point x="951" y="809" type="curve" smooth="yes"/>
      <point x="797" y="809"/>
      <point x="516" y="926"/>
      <point x="396" y="926" type="curve" smooth="yes"/>
      <point x="371" y="926"/>
      <point x="352" y="915"/>
      <point x="352" y="892" type="curve" smooth="yes"/>
      <point x="352" y="824"/>
      <point x="508" y="784"/>
      <point x="598" y="755" type="curve" smooth="yes"/>
      <point x="781" y="696" type="line" smooth="yes"/>
      <point x="960" y="639"/>
      <point x="1152" y="562"/>
      <point x="1152" y="339" type="curve" smooth="yes"/>
      <point x="1152" y="71"/>
      <point x="907" y="0"/>
      <point x="606" y="0" type="curve" smooth="yes"/>
      <point x="348" y="0"/>
      <point x="86" y="68"/>
      <point x="86" y="316" type="curve" smooth="yes"/>
      <point x="86" y="470"/>
      <point x="172" y="554"/>
      <point x="329" y="554" type="curve" smooth="yes"/>
      <point x="457" y="554"/>
      <point x="562" y="480"/>
      <point x="562" y="353" type="curve" smooth="yes"/>
      <point x="562" y="248"/>
      <point x="486" y="179"/>
      <point x="381" y="179" type="curve" smooth="no"/>
      <point x="337" y="187" type="line" smooth="no"/>
      <point x="395" y="164"/>
      <point x="487" y="152"/>
      <point x="613" y="152" type="curve" smooth="yes"/>
      <point x="762" y="152"/>
      <point x="878" y="194"/>
      <point x="884" y="321" type="curve" smooth="no"/>
      <point x="880" y="475"/>
      <point x="692" y="513"/>
      <point x="562" y="557" type="curve" smooth="yes"/>
      <point x="506" y="576" type="line" smooth="yes"/>
      <point x="332" y="635"/>
      <point x="114" y="680"/>
      <point x="114" y="896" type="curve" smooth="yes"/>
      <point x="114" y="1020"/>
      <point x="217" y="1104"/>
      <point x="342" y="1104" type="curve" smooth="yes"/>
      <point x="547" y="1104"/>
      <point x="715" y="990"/>
    </contour>
  </outline>
</glyph>
<glyph name="uni0EAF" format="1">
  <advance width="1347"/>
  <unicode hex="0eaf"/>
  <outline>
    <contour>
      <point x="736" y="922" type="curve" smooth="yes"/>
      <point x="736" y="790"/>
      <point x="652" y="670"/>
      <point x="520" y="670" type="curve" smooth="yes"/>
      <point x="420" y="670"/>
      <point x="351" y="729"/>
      <point x="351" y="830" type="curve" smooth="no"/>
      <point x="357" y="863"/>
      <point x="362" y="895"/>
      <point x="371" y="947" type="curve" smooth="no"/>
      <point x="320" y="921"/>
      <point x="294" y="861"/>
      <point x="294" y="766" type="curve" smooth="yes"/>
      <point x="294" y="639"/>
      <point x="377" y="562"/>
      <point x="506" y="562" type="curve" smooth="yes"/>
      <point x="752" y="562"/>
      <point x="934" y="833"/>
      <point x="1031" y="998" type="curve" smooth="no"/>
      <point x="1078" y="1079" type="line" smooth="no"/>
      <point x="1362" y="963" type="line" smooth="no"/>
      <point x="778" y="-408" type="line" smooth="no"/>
      <point x="558" y="-315" type="line" smooth="no"/>
      <point x="988" y="702" type="line" smooth="no"/>
      <point x="956" y="652" type="line" smooth="yes"/>
      <point x="859" y="500"/>
      <point x="724" y="378"/>
      <point x="501" y="378" type="curve" smooth="yes"/>
      <point x="250" y="378"/>
      <point x="45" y="503"/>
      <point x="45" y="751" type="curve" smooth="yes"/>
      <point x="45" y="984"/>
      <point x="212" y="1153"/>
      <point x="444" y="1153" type="curve" smooth="yes"/>
      <point x="599" y="1153"/>
      <point x="736" y="1075"/>
    </contour>
    <contour>
      <point x="471" y="864" type="line" smooth="yes"/>
      <point x="471" y="829"/>
      <point x="491" y="810"/>
      <point x="528" y="810" type="curve" smooth="no"/>
      <point x="562" y="813"/>
      <point x="579" y="836"/>
      <point x="580" y="879" type="curve" smooth="no"/>
      <point x="578" y="926"/>
      <point x="542" y="954"/>
      <point x="473" y="961" type="curve" smooth="no"/>
      <point x="472" y="925"/>
      <point x="471" y="904"/>
      <point x="471" y="877" type="curve" smooth="yes"/>
    </contour>
  </outline>
</glyph>
<glyph name="uni0EB2" format="1">
  <advance width="902"/>
  <unicode hex="0eb2"/>
  <outline>
    <contour>
      <point x="284" y="668" type="curve" smooth="yes"/>
      <point x="150" y="668"/>
      <point x="53" y="733"/>
      <point x="53" y="866" type="curve" smooth="yes"/>
      <point x="53" y="1038"/>
      <point x="190" y="1106"/>
      <point x="378" y="1106" type="curve" smooth="yes"/>
      <point x="660" y="1106"/>
      <point x="822" y="998"/>
      <point x="822" y="725" type="curve" smooth="yes"/>
      <point x="822" y="0" type="line" smooth="no"/>
      <point x="555" y="0" type="line" smooth="no"/>
      <point x="555" y="772" type="line" smooth="yes"/>
      <point x="555" y="877"/>
      <point x="536" y="935"/>
      <point x="454" y="956" type="curve" smooth="no"/>
      <point x="470" y="848" type="line" smooth="no"/>
      <point x="470" y="728"/>
      <point x="408" y="668"/>
    </contour>
    <contour>
      <point x="298" y="809" type="curve" smooth="yes"/>
      <point x="348" y="809"/>
      <point x="364" y="860"/>
      <point x="364" y="916" type="curve" smooth="yes"/>
      <point x="364" y="963" type="line" smooth="no"/>
      <point x="285" y="963"/>
      <point x="219" y="959"/>
      <point x="219" y="884" type="curve" smooth="yes"/>
      <point x="219" y="835"/>
      <point x="248" y="809"/>
    </contour>
  </outline>
</glyph>
<glyph name="uni0EB3" format="1">
  <advance width="961"/>
  <unicode hex="0eb3"/>
  <outline>
    <contour>
      <point x="333" y="687" type="curve" smooth="yes"/>
      <point x="198" y="687"/>
      <point x="102" y="751"/>
      <point x="102" y="885" type="curve" smooth="yes"/>
      <point x="102" y="1057"/>
      <point x="238" y="1125"/>
      <point x="426" y="1125" type="curve" smooth="yes"/>
      <point x="708" y="1125"/>
      <point x="870" y="1018"/>
      <point x="870" y="746" type="curve" smooth="yes"/>
      <point x="870" y="0" type="line" smooth="no"/>
      <point x="603" y="0" type="line" smooth="no"/>
      <point x="603" y="791" type="line" smooth="yes"/>
      <point x="603" y="896"/>
      <point x="584" y="954"/>
      <point x="502" y="975" type="curve" smooth="no"/>
      <point x="519" y="869" type="line" smooth="no"/>
      <point x="519" y="748"/>
      <point x="457" y="687"/>
    </contour>
    <contour>
      <point x="347" y="830" type="curve" smooth="yes"/>
      <point x="397" y="830"/>
      <point x="410" y="882"/>
      <point x="412" y="936" type="curve" smooth="no"/>
      <point x="411" y="983" type="line" smooth="no"/>
      <point x="332" y="983"/>
      <point x="267" y="980"/>
      <point x="267" y="904" type="curve" smooth="yes"/>
      <point x="267" y="855"/>
      <point x="298" y="830"/>
    </contour>
    <contour>
      <point x="-149" y="1432" type="curve" smooth="yes"/>
      <point x="-149" y="1307"/>
      <point x="-246" y="1216"/>
      <point x="-372" y="1216" type="curve" smooth="yes"/>
      <point x="-496" y="1216"/>
      <point x="-595" y="1308"/>
      <point x="-595" y="1432" type="curve" smooth="yes"/>
      <point x="-595" y="1556"/>
      <point x="-497" y="1649"/>
      <point x="-372" y="1649" type="curve" smooth="yes"/>
      <point x="-245" y="1649"/>
      <point x="-149" y="1559"/>
    </contour>
    <contour>
      <point x="-372" y="1347" type="curve" smooth="yes"/>
      <point x="-320" y="1347"/>
      <point x="-282" y="1381"/>
      <point x="-282" y="1434" type="curve" smooth="yes"/>
      <point x="-282" y="1484"/>
      <point x="-321" y="1522"/>
      <point x="-372" y="1522" type="curve" smooth="yes"/>
      <point x="-423" y="1522"/>
      <point x="-460" y="1485"/>
      <point x="-460" y="1434" type="curve" smooth="yes"/>
      <point x="-460" y="1386"/>
      <point x="-422" y="1347"/>
    </contour>
  </outline>
</glyph>
<glyph name="uni0EB4" format="1">
  <advance width="0"/>
  <unicode hex="0eb4"/>
  <outline>
    <contour>
      <point x="-586" y="1681" type="curve" smooth="yes"/>
      <point x="-368" y="1681"/>
      <point x="-129" y="1619"/>
      <point x="-129" y="1409" type="curve" smooth="yes"/>
      <point x="-129" y="1239"/>
      <point x="-272" y="1176"/>
      <point x="-460" y="1176" type="curve" smooth="yes"/>
      <point x="-501" y="1176" type="line" smooth="no"/>
      <point x="-501" y="1325" type="line" smooth="no"/>
      <point x="-458" y="1325" type="line" smooth="no"/>
      <point x="-377" y="1330"/>
      <point x="-335" y="1358"/>
      <point x="-331" y="1409" type="curve" smooth="no"/>
      <point x="-331" y="1518"/>
      <point x="-454" y="1527"/>
      <point x="-586" y="1527" type="curve" smooth="yes"/>
      <point x="-722" y="1527"/>
      <point x="-839" y="1515"/>
      <point x="-842" y="1409" type="curve" smooth="no"/>
      <point x="-841" y="1353"/>
      <point x="-798" y="1325"/>
      <point x="-713" y="1325" type="curve" smooth="yes"/>
      <point x="-668" y="1325" type="line" smooth="no"/>
      <point x="-668" y="1176" type="line" smooth="no"/>
      <point x="-711" y="1176" type="line" smooth="yes"/>
      <point x="-889" y="1176"/>
      <point x="-1043" y="1235"/>
      <point x="-1043" y="1409" type="curve" smooth="yes"/>
      <point x="-1043" y="1616"/>
      <point x="-798" y="1681"/>
    </contour>
  </outline>
</glyph>
<glyph name="uni0EB5" format="1">
  <advance width="0"/>
  <unicode hex="0eb5"/>
  <outline>
    <contour>
      <point x="-737" y="1681" type="curve" smooth="yes"/>
      <point x="-525" y="1681"/>
      <point x="-284" y="1618"/>
      <point x="-281" y="1418" type="curve" smooth="no"/>
      <point x="-282" y="1379"/>
      <point x="-300" y="1348"/>
      <point x="-333" y="1325" type="curve" smooth="no"/>
      <point x="-130" y="1325" type="line" smooth="no"/>
      <point x="-130" y="1176" type="line" smooth="no"/>
      <point x="-652" y="1176" type="line" smooth="no"/>
      <point x="-652" y="1325" type="line" smooth="no"/>
      <point x="-610" y="1325" type="line" smooth="yes"/>
      <point x="-526" y="1325"/>
      <point x="-484" y="1353"/>
      <point x="-484" y="1409" type="curve" smooth="yes"/>
      <point x="-484" y="1488"/>
      <point x="-568" y="1527"/>
      <point x="-737" y="1527" type="curve" smooth="yes"/>
      <point x="-872" y="1527"/>
      <point x="-994" y="1517"/>
      <point x="-994" y="1409" type="curve" smooth="yes"/>
      <point x="-994" y="1353"/>
      <point x="-951" y="1325"/>
      <point x="-866" y="1325" type="curve" smooth="yes"/>
      <point x="-822" y="1325" type="line" smooth="no"/>
      <point x="-822" y="1176" type="line" smooth="no"/>
      <point x="-863" y="1176" type="line" smooth="yes"/>
      <point x="-1041" y="1176"/>
      <point x="-1195" y="1235"/>
      <point x="-1195" y="1409" type="curve" smooth="yes"/>
      <point x="-1195" y="1615"/>
      <point x="-949" y="1681"/>
    </contour>
  </outline>
</glyph>
<glyph name="uni0EB7" format="1">
  <advance width="0"/>
  <unicode hex="0eb7"/>
  <outline>
    <contour>
      <point x="-737" y="1527" type="curve" smooth="yes"/>
      <point x="-858" y="1527"/>
      <point x="-990" y="1520"/>
      <point x="-994" y="1409" type="curve" smooth="no"/>
      <point x="-994" y="1353"/>
      <point x="-951" y="1325"/>
      <point x="-866" y="1325" type="curve" smooth="yes"/>
      <point x="-855" y="1325" type="line" smooth="no"/>
      <point x="-855" y="1176" type="line" smooth="no"/>
      <point x="-863" y="1176" type="line" smooth="yes"/>
      <point x="-1041" y="1176"/>
      <point x="-1195" y="1235"/>
      <point x="-1195" y="1409" type="curve" smooth="yes"/>
      <point x="-1195" y="1615"/>
      <point x="-949" y="1681"/>
      <point x="-737" y="1681" type="curve" smooth="yes"/>
      <point x="-527" y="1681"/>
      <point x="-280" y="1618"/>
      <point x="-280" y="1418" type="curve" smooth="yes"/>
      <point x="-280" y="1377"/>
      <point x="-297" y="1345"/>
      <point x="-332" y="1324" type="curve" smooth="no"/>
      <point x="-129" y="1324" type="line" smooth="no"/>
      <point x="-129" y="1176" type="line" smooth="no"/>
      <point x="-619" y="1176" type="line" smooth="no"/>
      <point x="-619" y="1325" type="line" smooth="no"/>
      <point x="-610" y="1325" type="line" smooth="yes"/>
      <point x="-533" y="1325"/>
      <point x="-484" y="1342"/>
      <point x="-484" y="1409" type="curve" smooth="yes"/>
      <point x="-484" y="1488"/>
      <point x="-568" y="1527"/>
    </contour>
    <contour>
      <point x="-736" y="1315" type="curve" smooth="yes"/>
      <point x="-686" y="1315"/>
      <point x="-651" y="1342"/>
      <point x="-647" y="1390" type="curve" smooth="no"/>
      <point x="-647" y="1433"/>
      <point x="-689" y="1459"/>
      <point x="-736" y="1459" type="curve" smooth="yes"/>
      <point x="-785" y="1459"/>
      <point x="-820" y="1436"/>
      <point x="-824" y="1390" type="curve" smooth="no"/>
      <point x="-824" y="1345"/>
      <point x="-784" y="1315"/>
    </contour>
  </outline>
</glyph>
<glyph name="uni0EB8" format="1">
  <advance width="0"/>
  <unicode hex="0eb8"/>
  <outline>
    <contour>
      <point x="-503" y="-241" type="curve" smooth="yes"/>
      <point x="-503" y="-133"/>
      <point x="-423" y="-86"/>
      <point x="-307" y="-86" type="curve" smooth="yes"/>
      <point x="-192" y="-86"/>
      <point x="-95" y="-138"/>
      <point x="-95" y="-252" type="curve" smooth="yes"/>
      <point x="-95" y="-411"/>
      <point x="-222" y="-531"/>
      <point x="-318" y="-607" type="curve" smooth="no"/>
      <point x="-425" y="-513" type="line" smooth="no"/>
      <point x="-379" y="-461"/>
      <point x="-343" y="-421"/>
      <point x="-307" y="-364" type="curve" smooth="no"/>
      <point x="-334" y="-368" type="line" smooth="yes"/>
      <point x="-349" y="-370"/>
      <point x="-360" y="-372"/>
      <point x="-372" y="-372" type="curve" smooth="yes"/>
      <point x="-455" y="-371"/>
      <point x="-503" y="-327"/>
    </contour>
    <contour>
      <point x="-381" y="-241" type="curve" smooth="yes"/>
      <point x="-381" y="-275"/>
      <point x="-362" y="-297"/>
      <point x="-328" y="-297" type="curve" smooth="yes"/>
      <point x="-274" y="-297" type="line" smooth="no"/>
      <point x="-266" y="-275"/>
      <point x="-262" y="-254"/>
      <point x="-262" y="-234" type="curve" smooth="yes"/>
      <point x="-262" y="-198"/>
      <point x="-288" y="-182"/>
      <point x="-327" y="-182" type="curve" smooth="yes"/>
      <point x="-363" y="-182"/>
      <point x="-381" y="-205"/>
    </contour>
  </outline>
</glyph>
<glyph name="uni0EB9" format="1">
  <advance width="0"/>
  <unicode hex="0eb9"/>
  <outline>
    <contour>
      <point x="-662" y="-306" type="curve" smooth="yes"/>
      <point x="-662" y="-344"/>
      <point x="-632" y="-366"/>
      <point x="-594" y="-366" type="curve" smooth="yes"/>
      <point x="-534" y="-366" type="line" smooth="no"/>
      <point x="-537" y="-306" type="line" smooth="yes"/>
      <point x="-538" y="-279"/>
      <point x="-573" y="-261"/>
      <point x="-597" y="-256" type="curve" smooth="no"/>
      <point x="-631" y="-256"/>
      <point x="-662" y="-275"/>
    </contour>
    <contour>
      <point x="-335" y="-670" type="curve" smooth="yes"/>
      <point x="-467" y="-670"/>
      <point x="-565" y="-627"/>
      <point x="-565" y="-506" type="curve" smooth="yes"/>
      <point x="-565" y="-499"/>
      <point x="-564" y="-487"/>
      <point x="-562" y="-472" type="curve" smooth="yes"/>
      <point x="-556" y="-432" type="line" smooth="no"/>
      <point x="-575" y="-451"/>
      <point x="-593" y="-460"/>
      <point x="-612" y="-460" type="curve" smooth="yes"/>
      <point x="-710" y="-460"/>
      <point x="-790" y="-408"/>
      <point x="-790" y="-312" type="curve" smooth="yes"/>
      <point x="-790" y="-199"/>
      <point x="-711" y="-135"/>
      <point x="-598" y="-135" type="curve" smooth="yes"/>
      <point x="-480" y="-135"/>
      <point x="-387" y="-195"/>
      <point x="-387" y="-312" type="curve" smooth="yes"/>
      <point x="-387" y="-376"/>
      <point x="-421" y="-408"/>
      <point x="-421" y="-472" type="curve" smooth="yes"/>
      <point x="-421" y="-520"/>
      <point x="-384" y="-541"/>
      <point x="-339" y="-547" type="curve" smooth="no"/>
      <point x="-251.956" y="-547"/>
      <point x="-251" y="-498.217"/>
      <point x="-251" y="-410.942" type="curve" smooth="yes"/>
      <point x="-251" y="-408.981"/>
      <point x="-251" y="-407"/>
      <point x="-251" y="-405" type="curve" smooth="yes"/>
      <point x="-251" y="-142" type="line" smooth="no"/>
      <point x="-99" y="-142" type="line" smooth="no"/>
      <point x="-99" y="-394" type="line" smooth="yes"/>
      <point x="-99" y="-575"/>
      <point x="-155" y="-670"/>
    </contour>
  </outline>
</glyph>
<glyph name="uni0EBB" format="1">
  <advance width="0"/>
  <unicode hex="0ebb"/>
  <outline>
    <contour>
      <point x="-1106" y="1414" type="curve" smooth="yes"/>
      <point x="-1106" y="1579"/>
      <point x="-935" y="1608"/>
      <point x="-741" y="1608" type="curve" smooth="yes"/>
      <point x="-533" y="1608" type="line" smooth="yes"/>
      <point x="-220" y="1608"/>
      <point x="-94" y="1487"/>
      <point x="-91" y="1176" type="curve" smooth="no"/>
      <point x="-291" y="1176" type="line" smooth="no"/>
      <point x="-291" y="1361"/>
      <point x="-305" y="1446"/>
      <point x="-489" y="1446" type="curve" smooth="yes"/>
      <point x="-720" y="1446" type="line" smooth="no"/>
      <point x="-703" y="1392" type="line" smooth="yes"/>
      <point x="-696" y="1372"/>
      <point x="-693" y="1352"/>
      <point x="-693" y="1333" type="curve" smooth="yes"/>
      <point x="-693" y="1234"/>
      <point x="-785" y="1176"/>
      <point x="-886" y="1176" type="curve" smooth="yes"/>
      <point x="-1035" y="1176"/>
      <point x="-1106" y="1260"/>
    </contour>
    <contour>
      <point x="-953" y="1384" type="curve" smooth="no"/>
      <point x="-953" y="1346"/>
      <point x="-925" y="1324"/>
      <point x="-884" y="1324" type="curve" smooth="yes"/>
      <point x="-838" y="1324"/>
      <point x="-807" y="1343"/>
      <point x="-807" y="1388" type="curve" smooth="yes"/>
      <point x="-807" y="1446" type="line" smooth="no"/>
      <point x="-866" y="1446" type="line" smooth="no"/>
      <point x="-921" y="1441"/>
      <point x="-950" y="1420"/>
    </contour>
  </outline>
</glyph>
<glyph name="uni0EBC" format="1">
  <advance width="0"/>
  <unicode hex="0ebc"/>
  <outline>
    <contour>
      <point x="-1015" y="-379" type="curve" smooth="no"/>
      <point x="-975" y="-376"/>
      <point x="-951" y="-356"/>
      <point x="-951" y="-313" type="curve" smooth="yes"/>
      <point x="-951" y="-231" type="line" smooth="no"/>
      <point x="-1026" y="-241"/>
      <point x="-1064" y="-268"/>
      <point x="-1065" y="-312" type="curve" smooth="no"/>
      <point x="-1061" y="-355"/>
      <point x="-1044" y="-377"/>
    </contour>
    <contour>
      <point x="-1005" y="-536" type="curve" smooth="yes"/>
      <point x="-1141" y="-536"/>
      <point x="-1214" y="-447"/>
      <point x="-1214" y="-306" type="curve" smooth="yes"/>
      <point x="-1214" y="-146"/>
      <point x="-1083" y="-78"/>
      <point x="-919" y="-78" type="curve" smooth="yes"/>
      <point x="-718" y="-78"/>
      <point x="-561" y="-260"/>
      <point x="-430" y="-345" type="curve" smooth="yes"/>
      <point x="-411" y="-358"/>
      <point x="-407" y="-361"/>
      <point x="-385" y="-361" type="curve" smooth="yes"/>
      <point x="-307.636" y="-361"/>
      <point x="-295.441" y="-289.494"/>
      <point x="-295.441" y="-204.633" type="curve" smooth="yes"/>
      <point x="-295.441" y="-165.566"/>
      <point x="-298.026" y="-123.669"/>
      <point x="-298.026" y="-84.6149" type="curve" smooth="yes"/>
      <point x="-298.026" y="-82.4004"/>
      <point x="-298.018" y="-80.1951"/>
      <point x="-298" y="-78" type="curve" smooth="no"/>
      <point x="-113" y="-78" type="line" smooth="no"/>
      <point x="-113" y="-326"/>
      <point x="-121" y="-532"/>
      <point x="-370" y="-532" type="curve" smooth="yes"/>
      <point x="-598" y="-532"/>
      <point x="-694" y="-298"/>
      <point x="-861" y="-233" type="curve" smooth="no"/>
      <point x="-836" y="-337" type="line" smooth="yes"/>
      <point x="-833" y="-353"/>
      <point x="-831" y="-370"/>
      <point x="-831" y="-388" type="curve" smooth="yes"/>
      <point x="-831" y="-485"/>
      <point x="-904" y="-536"/>
    </contour>
  </outline>
</glyph>
<glyph name="uni0EBD" format="1">
  <advance width="1192"/>
  <unicode hex="0ebd"/>
  <outline>
    <contour>
      <point x="431" y="208" type="curve" smooth="yes"/>
      <point x="431" y="246"/>
      <point x="413" y="271"/>
      <point x="379" y="272" type="curve" smooth="no"/>
      <point x="331" y="272"/>
      <point x="323" y="227"/>
      <point x="323" y="172" type="curve" smooth="yes"/>
      <point x="323" y="147" type="line" smooth="no"/>
      <point x="371" y="147" type="line" smooth="yes"/>
      <point x="415" y="147"/>
      <point x="431" y="165"/>
    </contour>
    <contour>
      <point x="195" y="1071" type="curve" smooth="yes"/>
      <point x="195" y="1242"/>
      <point x="309" y="1335"/>
      <point x="481" y="1335" type="curve" smooth="yes"/>
      <point x="627" y="1335"/>
      <point x="787" y="1177"/>
      <point x="924" y="1177" type="curve" smooth="yes"/>
      <point x="983" y="1177"/>
      <point x="1012" y="1230"/>
      <point x="1012" y="1335" type="curve" smooth="no"/>
      <point x="1210" y="1335" type="line" smooth="no"/>
      <point x="1210" y="1121"/>
      <point x="1138" y="1002"/>
      <point x="930" y="1002" type="curve" smooth="yes"/>
      <point x="781" y="1002"/>
      <point x="618" y="1092"/>
      <point x="501" y="1144" type="curve" smooth="no"/>
      <point x="452" y="1143"/>
      <point x="416" y="1123"/>
      <point x="416" y="1075" type="curve" smooth="yes"/>
      <point x="416" y="1038"/>
      <point x="444" y="1005"/>
      <point x="500" y="974" type="curve" smooth="no"/>
      <point x="896" y="782" type="line" smooth="yes"/>
      <point x="1032" y="715"/>
      <point x="1101" y="653"/>
      <point x="1101" y="452" type="curve" smooth="yes"/>
      <point x="1101" y="85" type="line" smooth="yes"/>
      <point x="1101" y="-244"/>
      <point x="898" y="-378"/>
      <point x="557" y="-378" type="curve" smooth="yes"/>
      <point x="259" y="-378"/>
      <point x="56" y="-211"/>
      <point x="56" y="85" type="curve" smooth="yes"/>
      <point x="56" y="271"/>
      <point x="169" y="393"/>
      <point x="355" y="393" type="curve" smooth="yes"/>
      <point x="494" y="393"/>
      <point x="584" y="341"/>
      <point x="584" y="207" type="curve" smooth="yes"/>
      <point x="584" y="91"/>
      <point x="527" y="34"/>
      <point x="407" y="34" type="curve" smooth="yes"/>
      <point x="388" y="34"/>
      <point x="360" y="37"/>
      <point x="323" y="43" type="curve" smooth="no"/>
      <point x="326" y="-133"/>
      <point x="410" y="-211"/>
      <point x="588" y="-211" type="curve" smooth="yes"/>
      <point x="776" y="-211"/>
      <point x="834" y="-117"/>
      <point x="834" y="71" type="curve" smooth="yes"/>
      <point x="834" y="349" type="line" smooth="yes"/>
      <point x="834" y="512"/>
      <point x="812" y="594"/>
      <point x="704" y="646" type="curve" smooth="yes"/>
      <point x="421" y="785" type="line" smooth="yes"/>
      <point x="299" y="844"/>
      <point x="195" y="899"/>
    </contour>
  </outline>
</glyph>
<glyph name="uni0EC0" format="1">
  <advance width="701"/>
  <unicode hex="0ec0"/>
  <outline>
    <contour>
      <point x="472" y="360" type="curve" smooth="yes"/>
      <point x="572" y="360"/>
      <point x="635" y="285"/>
      <point x="635" y="184" type="curve" smooth="yes"/>
      <point x="635" y="61"/>
      <point x="554" y="0"/>
      <point x="393" y="0" type="curve" smooth="yes"/>
      <point x="216" y="0"/>
      <point x="96" y="128"/>
      <point x="96" y="305" type="curve" smooth="yes"/>
      <point x="96" y="615" type="line" smooth="yes"/>
      <point x="96" y="907"/>
      <point x="169" y="1103"/>
      <point x="455" y="1103" type="curve" smooth="yes"/>
      <point x="520" y="1103"/>
      <point x="561" y="1093"/>
      <point x="629" y="1080" type="curve" smooth="no"/>
      <point x="629" y="900" type="line" smooth="no"/>
      <point x="583" y="908"/>
      <point x="538" y="922"/>
      <point x="486" y="922" type="curve" smooth="yes"/>
      <point x="363.877" y="922"/>
      <point x="361.998" y="807.392"/>
      <point x="361.998" y="681.974" type="curve" smooth="yes"/>
      <point x="361.998" y="677.992"/>
      <point x="362" y="674"/>
      <point x="362" y="670" type="curve" smooth="yes"/>
      <point x="362" y="342" type="line" smooth="no"/>
      <point x="418" y="354"/>
      <point x="455" y="360"/>
    </contour>
    <contour>
      <point x="363" y="232" type="line" smooth="yes"/>
      <point x="363" y="179"/>
      <point x="370" y="121"/>
      <point x="414" y="121" type="curve" smooth="yes"/>
      <point x="450" y="121"/>
      <point x="468" y="141"/>
      <point x="469" y="182" type="curve" smooth="no"/>
      <point x="469" y="226"/>
      <point x="450" y="246"/>
      <point x="408" y="246" type="curve" smooth="yes"/>
      <point x="363" y="246" type="line" smooth="no"/>
    </contour>
  </outline>
</glyph>
<glyph name="uni0EC2" format="1">
  <advance width="769"/>
  <unicode hex="0ec2"/>
  <outline>
    <contour>
      <point x="458" y="139" type="curve" smooth="yes"/>
      <point x="498" y="139"/>
      <point x="520" y="169"/>
      <point x="520" y="212" type="curve" smooth="yes"/>
      <point x="520" y="256"/>
      <point x="495" y="283"/>
      <point x="450" y="283" type="curve" smooth="yes"/>
      <point x="399" y="283" type="line" smooth="no"/>
      <point x="399" y="230" type="line" smooth="yes"/>
      <point x="399" y="175"/>
      <point x="410" y="139"/>
    </contour>
    <contour>
      <point x="423" y="0" type="curve" smooth="yes"/>
      <point x="222" y="0"/>
      <point x="132" y="145"/>
      <point x="132" y="348" type="curve" smooth="yes"/>
      <point x="132" y="978" type="line" smooth="yes"/>
      <point x="132" y="985.2"/>
      <point x="132.003" y="992.251"/>
      <point x="132.003" y="999.159" type="curve" smooth="yes"/>
      <point x="132.003" y="1164.96"/>
      <point x="130.16" y="1248.4"/>
      <point x="38" y="1330" type="curve" smooth="yes"/>
      <point x="3" y="1361" type="line" smooth="yes"/>
      <point x="-72" y="1427"/>
      <point x="-127" y="1467"/>
      <point x="-127" y="1601" type="curve" smooth="yes"/>
      <point x="-127" y="1735"/>
      <point x="-20" y="1862"/>
      <point x="113" y="1862" type="curve" smooth="yes"/>
      <point x="326" y="1862"/>
      <point x="422" y="1746"/>
      <point x="538" y="1635" type="curve" smooth="yes"/>
      <point x="756" y="1427" type="line" smooth="no"/>
      <point x="633" y="1267" type="line" smooth="no"/>
      <point x="503" y="1396" type="line" smooth="no"/>
      <point x="448" y="1449"/>
      <point x="388" y="1501"/>
      <point x="321" y="1558" type="curve" smooth="no"/>
      <point x="282" y="1596"/>
      <point x="231" y="1650"/>
      <point x="166" y="1650" type="curve" smooth="yes"/>
      <point x="127" y="1650"/>
      <point x="102" y="1615"/>
      <point x="102" y="1573" type="curve" smooth="yes"/>
      <point x="102" y="1536"/>
      <point x="144" y="1503"/>
      <point x="172" y="1477" type="curve" smooth="no"/>
      <point x="246" y="1414" type="line" smooth="yes"/>
      <point x="357" y="1319"/>
      <point x="399" y="1229"/>
      <point x="399" y="1020" type="curve" smooth="yes"/>
      <point x="399" y="384" type="line" smooth="no"/>
      <point x="456" y="399"/>
      <point x="493" y="407"/>
      <point x="510" y="407" type="curve" smooth="yes"/>
      <point x="624" y="407"/>
      <point x="702" y="321"/>
      <point x="702" y="207" type="curve" smooth="yes"/>
      <point x="702" y="59"/>
      <point x="574" y="0"/>
    </contour>
  </outline>
</glyph>
<glyph name="uni0EC3" format="1">
  <advance width="884"/>
  <unicode hex="0ec3"/>
  <outline>
    <contour>
      <point x="533" y="139" type="curve" smooth="yes"/>
      <point x="572" y="139"/>
      <point x="592" y="171"/>
      <point x="592" y="213" type="curve" smooth="yes"/>
      <point x="592" y="258"/>
      <point x="564" y="284"/>
      <point x="518" y="284" type="curve" smooth="yes"/>
      <point x="470" y="284" type="line" smooth="no"/>
      <point x="470" y="233" type="line" smooth="yes"/>
      <point x="470" y="176"/>
      <point x="482" y="139"/>
    </contour>
    <contour>
      <point x="316" y="1492" type="curve" smooth="yes"/>
      <point x="316" y="1547"/>
      <point x="269" y="1621"/>
      <point x="228" y="1637" type="curve" smooth="no"/>
      <point x="408" y="1637" type="line" smooth="no"/>
      <point x="458" y="1588"/>
      <point x="483" y="1539"/>
      <point x="484" y="1488" type="curve" smooth="no"/>
      <point x="484" y="1336"/>
      <point x="349" y="1260"/>
      <point x="194" y="1260" type="curve" smooth="yes"/>
      <point x="-4" y="1260"/>
      <point x="-178" y="1358"/>
      <point x="-178" y="1555" type="curve" smooth="yes"/>
      <point x="-178" y="1839"/>
      <point x="39" y="1930"/>
      <point x="348" y="1930" type="curve" smooth="yes"/>
      <point x="672" y="1930"/>
      <point x="890" y="1836"/>
      <point x="890" y="1517" type="curve" smooth="yes"/>
      <point x="890" y="1245"/>
      <point x="702" y="1138"/>
      <point x="549" y="1008" type="curve" smooth="yes"/>
      <point x="471" y="942"/>
      <point x="470" y="855"/>
      <point x="470" y="705" type="curve" smooth="yes"/>
      <point x="470" y="383" type="line" smooth="no"/>
      <point x="524" y="398"/>
      <point x="561" y="406"/>
      <point x="582" y="406" type="curve" smooth="yes"/>
      <point x="694" y="406"/>
      <point x="775" y="319"/>
      <point x="775" y="207" type="curve" smooth="yes"/>
      <point x="775" y="58"/>
      <point x="646" y="0"/>
      <point x="494" y="0" type="curve" smooth="yes"/>
      <point x="287" y="0"/>
      <point x="202" y="128"/>
      <point x="202" y="345" type="curve" smooth="yes"/>
      <point x="202" y="741" type="line" smooth="yes"/>
      <point x="202" y="938"/>
      <point x="222" y="1040"/>
      <point x="331" y="1125" type="curve" smooth="yes"/>
      <point x="482" y="1243" type="line" smooth="yes"/>
      <point x="575" y="1315"/>
      <point x="666" y="1406"/>
      <point x="666" y="1542" type="curve" smooth="yes"/>
      <point x="666" y="1699"/>
      <point x="524" y="1745"/>
      <point x="350" y="1745" type="curve" smooth="yes"/>
      <point x="174" y="1745"/>
      <point x="35" y="1701"/>
      <point x="35" y="1544" type="curve" smooth="yes"/>
      <point x="35" y="1448"/>
      <point x="91" y="1400"/>
      <point x="204" y="1400" type="curve" smooth="yes"/>
      <point x="271" y="1400"/>
      <point x="316" y="1427"/>
    </contour>
  </outline>
</glyph>
<glyph name="uni0EC9" format="1">
  <advance width="0"/>
  <unicode hex="0ec9"/>
  <outline>
    <contour>
      <point x="-894" y="1609" type="curve" smooth="no"/>
      <point x="-940" y="1609"/>
      <point x="-966" y="1593"/>
      <point x="-966" y="1550" type="curve" smooth="no"/>
      <point x="-964" y="1520"/>
      <point x="-922" y="1504"/>
      <point x="-839" y="1501" type="curve" smooth="no"/>
      <point x="-839" y="1513" type="line" smooth="no"/>
      <point x="-844" y="1572"/>
      <point x="-863" y="1604"/>
    </contour>
    <contour>
      <point x="-1095" y="1554" type="curve" smooth="yes"/>
      <point x="-1095" y="1668"/>
      <point x="-1015" y="1732"/>
      <point x="-897" y="1732" type="curve" smooth="yes"/>
      <point x="-762" y="1732"/>
      <point x="-677" y="1661"/>
      <point x="-677" y="1526" type="curve" smooth="yes"/>
      <point x="-677" y="1451"/>
      <point x="-707" y="1420"/>
      <point x="-757" y="1388" type="curve" smooth="no"/>
      <point x="-783" y="1374" type="line" smooth="no"/>
      <point x="-534" y="1374" type="line" smooth="yes"/>
      <point x="-289" y="1374"/>
      <point x="-255" y="1417"/>
      <point x="-249" y="1661" type="curve" smooth="no"/>
      <point x="-52" y="1661" type="line" smooth="no"/>
      <point x="-52" y="1586" type="line" smooth="yes"/>
      <point x="-52" y="1268"/>
      <point x="-215" y="1217"/>
      <point x="-536" y="1217" type="curve" smooth="yes"/>
      <point x="-1061" y="1217" type="line" smooth="no"/>
      <point x="-1061" y="1292" type="line" smooth="no"/>
      <point x="-978" y="1323"/>
      <point x="-874" y="1324"/>
      <point x="-851" y="1415" type="curve" smooth="no"/>
      <point x="-868" y="1408"/>
      <point x="-893" y="1405"/>
      <point x="-925" y="1405" type="curve" smooth="yes"/>
      <point x="-1020" y="1405"/>
      <point x="-1095" y="1460"/>
    </contour>
  </outline>
</glyph>
<glyph name="uni0ECB" format="1">
  <advance width="0"/>
  <unicode hex="0ecb"/>
  <outline>
    <contour>
      <point x="-562" y="1262" type="line" smooth="no"/>
      <point x="-676" y="1262" type="line" smooth="no"/>
      <point x="-676" y="1374" type="line" smooth="no"/>
      <point x="-790" y="1374" type="line" smooth="no"/>
      <point x="-790" y="1480" type="line" smooth="no"/>
      <point x="-676" y="1480" type="line" smooth="no"/>
      <point x="-676" y="1593" type="line" smooth="no"/>
      <point x="-562" y="1593" type="line" smooth="no"/>
      <point x="-562" y="1480" type="line" smooth="no"/>
      <point x="-448" y="1480" type="line" smooth="no"/>
      <point x="-448" y="1374" type="line" smooth="no"/>
      <point x="-562" y="1374" type="line" smooth="no"/>
    </contour>
  </outline>
</glyph>
<glyph name="uni0ECC" format="1">
  <advance width="0"/>
  <unicode hex="0ecc"/>
  <outline>
    <contour>
      <point x="-729" y="1387" type="curve" smooth="yes"/>
      <point x="-729" y="1517"/>
      <point x="-638" y="1570"/>
      <point x="-500" y="1570" type="curve" smooth="yes"/>
      <point x="-375" y="1570" type="line" smooth="yes"/>
      <point x="-319" y="1570"/>
      <point x="-302" y="1589"/>
      <point x="-302" y="1645" type="curve" smooth="no"/>
      <point x="-163" y="1645" type="line" smooth="no"/>
      <point x="-168" y="1482"/>
      <point x="-219" y="1417"/>
      <point x="-385" y="1417" type="curve" smooth="yes"/>
      <point x="-455" y="1417" type="line" smooth="no"/>
      <point x="-438" y="1358" type="line" smooth="no"/>
      <point x="-435" y="1353"/>
      <point x="-434" y="1342"/>
      <point x="-434" y="1325" type="curve" smooth="yes"/>
      <point x="-434" y="1253"/>
      <point x="-500" y="1215"/>
      <point x="-576" y="1215" type="curve" smooth="yes"/>
      <point x="-681" y="1215"/>
      <point x="-729" y="1279"/>
    </contour>
    <contour>
      <point x="-574" y="1316" type="curve" smooth="yes"/>
      <point x="-540" y="1316"/>
      <point x="-517" y="1332"/>
      <point x="-517" y="1365" type="curve" smooth="yes"/>
      <point x="-517" y="1417" type="line" smooth="no"/>
      <point x="-551" y="1417" type="line" smooth="yes"/>
      <point x="-603" y="1417"/>
      <point x="-632" y="1410"/>
      <point x="-632" y="1365" type="curve" smooth="yes"/>
      <point x="-632" y="1333"/>
      <point x="-608" y="1316"/>
    </contour>
  </outline>
</glyph>
<glyph name="uni0ECD" format="1">
  <advance width="0"/>
  <unicode hex="0ecd"/>
  <outline>
    <contour>
      <point x="-599" y="1346" type="curve" smooth="yes"/>
      <point x="-551" y="1346"/>
      <point x="-514" y="1381"/>
      <point x="-514" y="1431" type="curve" smooth="yes"/>
      <point x="-514" y="1479"/>
      <point x="-551" y="1515"/>
      <point x="-599" y="1515" type="curve" smooth="yes"/>
      <point x="-648" y="1515"/>
      <point x="-686" y="1479"/>
      <point x="-686" y="1431" type="curve" smooth="yes"/>
      <point x="-686" y="1384"/>
      <point x="-648" y="1346"/>
    </contour>
    <contour>
      <point x="-377" y="1428" type="curve" smooth="yes"/>
      <point x="-377" y="1304"/>
      <point x="-475" y="1213"/>
      <point x="-599" y="1213" type="curve" smooth="yes"/>
      <point x="-724" y="1213"/>
      <point x="-822" y="1303"/>
      <point x="-822" y="1428" type="curve" smooth="yes"/>
      <point x="-822" y="1553"/>
      <point x="-724" y="1645"/>
      <point x="-599" y="1645" type="curve" smooth="yes"/>
      <point x="-474" y="1645"/>
      <point x="-377" y="1553"/>
    </contour>
  </outline>
</glyph>
<glyph name="uni0ED0" format="1">
  <advance width="1216"/>
  <unicode hex="0ed0"/>
  <outline>
    <contour>
      <point x="72" y="604" type="curve" smooth="yes"/>
      <point x="72" y="934"/>
      <point x="276" y="1192"/>
      <point x="608" y="1192" type="curve" smooth="yes"/>
      <point x="940" y="1192"/>
      <point x="1144" y="934"/>
      <point x="1144" y="604" type="curve" smooth="yes"/>
      <point x="1144" y="241"/>
      <point x="964" y="-11"/>
      <point x="608" y="-11" type="curve" smooth="yes"/>
      <point x="252" y="-11"/>
      <point x="72" y="241"/>
    </contour>
    <contour>
      <point x="286" y="601" type="curve" smooth="yes"/>
      <point x="286" y="374"/>
      <point x="388" y="180"/>
      <point x="608" y="180" type="curve" smooth="yes"/>
      <point x="828" y="180"/>
      <point x="930" y="374"/>
      <point x="930" y="601" type="curve" smooth="yes"/>
      <point x="930" y="817"/>
      <point x="824" y="999"/>
      <point x="608" y="999" type="curve" smooth="yes"/>
      <point x="392" y="999"/>
      <point x="286" y="817"/>
    </contour>
  </outline>
</glyph>
<glyph name="uni0ED1" format="1">
  <advance width="1304"/>
  <unicode hex="0ed1"/>
  <outline>
    <contour>
      <point x="450" y="619" type="curve" smooth="yes"/>
      <point x="450" y="746"/>
      <point x="535" y="802"/>
      <point x="669" y="802" type="curve" smooth="yes"/>
      <point x="797" y="802"/>
      <point x="879" y="731"/>
      <point x="879" y="603" type="curve" smooth="yes"/>
      <point x="879" y="444"/>
      <point x="751" y="386"/>
      <point x="575" y="386" type="curve" smooth="yes"/>
      <point x="329" y="386"/>
      <point x="76" y="500"/>
      <point x="76" y="740" type="curve" smooth="yes"/>
      <point x="76" y="1042"/>
      <point x="319" y="1193"/>
      <point x="625" y="1193" type="curve" smooth="yes"/>
      <point x="998" y="1193"/>
      <point x="1280" y="999"/>
      <point x="1280" y="631" type="curve" smooth="yes"/>
      <point x="1280" y="222"/>
      <point x="912" y="-31"/>
      <point x="510" y="-31" type="curve" smooth="no"/>
      <point x="510" y="115" type="line" smooth="no"/>
      <point x="783" y="131"/>
      <point x="1012" y="338"/>
      <point x="1012" y="625" type="curve" smooth="yes"/>
      <point x="1012" y="863"/>
      <point x="870" y="998"/>
      <point x="632" y="998" type="curve" smooth="yes"/>
      <point x="439" y="998"/>
      <point x="343" y="912"/>
      <point x="343" y="740" type="curve" smooth="yes"/>
      <point x="343" y="647"/>
      <point x="384" y="584"/>
      <point x="465" y="551" type="curve" smooth="no"/>
      <point x="455" y="583"/>
      <point x="450" y="606"/>
    </contour>
    <contour>
      <point x="652" y="677" type="curve" smooth="no"/>
      <point x="611" y="677"/>
      <point x="591" y="654"/>
      <point x="591" y="608" type="curve" smooth="yes"/>
      <point x="591" y="533" type="line" smooth="no"/>
      <point x="672" y="537"/>
      <point x="712" y="563"/>
      <point x="712" y="612" type="curve" smooth="yes"/>
      <point x="712" y="654"/>
      <point x="692" y="676"/>
    </contour>
  </outline>
</glyph>
<glyph name="uni0ED2" format="1">
  <advance width="1372"/>
  <unicode hex="0ed2"/>
  <outline>
    <contour>
      <point x="788" y="553" type="line" smooth="no"/>
      <point x="718" y="547"/>
      <point x="669" y="538"/>
      <point x="669" y="475" type="curve" smooth="no"/>
      <point x="674" y="434"/>
      <point x="693" y="412"/>
      <point x="726" y="409" type="curve" smooth="no"/>
      <point x="767" y="409"/>
      <point x="788" y="433"/>
      <point x="788" y="476" type="curve" smooth="yes"/>
    </contour>
    <contour>
      <point x="713" y="167" type="curve" smooth="yes"/>
      <point x="910" y="167"/>
      <point x="1080" y="208"/>
      <point x="1080" y="377" type="curve" smooth="yes"/>
      <point x="1080" y="477"/>
      <point x="1005" y="533"/>
      <point x="910" y="550" type="curve" smooth="no"/>
      <point x="923" y="504"/>
      <point x="930" y="479"/>
      <point x="930" y="474" type="curve" smooth="yes"/>
      <point x="930" y="348"/>
      <point x="856" y="285"/>
      <point x="708" y="285" type="curve" smooth="yes"/>
      <point x="589" y="285"/>
      <point x="500" y="357"/>
      <point x="500" y="476" type="curve" smooth="yes"/>
      <point x="500" y="644"/>
      <point x="669" y="712"/>
      <point x="842" y="712" type="curve" smooth="yes"/>
      <point x="1098" y="712"/>
      <point x="1346" y="616"/>
      <point x="1346" y="368" type="curve" smooth="yes"/>
      <point x="1346" y="76"/>
      <point x="1023" y="0"/>
      <point x="689" y="0" type="curve" smooth="yes"/>
      <point x="387" y="0"/>
      <point x="86" y="115"/>
      <point x="86" y="409" type="curve" smooth="yes"/>
      <point x="86" y="864"/>
      <point x="619" y="961"/>
      <point x="838" y="1194" type="curve" smooth="yes"/>
      <point x="891" y="1250"/>
      <point x="923" y="1305"/>
      <point x="923" y="1401" type="curve" smooth="no"/>
      <point x="1123" y="1401" type="line" smooth="no"/>
      <point x="1123" y="930"/>
      <point x="668" y="871"/>
      <point x="436" y="628" type="curve" smooth="yes"/>
      <point x="386" y="576"/>
      <point x="353" y="523"/>
      <point x="353" y="430" type="curve" smooth="yes"/>
      <point x="353" y="255"/>
      <point x="473" y="167"/>
    </contour>
  </outline>
</glyph>
<glyph name="uni0ED3" format="1">
  <advance width="1619"/>
  <unicode hex="0ed3"/>
  <outline>
    <contour>
      <point x="231" y="283" type="curve" smooth="no"/>
      <point x="193" y="280"/>
      <point x="172" y="259"/>
      <point x="172" y="218" type="curve" smooth="yes"/>
      <point x="172" y="175"/>
      <point x="199" y="150"/>
      <point x="252" y="142" type="curve" smooth="no"/>
      <point x="293" y="139" type="line" smooth="no"/>
      <point x="293" y="191" type="line" smooth="yes"/>
      <point x="293" y="252"/>
      <point x="272" y="283"/>
    </contour>
    <contour>
      <point x="5" y="215" type="curve" smooth="yes"/>
      <point x="5" y="341"/>
      <point x="97" y="407"/>
      <point x="225" y="407" type="curve" smooth="yes"/>
      <point x="353" y="407"/>
      <point x="434" y="351"/>
      <point x="434" y="225" type="curve" smooth="yes"/>
      <point x="434" y="206"/>
      <point x="428" y="188"/>
      <point x="423" y="166" type="curve" smooth="no"/>
      <point x="502" y="213"/>
      <point x="541" y="316"/>
      <point x="541" y="476" type="curve" smooth="yes"/>
      <point x="541" y="1104" type="line" smooth="no"/>
      <point x="808" y="1104" type="line" smooth="no"/>
      <point x="808" y="483" type="line" smooth="yes"/>
      <point x="808" y="287"/>
      <point x="860" y="167"/>
      <point x="1053" y="167" type="curve" smooth="yes"/>
      <point x="1229" y="167"/>
      <point x="1285" y="266"/>
      <point x="1285" y="447" type="curve" smooth="yes"/>
      <point x="1285" y="812" type="line" smooth="yes"/>
      <point x="1285" y="1153"/>
      <point x="908" y="1205"/>
      <point x="738" y="1375" type="curve" smooth="yes"/>
      <point x="703" y="1410"/>
      <point x="683" y="1446"/>
      <point x="683" y="1510" type="curve" smooth="yes"/>
      <point x="683" y="1680"/>
      <point x="791" y="1777"/>
      <point x="962" y="1777" type="curve" smooth="yes"/>
      <point x="1123" y="1777"/>
      <point x="1265" y="1652"/>
      <point x="1397" y="1550" type="curve" smooth="yes"/>
      <point x="1513" y="1460" type="line" smooth="no"/>
      <point x="1403" y="1321" type="line" smooth="no"/>
      <point x="1283" y="1410" type="line" smooth="yes"/>
      <point x="1181" y="1485"/>
      <point x="1070" y="1588"/>
      <point x="961" y="1588" type="curve" smooth="yes"/>
      <point x="927" y="1588"/>
      <point x="895" y="1565"/>
      <point x="895" y="1530" type="curve" smooth="yes"/>
      <point x="895" y="1478"/>
      <point x="990" y="1432"/>
      <point x="1027" y="1410" type="curve" smooth="yes"/>
      <point x="1243" y="1279"/>
      <point x="1546" y="1160"/>
      <point x="1546" y="830" type="curve" smooth="yes"/>
      <point x="1546" y="469" type="line" smooth="yes"/>
      <point x="1546" y="148"/>
      <point x="1382" y="0"/>
      <point x="1056" y="0" type="curve" smooth="yes"/>
      <point x="873" y="0"/>
      <point x="708" y="83"/>
      <point x="679" y="236" type="curve" smooth="no"/>
      <point x="639" y="84"/>
      <point x="477" y="0"/>
      <point x="284" y="0" type="curve" smooth="yes"/>
      <point x="129" y="0"/>
      <point x="5" y="63"/>
    </contour>
  </outline>
</glyph>
<glyph name="uni0ED4" format="1">
  <advance width="1392"/>
  <unicode hex="0ed4"/>
  <outline>
    <contour>
      <point x="1049" y="612" type="line" smooth="yes"/>
      <point x="1096" y="612"/>
      <point x="1120" y="637"/>
      <point x="1120" y="685" type="curve" smooth="yes"/>
      <point x="1120" y="734"/>
      <point x="1101" y="758"/>
      <point x="1064" y="758" type="curve" smooth="yes"/>
      <point x="1020" y="758"/>
      <point x="1000" y="727"/>
      <point x="998" y="684" type="curve" smooth="no"/>
      <point x="998" y="679" type="line" smooth="no"/>
      <point x="997" y="678"/>
      <point x="997" y="676"/>
      <point x="997" y="673" type="curve" smooth="yes"/>
      <point x="997" y="654"/>
      <point x="999" y="637"/>
      <point x="1001" y="612" type="curve" smooth="no"/>
    </contour>
    <contour>
      <point x="1025" y="895" type="curve" smooth="yes"/>
      <point x="1191" y="895"/>
      <point x="1285" y="839"/>
      <point x="1286" y="684" type="curve" smooth="yes"/>
      <point x="1286" y="572"/>
      <point x="1205" y="487"/>
      <point x="1092" y="487" type="curve" smooth="yes"/>
      <point x="1068" y="487"/>
      <point x="1046" y="491"/>
      <point x="1027" y="500" type="curve" smooth="no"/>
      <point x="1078" y="363"/>
      <point x="1197" y="262"/>
      <point x="1356" y="229" type="curve" smooth="no"/>
      <point x="1320" y="-2" type="line" smooth="no"/>
      <point x="675" y="-2" type="line" smooth="yes"/>
      <point x="338" y="-2"/>
      <point x="86" y="115"/>
      <point x="86" y="451" type="curve" smooth="yes"/>
      <point x="86" y="762"/>
      <point x="148" y="912"/>
      <point x="359" y="1010" type="curve" smooth="yes"/>
      <point x="772" y="1202" type="line" smooth="yes"/>
      <point x="873" y="1249"/>
      <point x="935" y="1330"/>
      <point x="998" y="1415" type="curve" smooth="no"/>
      <point x="1164" y="1276" type="line" smooth="no"/>
      <point x="1095" y="1176"/>
      <point x="1022" y="1070"/>
      <point x="906" y="1017" type="curve" smooth="no"/>
      <point x="517" y="835" type="line" smooth="no"/>
      <point x="375" y="766"/>
      <point x="352" y="665"/>
      <point x="352" y="455" type="curve" smooth="yes"/>
      <point x="352" y="262"/>
      <point x="438" y="167"/>
      <point x="631" y="167" type="curve" smooth="yes"/>
      <point x="1030" y="167" type="line" smooth="no"/>
      <point x="980" y="196" type="line" smooth="yes"/>
      <point x="850" y="272"/>
      <point x="730" y="398"/>
      <point x="730" y="598" type="curve" smooth="yes"/>
      <point x="730" y="775"/>
      <point x="847" y="895"/>
    </contour>
  </outline>
</glyph>
<glyph name="uni0ED5" format="1">
  <advance width="1394"/>
  <unicode hex="0ed5"/>
  <outline>
    <contour>
      <point x="1121" y="685" type="curve" smooth="yes"/>
      <point x="1121" y="727"/>
      <point x="1105" y="756"/>
      <point x="1065" y="756" type="curve" smooth="yes"/>
      <point x="1020" y="756"/>
      <point x="998" y="725"/>
      <point x="998" y="662" type="curve" smooth="yes"/>
      <point x="998" y="645"/>
      <point x="999" y="628"/>
      <point x="1001" y="612" type="curve" smooth="no"/>
      <point x="1034" y="612" type="line" smooth="yes"/>
      <point x="1090" y="612"/>
      <point x="1121" y="631"/>
    </contour>
    <contour>
      <point x="565" y="1102" type="curve" smooth="yes"/>
      <point x="602" y="1102"/>
      <point x="626" y="1132"/>
      <point x="626" y="1168" type="curve" smooth="yes"/>
      <point x="626" y="1201"/>
      <point x="607" y="1217"/>
      <point x="569" y="1217" type="curve" smooth="yes"/>
      <point x="525" y="1217"/>
      <point x="493" y="1202"/>
      <point x="493" y="1160" type="curve" smooth="yes"/>
      <point x="493" y="1120"/>
      <point x="523" y="1102"/>
    </contour>
    <contour>
      <point x="337" y="1175" type="curve" smooth="yes"/>
      <point x="337" y="1302"/>
      <point x="444" y="1368"/>
      <point x="573" y="1368" type="curve" smooth="yes"/>
      <point x="705" y="1368"/>
      <point x="764" y="1298"/>
      <point x="785" y="1178" type="curve" smooth="no"/>
      <point x="870" y="1216"/>
      <point x="942" y="1319"/>
      <point x="996" y="1389" type="curve" smooth="no"/>
      <point x="1163" y="1255" type="line" smooth="no"/>
      <point x="1105" y="1131"/>
      <point x="1027" y="1048"/>
      <point x="906" y="991" type="curve" smooth="no"/>
      <point x="858" y="961"/>
      <point x="786" y="959"/>
      <point x="698" y="944" type="curve" smooth="no"/>
      <point x="644" y="893"/>
      <point x="589" y="859"/>
      <point x="534" y="840" type="curve" smooth="no"/>
      <point x="403" y="778"/>
      <point x="353" y="704"/>
      <point x="353" y="515" type="curve" smooth="yes"/>
      <point x="353" y="297"/>
      <point x="417" y="167"/>
      <point x="632" y="167" type="curve" smooth="yes"/>
      <point x="1031" y="167" type="line" smooth="no"/>
      <point x="982" y="196" type="line" smooth="yes"/>
      <point x="852" y="274"/>
      <point x="731" y="397"/>
      <point x="731" y="598" type="curve" smooth="yes"/>
      <point x="731" y="784"/>
      <point x="848" y="895"/>
      <point x="1034" y="895" type="curve" smooth="yes"/>
      <point x="1203" y="895"/>
      <point x="1287" y="825"/>
      <point x="1287" y="685" type="curve" smooth="yes"/>
      <point x="1287" y="573"/>
      <point x="1207" y="487"/>
      <point x="1095" y="487" type="curve" smooth="yes"/>
      <point x="1069" y="487"/>
      <point x="1046" y="491"/>
      <point x="1026" y="500" type="curve" smooth="no"/>
      <point x="1074" y="365"/>
      <point x="1206" y="257"/>
      <point x="1358" y="229" type="curve" smooth="no"/>
      <point x="1321" y="0" type="line" smooth="no"/>
      <point x="610" y="0" type="line" smooth="yes"/>
      <point x="306" y="0"/>
      <point x="86" y="146"/>
      <point x="86" y="447" type="curve" smooth="yes"/>
      <point x="86" y="775"/>
      <point x="140" y="927"/>
      <point x="368" y="1014" type="curve" smooth="no"/>
      <point x="392" y="1023" type="line" smooth="no"/>
      <point x="355" y="1064"/>
      <point x="337" y="1114"/>
    </contour>
  </outline>
</glyph>
<glyph name="uni0ED7" format="1">
  <advance width="1415"/>
  <unicode hex="0ed7"/>
  <outline>
    <contour>
      <point x="237" y="216" type="curve" smooth="yes"/>
      <point x="237" y="171"/>
      <point x="254" y="142"/>
      <point x="295" y="140" type="curve" smooth="no"/>
      <point x="347" y="140"/>
      <point x="358" y="174"/>
      <point x="358" y="231" type="curve" smooth="yes"/>
      <point x="358" y="283" type="line" smooth="no"/>
      <point x="307" y="283" type="line" smooth="yes"/>
      <point x="260" y="283"/>
      <point x="237" y="261"/>
    </contour>
    <contour>
      <point x="299" y="968" type="curve" smooth="no"/>
      <point x="257" y="968"/>
      <point x="234" y="945"/>
      <point x="234" y="903" type="curve" smooth="yes"/>
      <point x="234" y="857"/>
      <point x="258" y="826"/>
      <point x="305" y="826" type="curve" smooth="yes"/>
      <point x="310" y="826"/>
      <point x="327" y="830"/>
      <point x="358" y="837" type="curve" smooth="no"/>
      <point x="358" y="876" type="line" smooth="yes"/>
      <point x="358" y="927"/>
      <point x="343" y="965"/>
    </contour>
    <contour>
      <point x="581" y="973" type="curve" smooth="no"/>
      <point x="689" y="1043"/>
      <point x="791" y="1104"/>
      <point x="934" y="1104" type="curve" smooth="yes"/>
      <point x="1207" y="1104"/>
      <point x="1344" y="955"/>
      <point x="1344" y="657" type="curve" smooth="yes"/>
      <point x="1344" y="165" type="line" smooth="yes"/>
      <point x="1344" y="67"/>
      <point x="1359" y="-41"/>
      <point x="1389" y="-160" type="curve" smooth="no"/>
      <point x="1125" y="-160" type="line" smooth="no"/>
      <point x="1093" y="-61"/>
      <point x="1077" y="43"/>
      <point x="1077" y="153" type="curve" smooth="yes"/>
      <point x="1077" y="661" type="line" smooth="yes"/>
      <point x="1077" y="822"/>
      <point x="1063" y="935"/>
      <point x="906" y="935" type="curve" smooth="yes"/>
      <point x="786" y="935"/>
      <point x="708" y="876"/>
      <point x="624" y="826" type="curve" smooth="no"/>
      <point x="625" y="809"/>
      <point x="626" y="796"/>
      <point x="626" y="783" type="curve" smooth="yes"/>
      <point x="626" y="332" type="line" smooth="yes"/>
      <point x="626" y="134"/>
      <point x="522" y="0"/>
      <point x="324" y="0" type="curve" smooth="yes"/>
      <point x="155" y="0"/>
      <point x="70" y="72"/>
      <point x="70" y="216" type="curve" smooth="yes"/>
      <point x="70" y="332"/>
      <point x="154" y="407"/>
      <point x="271" y="407" type="curve" smooth="yes"/>
      <point x="278" y="407"/>
      <point x="307" y="399"/>
      <point x="358" y="384" type="curve" smooth="no"/>
      <point x="358" y="702" type="line" smooth="no"/>
      <point x="340" y="699"/>
      <point x="325" y="698"/>
      <point x="306" y="698" type="curve" smooth="yes"/>
      <point x="171" y="698"/>
      <point x="65" y="768"/>
      <point x="65" y="902" type="curve" smooth="yes"/>
      <point x="65" y="1041"/>
      <point x="182" y="1104"/>
      <point x="324" y="1104" type="curve" smooth="yes"/>
      <point x="453" y="1104"/>
      <point x="524" y="1056"/>
    </contour>
  </outline>
</glyph>
<glyph name="uni0ED8" format="1">
  <advance width="1469"/>
  <unicode hex="0ed8"/>
  <outline>
    <contour>
      <point x="1146" y="714" type="line" smooth="yes"/>
      <point x="1146" y="829"/>
      <point x="1139" y="935"/>
      <point x="1029" y="935" type="curve" smooth="yes"/>
      <point x="913" y="935"/>
      <point x="887" y="841"/>
      <point x="887" y="714" type="curve" smooth="yes"/>
      <point x="887" y="525" type="line" smooth="no"/>
      <point x="620" y="525" type="line" smooth="no"/>
      <point x="620" y="714" type="line" smooth="yes"/>
      <point x="620" y="842"/>
      <point x="598" y="935"/>
      <point x="487" y="935" type="curve" smooth="yes"/>
      <point x="374" y="935"/>
      <point x="353" y="847"/>
      <point x="353" y="722" type="curve" smooth="yes"/>
      <point x="353" y="387" type="line" smooth="no"/>
      <point x="396" y="401"/>
      <point x="427" y="408"/>
      <point x="447" y="408" type="curve" smooth="yes"/>
      <point x="562" y="408"/>
      <point x="643" y="320"/>
      <point x="643" y="204" type="curve" smooth="yes"/>
      <point x="643" y="57"/>
      <point x="540" y="0"/>
      <point x="380" y="0" type="curve" smooth="yes"/>
      <point x="199" y="0"/>
      <point x="86" y="133"/>
      <point x="86" y="315" type="curve" smooth="yes"/>
      <point x="86" y="642" type="line" smooth="yes"/>
      <point x="86" y="950"/>
      <point x="208" y="1104"/>
      <point x="453" y="1104" type="curve" smooth="yes"/>
      <point x="626" y="1104"/>
      <point x="727" y="1032"/>
      <point x="756" y="889" type="curve" smooth="no"/>
      <point x="782" y="1032"/>
      <point x="881" y="1104"/>
      <point x="1052" y="1104" type="curve" smooth="yes"/>
      <point x="1318" y="1104"/>
      <point x="1414" y="933"/>
      <point x="1414" y="653" type="curve" smooth="yes"/>
      <point x="1414" y="233" type="line" smooth="yes"/>
      <point x="1414" y="16"/>
      <point x="1350" y="-87"/>
      <point x="1215" y="-168" type="curve" smooth="no"/>
      <point x="1031" y="-280" type="line" smooth="no"/>
      <point x="1081" y="-326"/>
      <point x="1117" y="-361"/>
      <point x="1117" y="-458" type="curve" smooth="yes"/>
      <point x="1117" y="-558"/>
      <point x="1019" y="-617"/>
      <point x="918" y="-617" type="curve" smooth="yes"/>
      <point x="811" y="-617"/>
      <point x="747" y="-547"/>
      <point x="715" y="-461" type="curve" smooth="no"/>
      <point x="582" y="-536" type="line" smooth="yes"/>
      <point x="505" y="-579"/>
      <point x="431" y="-616"/>
      <point x="333" y="-616" type="curve" smooth="yes"/>
      <point x="197" y="-616"/>
      <point x="88" y="-524"/>
      <point x="88" y="-389" type="curve" smooth="yes"/>
      <point x="88" y="-182"/>
      <point x="223" y="-140"/>
      <point x="390" y="-93" type="curve" smooth="yes"/>
      <point x="1143" y="117" type="line" smooth="no"/>
      <point x="1145" y="146"/>
      <point x="1146" y="183"/>
      <point x="1146" y="229" type="curve" smooth="yes"/>
    </contour>
    <contour>
      <point x="476" y="212" type="curve" smooth="no"/>
      <point x="476" y="257"/>
      <point x="447" y="283"/>
      <point x="400" y="283" type="curve" smooth="yes"/>
      <point x="353" y="283" type="line" smooth="no"/>
      <point x="353" y="234" type="line" smooth="no"/>
      <point x="358" y="174"/>
      <point x="378" y="142"/>
      <point x="411" y="139" type="curve" smooth="no"/>
      <point x="452" y="145"/>
      <point x="473" y="169"/>
    </contour>
    <contour>
      <point x="733" y="-269" type="curve" smooth="no"/>
      <point x="755" y="-245"/>
      <point x="781" y="-216"/>
      <point x="810" y="-201" type="curve" smooth="yes"/>
      <point x="1004" y="-106" type="line" smooth="yes"/>
      <point x="1021" y="-97"/>
      <point x="1040" y="-86"/>
      <point x="1055" y="-76" type="curve" smooth="yes"/>
      <point x="1079" y="-60" type="line" smooth="no"/>
      <point x="392" y="-270" type="line" smooth="yes"/>
      <point x="338" y="-286"/>
      <point x="269" y="-301"/>
      <point x="269" y="-364" type="curve" smooth="no"/>
      <point x="275" y="-408"/>
      <point x="299" y="-431"/>
      <point x="342" y="-434" type="curve" smooth="no"/>
      <point x="470" y="-434"/>
      <point x="629" y="-315"/>
    </contour>
    <contour>
      <point x="908" y="-492" type="curve" smooth="yes"/>
      <point x="943" y="-492"/>
      <point x="973" y="-476"/>
      <point x="973" y="-441" type="curve" smooth="yes"/>
      <point x="973" y="-402"/>
      <point x="953" y="-378"/>
      <point x="914" y="-378" type="curve" smooth="yes"/>
      <point x="865" y="-378"/>
      <point x="852" y="-398"/>
      <point x="852" y="-440" type="curve" smooth="yes"/>
      <point x="852" y="-466"/>
      <point x="879" y="-492"/>
    </contour>
  </outline>
</glyph>
<glyph name="uni0EDD" format="1">
  <advance width="2751"/>
  <unicode hex="0edd"/>
  <outline>
    <contour>
      <point x="533" y="875" type="curve" smooth="yes"/>
      <point x="533" y="749"/>
      <point x="418" y="485"/>
      <point x="418" y="329" type="curve" smooth="yes"/>
      <point x="418" y="212"/>
      <point x="525" y="167"/>
      <point x="654" y="167" type="curve" smooth="yes"/>
      <point x="826" y="167"/>
      <point x="891" y="261"/>
      <point x="891" y="437" type="curve" smooth="yes"/>
      <point x="891" y="700" type="line" smooth="no"/>
      <point x="864" y="695"/>
      <point x="836" y="692"/>
      <point x="805" y="692" type="curve" smooth="yes"/>
      <point x="685" y="692"/>
      <point x="592" y="780"/>
      <point x="592" y="900" type="curve" smooth="yes"/>
      <point x="592" y="1040"/>
      <point x="704" y="1104"/>
      <point x="847" y="1104" type="curve" smooth="yes"/>
      <point x="976" y="1104"/>
      <point x="1061" y="1058"/>
      <point x="1120" y="981" type="curve" smooth="no"/>
      <point x="1209.65" y="1046"/>
      <point x="1304.73" y="1104"/>
      <point x="1446" y="1104" type="curve" smooth="yes"/>
      <point x="1693.2" y="1104"/>
      <point x="1863" y="937"/>
      <point x="1863" y="642" type="curve" smooth="yes"/>
      <point x="1863" y="271" type="line" smooth="no"/>
      <point x="1903.93" y="232.344"/>
      <point x="2013.79" y="167"/>
      <point x="2099" y="167" type="curve" smooth="yes"/>
      <point x="2283" y="167"/>
      <point x="2316" y="270"/>
      <point x="2316" y="457" type="curve" smooth="yes"/>
      <point x="2316" y="1104" type="line" smooth="no"/>
      <point x="2583" y="1104" type="line" smooth="no"/>
      <point x="2583" y="459" type="line" smooth="yes"/>
      <point x="2583" y="144"/>
      <point x="2436.09" y="0"/>
      <point x="2158" y="0" type="curve" smooth="yes"/>
      <point x="2000.35" y="0"/>
      <point x="1888.25" y="54.9184"/>
      <point x="1803" y="138" type="curve" smooth="no"/>
      <point x="1771.23" y="25.1667"/>
      <point x="1646.77" y="0"/>
      <point x="1561.23" y="0" type="curve" smooth="yes"/>
      <point x="1367.03" y="0"/>
      <point x="1281.32" y="106.911"/>
      <point x="1281.32" y="211.412" type="curve" smooth="yes"/>
      <point x="1281.32" y="336.311"/>
      <point x="1390.87" y="405.053"/>
      <point x="1500.99" y="405.053" type="curve" smooth="yes"/>
      <point x="1535.01" y="405.053"/>
      <point x="1569.08" y="398.492"/>
      <point x="1600" y="385" type="curve" smooth="no"/>
      <point x="1600" y="638" type="line" smooth="yes"/>
      <point x="1600" y="811"/>
      <point x="1548.62" y="935"/>
      <point x="1433" y="935" type="curve" smooth="yes"/>
      <point x="1320.91" y="935"/>
      <point x="1240.84" y="870"/>
      <point x="1159" y="817" type="curve" smooth="no"/>
      <point x="1159" y="466" type="line" smooth="yes"/>
      <point x="1159" y="161"/>
      <point x="968" y="0"/>
      <point x="662" y="0" type="curve" smooth="yes"/>
      <point x="405" y="0"/>
      <point x="166" y="83"/>
      <point x="166" y="334" type="curve" smooth="yes"/>
      <point x="166" y="454"/>
      <point x="213" y="554"/>
      <point x="250" y="682" type="curve" smooth="yes"/>
      <point x="258" y="710" type="line" smooth="no"/>
      <point x="232" y="701"/>
      <point x="205" y="697"/>
      <point x="178" y="697" type="curve" smooth="yes"/>
      <point x="71" y="697"/>
      <point x="5" y="787"/>
      <point x="5" y="896" type="curve" smooth="yes"/>
      <point x="5" y="1039"/>
      <point x="116" y="1104"/>
      <point x="261" y="1104" type="curve" smooth="yes"/>
      <point x="415" y="1104"/>
      <point x="533" y="1027"/>
    </contour>
    <contour>
      <point x="826" y="965" type="curve" smooth="yes"/>
      <point x="783" y="965"/>
      <point x="762" y="941"/>
      <point x="761" y="900" type="curve" smooth="no"/>
      <point x="761" y="854"/>
      <point x="779" y="818"/>
      <point x="823" y="818" type="curve" smooth="yes"/>
      <point x="848" y="818"/>
      <point x="870" y="823"/>
      <point x="891" y="834" type="curve" smooth="no"/>
      <point x="891" y="863" type="line" smooth="yes"/>
      <point x="891" y="931"/>
      <point x="869" y="965"/>
    </contour>
    <contour>
      <point x="307" y="901" type="curve" smooth="no"/>
      <point x="307" y="942"/>
      <point x="281" y="965"/>
      <point x="239" y="965" type="curve" smooth="yes"/>
      <point x="199" y="965"/>
      <point x="172" y="938"/>
      <point x="172" y="897" type="curve" smooth="yes"/>
      <point x="172" y="847"/>
      <point x="202" y="820"/>
      <point x="252" y="820" type="curve" smooth="yes"/>
      <point x="293" y="820" type="line" smooth="no"/>
      <point x="302" y="875"/>
      <point x="307" y="901"/>
    </contour>
    <contour>
      <point x="1532.41" y="285.078" type="curve" smooth="yes"/>
      <point x="1482.8" y="285.078"/>
      <point x="1458" y="255.41"/>
      <point x="1458" y="216" type="curve" smooth="yes"/>
      <point x="1458" y="159.429"/>
      <point x="1486.57" y="128"/>
      <point x="1538" y="128" type="curve" smooth="yes"/>
      <point x="1589.9" y="128"/>
      <point x="1599" y="162.66"/>
      <point x="1599" y="253" type="curve" smooth="yes"/>
      <point x="1599" y="272" type="line" smooth="no"/>
      <point x="1578.02" y="276.711"/>
      <point x="1555.82" y="285.078"/>
    </contour>
  </outline>
</glyph>
<glyph name="endash" format="1">
  <advance width="1139"/>
  <unicode hex="2013"/>
  <outline>
    <contour>
      <point x="241" y="796" type="line" smooth="no"/>
      <point x="861" y="796" type="line" smooth="no"/>
      <point x="861" y="577" type="line" smooth="no"/>
      <point x="241" y="577" type="line" smooth="no"/>
    </contour>
  </outline>
</glyph>
<glyph name="emdash" format="1">
  <advance width="1771"/>
  <unicode hex="2014"/>
  <outline>
    <contour>
      <point x="147" y="796" type="line" smooth="no"/>
      <point x="1587" y="796" type="line" smooth="no"/>
      <point x="1587" y="577" type="line" smooth="no"/>
      <point x="147" y="577" type="line" smooth="no"/>
    </contour>
  </outline>
</glyph>
<glyph name="quoteleft" format="1">
  <advance width="619"/>
  <unicode hex="2018"/>
  <outline>
    <contour>
      <point x="481" y="966" type="line" smooth="no"/>
      <point x="119" y="966" type="line" smooth="no"/>
      <point x="119" y="1290" type="line" smooth="yes"/>
      <point x="119" y="1501"/>
      <point x="266" y="1583"/>
      <point x="429" y="1631" type="curve" smooth="no"/>
      <point x="480" y="1523" type="line" smooth="no"/>
      <point x="392" y="1490"/>
      <point x="319" y="1458"/>
      <point x="319" y="1340" type="curve" smooth="no"/>
      <point x="481" y="1340" type="line" smooth="no"/>
    </contour>
  </outline>
</glyph>
<glyph name="quotedblleft" format="1">
  <advance width="1099"/>
  <unicode hex="201c"/>
  <outline>
    <contour>
      <point x="960" y="954" type="line" smooth="no"/>
      <point x="597" y="954" type="line" smooth="no"/>
      <point x="597" y="1278" type="line" smooth="yes"/>
      <point x="597" y="1489"/>
      <point x="745" y="1571"/>
      <point x="908" y="1619" type="curve" smooth="no"/>
      <point x="959" y="1511" type="line" smooth="no"/>
      <point x="871" y="1478"/>
      <point x="797" y="1446"/>
      <point x="797" y="1328" type="curve" smooth="no"/>
      <point x="960" y="1328" type="line" smooth="no"/>
    </contour>
    <contour>
      <point x="481" y="954" type="line" smooth="no"/>
      <point x="118" y="954" type="line" smooth="no"/>
      <point x="118" y="1278" type="line" smooth="yes"/>
      <point x="118" y="1489"/>
      <point x="266" y="1571"/>
      <point x="429" y="1619" type="curve" smooth="no"/>
      <point x="479" y="1511" type="line" smooth="no"/>
      <point x="392" y="1477"/>
      <point x="318" y="1446"/>
      <point x="318" y="1328" type="curve" smooth="no"/>
      <point x="481" y="1328" type="line" smooth="no"/>
    </contour>
  </outline>
</glyph>
<glyph name="ellipsis" format="1">
  <advance width="1655"/>
  <unicode hex="2026"/>
  <outline>
    <contour>
      <point x="1328" y="0" type="curve" smooth="no"/>
      <point x="1257" y="41"/>
      <point x="1208" y="126"/>
      <point x="1208" y="237" type="curve" smooth="no"/>
      <point x="1244" y="306"/>
      <point x="1327" y="357"/>
      <point x="1432" y="357" type="curve" smooth="no"/>
      <point x="1501" y="315"/>
      <point x="1553" y="230"/>
      <point x="1553" y="120" type="curve" smooth="no"/>
      <point x="1517" y="50"/>
      <point x="1433" y="0"/>
    </contour>
    <contour>
      <point x="777" y="0" type="curve" smooth="no"/>
      <point x="706" y="41"/>
      <point x="658" y="126"/>
      <point x="658" y="237" type="curve" smooth="no"/>
      <point x="694" y="306"/>
      <point x="777" y="357"/>
      <point x="882" y="357" type="curve" smooth="no"/>
      <point x="951" y="315"/>
      <point x="1003" y="230"/>
      <point x="1003" y="120" type="curve" smooth="no"/>
      <point x="967" y="50"/>
      <point x="882" y="0"/>
    </contour>
    <contour>
      <point x="234" y="0" type="curve" smooth="no"/>
      <point x="163" y="41"/>
      <point x="114" y="126"/>
      <point x="114" y="237" type="curve" smooth="no"/>
      <point x="150" y="306"/>
      <point x="233" y="357"/>
      <point x="338" y="357" type="curve" smooth="no"/>
      <point x="407" y="315"/>
      <point x="459" y="230"/>
      <point x="459" y="120" type="curve" smooth="no"/>
      <point x="423" y="50"/>
      <point x="339" y="0"/>
    </contour>
  </outline>
</glyph>
<glyph name="guilsinglright" format="1">
  <advance width="1009"/>
  <unicode hex="203a"/>
  <outline>
    <contour>
      <point x="151" y="17" type="line" smooth="no"/>
      <point x="151" y="286" type="line" smooth="no"/>
      <point x="661" y="598" type="line" smooth="no"/>
      <point x="150" y="908" type="line" smooth="no"/>
      <point x="150" y="1177" type="line" smooth="no"/>
      <point x="913" y="706" type="line" smooth="no"/>
      <point x="913" y="486" type="line" smooth="no"/>
    </contour>
  </outline>
</glyph>
<glyph name="Euro" format="1">
  <advance width="1259"/>
  <unicode hex="20ac"/>
  <outline>
    <contour>
      <point x="827.831" y="-36.9312" type="curve" smooth="yes"/>
      <point x="423.003" y="-36.9312"/>
      <point x="225.365" y="195.761"/>
      <point x="193" y="572" type="curve" smooth="no"/>
      <point x="61" y="572" type="line" smooth="no"/>
      <point x="61" y="737" type="line" smooth="no"/>
      <point x="187" y="737" type="line" smooth="no"/>
      <point x="188" y="777"/>
      <point x="188" y="810"/>
      <point x="191" y="844" type="curve" smooth="no"/>
      <point x="49" y="844" type="line" smooth="no"/>
      <point x="49" y="1009" type="line" smooth="no"/>
      <point x="214" y="1009" type="line" smooth="no"/>
      <point x="279" y="1320"/>
      <point x="462" y="1571"/>
      <point x="834" y="1571" type="curve" smooth="yes"/>
      <point x="985" y="1571"/>
      <point x="1114" y="1531"/>
      <point x="1201" y="1469" type="curve" smooth="no"/>
      <point x="1132" y="1261" type="line" smooth="no"/>
      <point x="1064" y="1313"/>
      <point x="943" y="1346"/>
      <point x="825" y="1346" type="curve" smooth="yes"/>
      <point x="630" y="1346"/>
      <point x="536" y="1188"/>
      <point x="494" y="1009" type="curve" smooth="no"/>
      <point x="887" y="1009" type="line" smooth="no"/>
      <point x="887" y="844" type="line" smooth="no"/>
      <point x="464" y="844" type="line" smooth="no"/>
      <point x="461" y="811"/>
      <point x="461" y="774"/>
      <point x="460" y="737" type="curve" smooth="no"/>
      <point x="824" y="737" type="line" smooth="no"/>
      <point x="824" y="572" type="line" smooth="no"/>
      <point x="467" y="572" type="line" smooth="no"/>
      <point x="491.055" y="338.326"/>
      <point x="627.056" y="189.675"/>
      <point x="811.701" y="189.675" type="curve" smooth="yes"/>
      <point x="895.717" y="189.675"/>
      <point x="989.805" y="220.452"/>
      <point x="1088" y="288" type="curve" smooth="no"/>
      <point x="1149" y="74" type="line" smooth="no"/>
      <point x="1070.55" y="-4.44635"/>
      <point x="951.648" y="-36.9312"/>
    </contour>
  </outline>
</glyph>
<glyph name="trademark" format="1">
  <advance width="1945"/>
  <unicode hex="2122"/>
  <outline>
    <contour>
      <point x="1051" y="1243" type="line" smooth="no"/>
      <point x="1051" y="550" type="line" smooth="no"/>
      <point x="879" y="550" type="line" smooth="no"/>
      <point x="879" y="1487" type="line" smooth="no"/>
      <point x="1142" y="1487" type="line" smooth="no"/>
      <point x="1370" y="764" type="line" smooth="no"/>
      <point x="1604" y="1487" type="line" smooth="no"/>
      <point x="1867" y="1487" type="line" smooth="no"/>
      <point x="1867" y="550" type="line" smooth="no"/>
      <point x="1695" y="550" type="line" smooth="no"/>
      <point x="1695" y="1243" type="line" smooth="no"/>
      <point x="1477" y="550" type="line" smooth="no"/>
      <point x="1270" y="550" type="line" smooth="no"/>
    </contour>
    <contour>
      <point x="530" y="1346" type="line" smooth="no"/>
      <point x="530" y="550" type="line" smooth="no"/>
      <point x="331" y="550" type="line" smooth="no"/>
      <point x="331" y="1346" type="line" smooth="no"/>
      <point x="85" y="1346" type="line" smooth="no"/>
      <point x="85" y="1487" type="line" smooth="no"/>
      <point x="771" y="1487" type="line" smooth="no"/>
      <point x="771" y="1346" type="line" smooth="no"/>
    </contour>
  </outline>
</glyph>
<glyph name="uni25CC" format="1">
  <advance width="1170"/>
  <unicode hex="25cc"/>
  <outline>
    <contour>
      <point x="800" y="947" type="line" smooth="no"/>
      <point x="949" y="839" type="line" smooth="no"/>
      <point x="900" y="771" type="line" smooth="no"/>
      <point x="752" y="880" type="line" smooth="no"/>
    </contour>
    <contour>
      <point x="270" y="216" type="line" smooth="no"/>
      <point x="418" y="108" type="line" smooth="no"/>
      <point x="370" y="41" type="line" smooth="no"/>
      <point x="221" y="149" type="line" smooth="no"/>
    </contour>
    <contour>
      <point x="1026" y="734" type="line" smooth="no"/>
      <point x="1082" y="559" type="line" smooth="no"/>
      <point x="1003" y="533" type="line" smooth="no"/>
      <point x="946" y="708" type="line" smooth="no"/>
    </contour>
    <contour>
      <point x="167" y="455" type="line" smooth="no"/>
      <point x="224" y="280" type="line" smooth="no"/>
      <point x="144" y="254" type="line" smooth="no"/>
      <point x="88" y="429" type="line" smooth="no"/>
    </contour>
    <contour>
      <point x="1082" y="429" type="line" smooth="no"/>
      <point x="1026" y="254" type="line" smooth="no"/>
      <point x="946" y="280" type="line" smooth="no"/>
      <point x="1003" y="455" type="line" smooth="no"/>
    </contour>
    <contour>
      <point x="224" y="708" type="line" smooth="no"/>
      <point x="167" y="533" type="line" smooth="no"/>
      <point x="88" y="559" type="line" smooth="no"/>
      <point x="144" y="734" type="line" smooth="no"/>
    </contour>
    <contour>
      <point x="949" y="149" type="line" smooth="no"/>
      <point x="800" y="41" type="line" smooth="no"/>
      <point x="752" y="108" type="line" smooth="no"/>
      <point x="900" y="216" type="line" smooth="no"/>
    </contour>
    <contour>
      <point x="418" y="880" type="line" smooth="no"/>
      <point x="270" y="771" type="line" smooth="no"/>
      <point x="221" y="839" type="line" smooth="no"/>
      <point x="370" y="947" type="line" smooth="no"/>
    </contour>
    <contour>
      <point x="677" y="1" type="line" smooth="no"/>
      <point x="493" y="1" type="line" smooth="no"/>
      <point x="493" y="84" type="line" smooth="no"/>
      <point x="677" y="84" type="line" smooth="no"/>
    </contour>
    <contour>
      <point x="677" y="904" type="line" smooth="no"/>
      <point x="493" y="904" type="line" smooth="no"/>
      <point x="493" y="987" type="line" smooth="no"/>
      <point x="677" y="987" type="line" smooth="no"/>
    </contour>
  </outline>
</glyph>
<glyph name="uniFB03" format="1">
  <advance width="2253"/>
  <unicode hex="fb03"/>
  <outline>
    <contour>
      <point x="1924" y="1412" type="curve" smooth="yes"/>
      <point x="1828" y="1412"/>
      <point x="1761" y="1482"/>
      <point x="1761" y="1578" type="curve" smooth="yes"/>
      <point x="1761" y="1673"/>
      <point x="1829" y="1744"/>
      <point x="1924" y="1744" type="curve" smooth="yes"/>
      <point x="2020" y="1744"/>
      <point x="2089" y="1674"/>
      <point x="2089" y="1578" type="curve" smooth="yes"/>
      <point x="2089" y="1482"/>
      <point x="2020" y="1412"/>
    </contour>
    <contour>
      <point x="1603" y="1453" type="line" smooth="no"/>
      <point x="1556" y="1471"/>
      <point x="1500" y="1494"/>
      <point x="1439" y="1494" type="curve" smooth="yes"/>
      <point x="1297.76" y="1494"/>
      <point x="1295" y="1350"/>
      <point x="1295" y="1203" type="curve" smooth="yes"/>
      <point x="1295" y="1197"/>
      <point x="1295" y="1191"/>
      <point x="1295" y="1185" type="curve" smooth="no"/>
      <point x="2068" y="1185" type="line" smooth="no"/>
      <point x="2068" y="0" type="line" smooth="no"/>
      <point x="1779" y="0" type="line" smooth="no"/>
      <point x="1779" y="1053" type="line" smooth="no"/>
      <point x="1294" y="1053" type="line" smooth="no"/>
      <point x="1294" y="0" type="line" smooth="no"/>
      <point x="1002" y="0" type="line" smooth="no"/>
      <point x="1002" y="1053" type="line" smooth="no"/>
      <point x="532" y="1053" type="line" smooth="no"/>
      <point x="532" y="0" type="line" smooth="no"/>
      <point x="239" y="0" type="line" smooth="no"/>
      <point x="239" y="1053" type="line" smooth="no"/>
      <point x="20" y="1053" type="line" smooth="no"/>
      <point x="20" y="1185" type="line" smooth="no"/>
      <point x="239" y="1185" type="line" smooth="no"/>
      <point x="239" y="1502"/>
      <point x="325" y="1711"/>
      <point x="617" y="1711" type="curve" smooth="yes"/>
      <point x="716" y="1711"/>
      <point x="788" y="1678"/>
      <point x="865" y="1661" type="curve" smooth="no"/>
      <point x="840" y="1453" type="line" smooth="no"/>
      <point x="793" y="1471"/>
      <point x="737" y="1494"/>
      <point x="676" y="1494" type="curve" smooth="yes"/>
      <point x="534.765" y="1494"/>
      <point x="531.995" y="1350"/>
      <point x="531.995" y="1203" type="curve" smooth="yes"/>
      <point x="531.995" y="1197"/>
      <point x="532" y="1191"/>
      <point x="532" y="1185" type="curve" smooth="no"/>
      <point x="1002" y="1185" type="line" smooth="no"/>
      <point x="1002" y="1502"/>
      <point x="1088" y="1711"/>
      <point x="1380" y="1711" type="curve" smooth="yes"/>
      <point x="1479" y="1711"/>
      <point x="1551" y="1678"/>
      <point x="1628" y="1661" type="curve" smooth="no"/>
    </contour>
  </outline>
</glyph>
<glyph name=".notdef" format="1">
  <advance width="761"/>
  <outline>
    <contour>
      <point x="554" y="69" type="line" smooth="no"/>
      <point x="554" y="1320" type="line" smooth="no"/>
      <point x="138" y="1320" type="line" smooth="no"/>
      <point x="138" y="69" type="line" smooth="no"/>
    </contour>
    <contour>
      <point x="69" y="1390" type="line" smooth="no"/>
      <point x="623" y="1390" type="line" smooth="no"/>
      <point x="623" y="0" type="line" smooth="no"/>
      <point x="69" y="0" type="line" smooth="no"/>
    </contour>
  </outline>
</glyph>
<glyph name="f_j" format="1">
  <advance width="1463"/>
  <outline>
    <contour>
      <point x="1159" y="1410" type="curve" smooth="yes"/>
      <point x="1064" y="1410"/>
      <point x="998" y="1481"/>
      <point x="998" y="1576" type="curve" smooth="yes"/>
      <point x="998" y="1672"/>
      <point x="1063" y="1742"/>
      <point x="1159" y="1742" type="curve" smooth="yes"/>
      <point x="1254" y="1742"/>
      <point x="1320" y="1671"/>
      <point x="1320" y="1576" type="curve" smooth="yes"/>
      <point x="1320" y="1480"/>
      <point x="1256" y="1410"/>
    </contour>
    <contour>
      <point x="840" y="1453" type="line" smooth="no"/>
      <point x="796" y="1474"/>
      <point x="740" y="1494"/>
      <point x="676" y="1494" type="curve" smooth="yes"/>
      <point x="534.765" y="1494"/>
      <point x="531.995" y="1350"/>
      <point x="531.995" y="1203" type="curve" smooth="yes"/>
      <point x="531.995" y="1197"/>
      <point x="532" y="1191"/>
      <point x="532" y="1185" type="curve" smooth="no"/>
      <point x="1307" y="1185" type="line" smooth="no"/>
      <point x="1307" y="187" type="line" smooth="yes"/>
      <point x="1307" y="-109"/>
      <point x="1136" y="-309"/>
      <point x="896" y="-364" type="curve" smooth="no"/>
      <point x="809" y="-173" type="line" smooth="no"/>
      <point x="939" y="-95"/>
      <point x="1013" y="0"/>
      <point x="1013" y="208" type="curve" smooth="yes"/>
      <point x="1013" y="1053" type="line" smooth="no"/>
      <point x="532" y="1053" type="line" smooth="no"/>
      <point x="532" y="0" type="line" smooth="no"/>
      <point x="239" y="0" type="line" smooth="no"/>
      <point x="239" y="1053" type="line" smooth="no"/>
      <point x="24" y="1053" type="line" smooth="no"/>
      <point x="24" y="1185" type="line" smooth="no"/>
      <point x="239" y="1185" type="line" smooth="no"/>
      <point x="239" y="1502"/>
      <point x="325" y="1711"/>
      <point x="617" y="1711" type="curve" smooth="yes"/>
      <point x="711" y="1711"/>
      <point x="793" y="1690"/>
      <point x="865" y="1661" type="curve" smooth="no"/>
    </contour>
  </outline>
</glyph>
<glyph name="t_t" format="1">
  <advance width="1740"/>
  <outline>
    <contour>
      <point x="1709" y="72" type="line" smooth="no"/>
      <point x="1625" y="19"/>
      <point x="1512" y="-24"/>
      <point x="1373" y="-24" type="curve" smooth="yes"/>
      <point x="1100" y="-24"/>
      <point x="1039" y="182"/>
      <point x="1039" y="460" type="curve" smooth="yes"/>
      <point x="1039" y="1054" type="line" smooth="no"/>
      <point x="530" y="1054" type="line" smooth="no"/>
      <point x="530" y="377" type="line" smooth="yes"/>
      <point x="530" y="264"/>
      <point x="546" y="177"/>
      <point x="648" y="177" type="curve" smooth="yes"/>
      <point x="717" y="177"/>
      <point x="778" y="219"/>
      <point x="832" y="251" type="curve" smooth="no"/>
      <point x="909" y="72" type="line" smooth="no"/>
      <point x="825" y="19"/>
      <point x="712" y="-24"/>
      <point x="573" y="-24" type="curve" smooth="yes"/>
      <point x="300" y="-24"/>
      <point x="239" y="182"/>
      <point x="239" y="460" type="curve" smooth="yes"/>
      <point x="239" y="1054" type="line" smooth="no"/>
      <point x="16" y="1054" type="line" smooth="no"/>
      <point x="16" y="1185" type="line" smooth="no"/>
      <point x="256" y="1185" type="line" smooth="no"/>
      <point x="256" y="1597" type="line" smooth="no"/>
      <point x="530" y="1667" type="line" smooth="no"/>
      <point x="530" y="1185" type="line" smooth="no"/>
      <point x="1056" y="1185" type="line" smooth="no"/>
      <point x="1056" y="1597" type="line" smooth="no"/>
      <point x="1331" y="1667" type="line" smooth="no"/>
      <point x="1331" y="1185" type="line" smooth="no"/>
      <point x="1666" y="1185" type="line" smooth="no"/>
      <point x="1666" y="1054" type="line" smooth="no"/>
      <point x="1331" y="1054" type="line" smooth="no"/>
      <point x="1331" y="377" type="line" smooth="yes"/>
      <point x="1331" y="265"/>
      <point x="1347" y="177"/>
      <point x="1448" y="177" type="curve" smooth="yes"/>
      <point x="1517" y="177"/>
      <point x="1579" y="219"/>
      <point x="1631" y="251" type="curve" smooth="no"/>
    </contour>
  </outline>
</glyph>
